%TF.GenerationSoftware,KiCad,Pcbnew,7.0.9*%
%TF.CreationDate,2023-12-23T01:36:17+05:30*%
%TF.ProjectId,HiveKB,48697665-4b42-42e6-9b69-6361645f7063,rev?*%
%TF.SameCoordinates,Original*%
%TF.FileFunction,Legend,Top*%
%TF.FilePolarity,Positive*%
%FSLAX46Y46*%
G04 Gerber Fmt 4.6, Leading zero omitted, Abs format (unit mm)*
G04 Created by KiCad (PCBNEW 7.0.9) date 2023-12-23 01:36:17*
%MOMM*%
%LPD*%
G01*
G04 APERTURE LIST*
%ADD10C,0.150000*%
%ADD11C,0.120000*%
%ADD12C,0.350000*%
G04 APERTURE END LIST*
D10*
X337536058Y-99001029D02*
X337536058Y-98001029D01*
X337536058Y-98001029D02*
X337774153Y-98001029D01*
X337774153Y-98001029D02*
X337917010Y-98048648D01*
X337917010Y-98048648D02*
X338012248Y-98143886D01*
X338012248Y-98143886D02*
X338059867Y-98239124D01*
X338059867Y-98239124D02*
X338107486Y-98429600D01*
X338107486Y-98429600D02*
X338107486Y-98572457D01*
X338107486Y-98572457D02*
X338059867Y-98762933D01*
X338059867Y-98762933D02*
X338012248Y-98858171D01*
X338012248Y-98858171D02*
X337917010Y-98953410D01*
X337917010Y-98953410D02*
X337774153Y-99001029D01*
X337774153Y-99001029D02*
X337536058Y-99001029D01*
X338440820Y-98001029D02*
X339059867Y-98001029D01*
X339059867Y-98001029D02*
X338726534Y-98381981D01*
X338726534Y-98381981D02*
X338869391Y-98381981D01*
X338869391Y-98381981D02*
X338964629Y-98429600D01*
X338964629Y-98429600D02*
X339012248Y-98477219D01*
X339012248Y-98477219D02*
X339059867Y-98572457D01*
X339059867Y-98572457D02*
X339059867Y-98810552D01*
X339059867Y-98810552D02*
X339012248Y-98905790D01*
X339012248Y-98905790D02*
X338964629Y-98953410D01*
X338964629Y-98953410D02*
X338869391Y-99001029D01*
X338869391Y-99001029D02*
X338583677Y-99001029D01*
X338583677Y-99001029D02*
X338488439Y-98953410D01*
X338488439Y-98953410D02*
X338440820Y-98905790D01*
X339917010Y-98001029D02*
X339726534Y-98001029D01*
X339726534Y-98001029D02*
X339631296Y-98048648D01*
X339631296Y-98048648D02*
X339583677Y-98096267D01*
X339583677Y-98096267D02*
X339488439Y-98239124D01*
X339488439Y-98239124D02*
X339440820Y-98429600D01*
X339440820Y-98429600D02*
X339440820Y-98810552D01*
X339440820Y-98810552D02*
X339488439Y-98905790D01*
X339488439Y-98905790D02*
X339536058Y-98953410D01*
X339536058Y-98953410D02*
X339631296Y-99001029D01*
X339631296Y-99001029D02*
X339821772Y-99001029D01*
X339821772Y-99001029D02*
X339917010Y-98953410D01*
X339917010Y-98953410D02*
X339964629Y-98905790D01*
X339964629Y-98905790D02*
X340012248Y-98810552D01*
X340012248Y-98810552D02*
X340012248Y-98572457D01*
X340012248Y-98572457D02*
X339964629Y-98477219D01*
X339964629Y-98477219D02*
X339917010Y-98429600D01*
X339917010Y-98429600D02*
X339821772Y-98381981D01*
X339821772Y-98381981D02*
X339631296Y-98381981D01*
X339631296Y-98381981D02*
X339536058Y-98429600D01*
X339536058Y-98429600D02*
X339488439Y-98477219D01*
X339488439Y-98477219D02*
X339440820Y-98572457D01*
X160462017Y-99001113D02*
X160462017Y-98001113D01*
X160462017Y-98001113D02*
X160700112Y-98001113D01*
X160700112Y-98001113D02*
X160842969Y-98048732D01*
X160842969Y-98048732D02*
X160938207Y-98143970D01*
X160938207Y-98143970D02*
X160985826Y-98239208D01*
X160985826Y-98239208D02*
X161033445Y-98429684D01*
X161033445Y-98429684D02*
X161033445Y-98572541D01*
X161033445Y-98572541D02*
X160985826Y-98763017D01*
X160985826Y-98763017D02*
X160938207Y-98858255D01*
X160938207Y-98858255D02*
X160842969Y-98953494D01*
X160842969Y-98953494D02*
X160700112Y-99001113D01*
X160700112Y-99001113D02*
X160462017Y-99001113D01*
X161938207Y-98001113D02*
X161462017Y-98001113D01*
X161462017Y-98001113D02*
X161414398Y-98477303D01*
X161414398Y-98477303D02*
X161462017Y-98429684D01*
X161462017Y-98429684D02*
X161557255Y-98382065D01*
X161557255Y-98382065D02*
X161795350Y-98382065D01*
X161795350Y-98382065D02*
X161890588Y-98429684D01*
X161890588Y-98429684D02*
X161938207Y-98477303D01*
X161938207Y-98477303D02*
X161985826Y-98572541D01*
X161985826Y-98572541D02*
X161985826Y-98810636D01*
X161985826Y-98810636D02*
X161938207Y-98905874D01*
X161938207Y-98905874D02*
X161890588Y-98953494D01*
X161890588Y-98953494D02*
X161795350Y-99001113D01*
X161795350Y-99001113D02*
X161557255Y-99001113D01*
X161557255Y-99001113D02*
X161462017Y-98953494D01*
X161462017Y-98953494D02*
X161414398Y-98905874D01*
X283536058Y-154859673D02*
X283536058Y-153859673D01*
X283536058Y-153859673D02*
X283774153Y-153859673D01*
X283774153Y-153859673D02*
X283917010Y-153907292D01*
X283917010Y-153907292D02*
X284012248Y-154002530D01*
X284012248Y-154002530D02*
X284059867Y-154097768D01*
X284059867Y-154097768D02*
X284107486Y-154288244D01*
X284107486Y-154288244D02*
X284107486Y-154431101D01*
X284107486Y-154431101D02*
X284059867Y-154621577D01*
X284059867Y-154621577D02*
X284012248Y-154716815D01*
X284012248Y-154716815D02*
X283917010Y-154812054D01*
X283917010Y-154812054D02*
X283774153Y-154859673D01*
X283774153Y-154859673D02*
X283536058Y-154859673D01*
X285012248Y-153859673D02*
X284536058Y-153859673D01*
X284536058Y-153859673D02*
X284488439Y-154335863D01*
X284488439Y-154335863D02*
X284536058Y-154288244D01*
X284536058Y-154288244D02*
X284631296Y-154240625D01*
X284631296Y-154240625D02*
X284869391Y-154240625D01*
X284869391Y-154240625D02*
X284964629Y-154288244D01*
X284964629Y-154288244D02*
X285012248Y-154335863D01*
X285012248Y-154335863D02*
X285059867Y-154431101D01*
X285059867Y-154431101D02*
X285059867Y-154669196D01*
X285059867Y-154669196D02*
X285012248Y-154764434D01*
X285012248Y-154764434D02*
X284964629Y-154812054D01*
X284964629Y-154812054D02*
X284869391Y-154859673D01*
X284869391Y-154859673D02*
X284631296Y-154859673D01*
X284631296Y-154859673D02*
X284536058Y-154812054D01*
X284536058Y-154812054D02*
X284488439Y-154764434D01*
X285440820Y-153954911D02*
X285488439Y-153907292D01*
X285488439Y-153907292D02*
X285583677Y-153859673D01*
X285583677Y-153859673D02*
X285821772Y-153859673D01*
X285821772Y-153859673D02*
X285917010Y-153907292D01*
X285917010Y-153907292D02*
X285964629Y-153954911D01*
X285964629Y-153954911D02*
X286012248Y-154050149D01*
X286012248Y-154050149D02*
X286012248Y-154145387D01*
X286012248Y-154145387D02*
X285964629Y-154288244D01*
X285964629Y-154288244D02*
X285393201Y-154859673D01*
X285393201Y-154859673D02*
X286012248Y-154859673D01*
X219286058Y-117620577D02*
X219286058Y-116620577D01*
X219286058Y-116620577D02*
X219524153Y-116620577D01*
X219524153Y-116620577D02*
X219667010Y-116668196D01*
X219667010Y-116668196D02*
X219762248Y-116763434D01*
X219762248Y-116763434D02*
X219809867Y-116858672D01*
X219809867Y-116858672D02*
X219857486Y-117049148D01*
X219857486Y-117049148D02*
X219857486Y-117192005D01*
X219857486Y-117192005D02*
X219809867Y-117382481D01*
X219809867Y-117382481D02*
X219762248Y-117477719D01*
X219762248Y-117477719D02*
X219667010Y-117572958D01*
X219667010Y-117572958D02*
X219524153Y-117620577D01*
X219524153Y-117620577D02*
X219286058Y-117620577D01*
X220190820Y-116620577D02*
X220809867Y-116620577D01*
X220809867Y-116620577D02*
X220476534Y-117001529D01*
X220476534Y-117001529D02*
X220619391Y-117001529D01*
X220619391Y-117001529D02*
X220714629Y-117049148D01*
X220714629Y-117049148D02*
X220762248Y-117096767D01*
X220762248Y-117096767D02*
X220809867Y-117192005D01*
X220809867Y-117192005D02*
X220809867Y-117430100D01*
X220809867Y-117430100D02*
X220762248Y-117525338D01*
X220762248Y-117525338D02*
X220714629Y-117572958D01*
X220714629Y-117572958D02*
X220619391Y-117620577D01*
X220619391Y-117620577D02*
X220333677Y-117620577D01*
X220333677Y-117620577D02*
X220238439Y-117572958D01*
X220238439Y-117572958D02*
X220190820Y-117525338D01*
X221143201Y-116620577D02*
X221809867Y-116620577D01*
X221809867Y-116620577D02*
X221381296Y-117620577D01*
X207237607Y-145176278D02*
X206437607Y-145176278D01*
X206818559Y-145176278D02*
X206818559Y-144719135D01*
X207237607Y-144719135D02*
X206437607Y-144719135D01*
X206818559Y-144338183D02*
X206818559Y-144071517D01*
X207237607Y-143957231D02*
X207237607Y-144338183D01*
X207237607Y-144338183D02*
X206437607Y-144338183D01*
X206437607Y-144338183D02*
X206437607Y-143957231D01*
X206437607Y-143690564D02*
X207237607Y-143157230D01*
X206437607Y-143157230D02*
X207237607Y-143690564D01*
X206513016Y-149633421D02*
X207313016Y-149633421D01*
X206932064Y-149633421D02*
X206932064Y-150090564D01*
X206513016Y-150090564D02*
X207313016Y-150090564D01*
X206932064Y-150471516D02*
X206932064Y-150738182D01*
X206513016Y-150852468D02*
X206513016Y-150471516D01*
X206513016Y-150471516D02*
X207313016Y-150471516D01*
X207313016Y-150471516D02*
X207313016Y-150852468D01*
X207313016Y-151119135D02*
X206513016Y-151652469D01*
X207313016Y-151652469D02*
X206513016Y-151119135D01*
X294536058Y-136240125D02*
X294536058Y-135240125D01*
X294536058Y-135240125D02*
X294774153Y-135240125D01*
X294774153Y-135240125D02*
X294917010Y-135287744D01*
X294917010Y-135287744D02*
X295012248Y-135382982D01*
X295012248Y-135382982D02*
X295059867Y-135478220D01*
X295059867Y-135478220D02*
X295107486Y-135668696D01*
X295107486Y-135668696D02*
X295107486Y-135811553D01*
X295107486Y-135811553D02*
X295059867Y-136002029D01*
X295059867Y-136002029D02*
X295012248Y-136097267D01*
X295012248Y-136097267D02*
X294917010Y-136192506D01*
X294917010Y-136192506D02*
X294774153Y-136240125D01*
X294774153Y-136240125D02*
X294536058Y-136240125D01*
X295964629Y-135573458D02*
X295964629Y-136240125D01*
X295726534Y-135192506D02*
X295488439Y-135906791D01*
X295488439Y-135906791D02*
X296107486Y-135906791D01*
X296917010Y-135240125D02*
X296726534Y-135240125D01*
X296726534Y-135240125D02*
X296631296Y-135287744D01*
X296631296Y-135287744D02*
X296583677Y-135335363D01*
X296583677Y-135335363D02*
X296488439Y-135478220D01*
X296488439Y-135478220D02*
X296440820Y-135668696D01*
X296440820Y-135668696D02*
X296440820Y-136049648D01*
X296440820Y-136049648D02*
X296488439Y-136144886D01*
X296488439Y-136144886D02*
X296536058Y-136192506D01*
X296536058Y-136192506D02*
X296631296Y-136240125D01*
X296631296Y-136240125D02*
X296821772Y-136240125D01*
X296821772Y-136240125D02*
X296917010Y-136192506D01*
X296917010Y-136192506D02*
X296964629Y-136144886D01*
X296964629Y-136144886D02*
X297012248Y-136049648D01*
X297012248Y-136049648D02*
X297012248Y-135811553D01*
X297012248Y-135811553D02*
X296964629Y-135716315D01*
X296964629Y-135716315D02*
X296917010Y-135668696D01*
X296917010Y-135668696D02*
X296821772Y-135621077D01*
X296821772Y-135621077D02*
X296631296Y-135621077D01*
X296631296Y-135621077D02*
X296536058Y-135668696D01*
X296536058Y-135668696D02*
X296488439Y-135716315D01*
X296488439Y-135716315D02*
X296440820Y-135811553D01*
X251536058Y-136240125D02*
X251536058Y-135240125D01*
X251536058Y-135240125D02*
X251774153Y-135240125D01*
X251774153Y-135240125D02*
X251917010Y-135287744D01*
X251917010Y-135287744D02*
X252012248Y-135382982D01*
X252012248Y-135382982D02*
X252059867Y-135478220D01*
X252059867Y-135478220D02*
X252107486Y-135668696D01*
X252107486Y-135668696D02*
X252107486Y-135811553D01*
X252107486Y-135811553D02*
X252059867Y-136002029D01*
X252059867Y-136002029D02*
X252012248Y-136097267D01*
X252012248Y-136097267D02*
X251917010Y-136192506D01*
X251917010Y-136192506D02*
X251774153Y-136240125D01*
X251774153Y-136240125D02*
X251536058Y-136240125D01*
X252964629Y-135573458D02*
X252964629Y-136240125D01*
X252726534Y-135192506D02*
X252488439Y-135906791D01*
X252488439Y-135906791D02*
X253107486Y-135906791D01*
X253917010Y-135573458D02*
X253917010Y-136240125D01*
X253678915Y-135192506D02*
X253440820Y-135906791D01*
X253440820Y-135906791D02*
X254059867Y-135906791D01*
X117212017Y-99001113D02*
X117212017Y-98001113D01*
X117212017Y-98001113D02*
X117450112Y-98001113D01*
X117450112Y-98001113D02*
X117592969Y-98048732D01*
X117592969Y-98048732D02*
X117688207Y-98143970D01*
X117688207Y-98143970D02*
X117735826Y-98239208D01*
X117735826Y-98239208D02*
X117783445Y-98429684D01*
X117783445Y-98429684D02*
X117783445Y-98572541D01*
X117783445Y-98572541D02*
X117735826Y-98763017D01*
X117735826Y-98763017D02*
X117688207Y-98858255D01*
X117688207Y-98858255D02*
X117592969Y-98953494D01*
X117592969Y-98953494D02*
X117450112Y-99001113D01*
X117450112Y-99001113D02*
X117212017Y-99001113D01*
X118116779Y-98001113D02*
X118735826Y-98001113D01*
X118735826Y-98001113D02*
X118402493Y-98382065D01*
X118402493Y-98382065D02*
X118545350Y-98382065D01*
X118545350Y-98382065D02*
X118640588Y-98429684D01*
X118640588Y-98429684D02*
X118688207Y-98477303D01*
X118688207Y-98477303D02*
X118735826Y-98572541D01*
X118735826Y-98572541D02*
X118735826Y-98810636D01*
X118735826Y-98810636D02*
X118688207Y-98905874D01*
X118688207Y-98905874D02*
X118640588Y-98953494D01*
X118640588Y-98953494D02*
X118545350Y-99001113D01*
X118545350Y-99001113D02*
X118259636Y-99001113D01*
X118259636Y-99001113D02*
X118164398Y-98953494D01*
X118164398Y-98953494D02*
X118116779Y-98905874D01*
X305286058Y-154859673D02*
X305286058Y-153859673D01*
X305286058Y-153859673D02*
X305524153Y-153859673D01*
X305524153Y-153859673D02*
X305667010Y-153907292D01*
X305667010Y-153907292D02*
X305762248Y-154002530D01*
X305762248Y-154002530D02*
X305809867Y-154097768D01*
X305809867Y-154097768D02*
X305857486Y-154288244D01*
X305857486Y-154288244D02*
X305857486Y-154431101D01*
X305857486Y-154431101D02*
X305809867Y-154621577D01*
X305809867Y-154621577D02*
X305762248Y-154716815D01*
X305762248Y-154716815D02*
X305667010Y-154812054D01*
X305667010Y-154812054D02*
X305524153Y-154859673D01*
X305524153Y-154859673D02*
X305286058Y-154859673D01*
X306762248Y-153859673D02*
X306286058Y-153859673D01*
X306286058Y-153859673D02*
X306238439Y-154335863D01*
X306238439Y-154335863D02*
X306286058Y-154288244D01*
X306286058Y-154288244D02*
X306381296Y-154240625D01*
X306381296Y-154240625D02*
X306619391Y-154240625D01*
X306619391Y-154240625D02*
X306714629Y-154288244D01*
X306714629Y-154288244D02*
X306762248Y-154335863D01*
X306762248Y-154335863D02*
X306809867Y-154431101D01*
X306809867Y-154431101D02*
X306809867Y-154669196D01*
X306809867Y-154669196D02*
X306762248Y-154764434D01*
X306762248Y-154764434D02*
X306714629Y-154812054D01*
X306714629Y-154812054D02*
X306619391Y-154859673D01*
X306619391Y-154859673D02*
X306381296Y-154859673D01*
X306381296Y-154859673D02*
X306286058Y-154812054D01*
X306286058Y-154812054D02*
X306238439Y-154764434D01*
X307143201Y-153859673D02*
X307762248Y-153859673D01*
X307762248Y-153859673D02*
X307428915Y-154240625D01*
X307428915Y-154240625D02*
X307571772Y-154240625D01*
X307571772Y-154240625D02*
X307667010Y-154288244D01*
X307667010Y-154288244D02*
X307714629Y-154335863D01*
X307714629Y-154335863D02*
X307762248Y-154431101D01*
X307762248Y-154431101D02*
X307762248Y-154669196D01*
X307762248Y-154669196D02*
X307714629Y-154764434D01*
X307714629Y-154764434D02*
X307667010Y-154812054D01*
X307667010Y-154812054D02*
X307571772Y-154859673D01*
X307571772Y-154859673D02*
X307286058Y-154859673D01*
X307286058Y-154859673D02*
X307190820Y-154812054D01*
X307190820Y-154812054D02*
X307143201Y-154764434D01*
X229911058Y-210718317D02*
X229911058Y-209718317D01*
X229911058Y-209718317D02*
X230149153Y-209718317D01*
X230149153Y-209718317D02*
X230292010Y-209765936D01*
X230292010Y-209765936D02*
X230387248Y-209861174D01*
X230387248Y-209861174D02*
X230434867Y-209956412D01*
X230434867Y-209956412D02*
X230482486Y-210146888D01*
X230482486Y-210146888D02*
X230482486Y-210289745D01*
X230482486Y-210289745D02*
X230434867Y-210480221D01*
X230434867Y-210480221D02*
X230387248Y-210575459D01*
X230387248Y-210575459D02*
X230292010Y-210670698D01*
X230292010Y-210670698D02*
X230149153Y-210718317D01*
X230149153Y-210718317D02*
X229911058Y-210718317D01*
X231387248Y-209718317D02*
X230911058Y-209718317D01*
X230911058Y-209718317D02*
X230863439Y-210194507D01*
X230863439Y-210194507D02*
X230911058Y-210146888D01*
X230911058Y-210146888D02*
X231006296Y-210099269D01*
X231006296Y-210099269D02*
X231244391Y-210099269D01*
X231244391Y-210099269D02*
X231339629Y-210146888D01*
X231339629Y-210146888D02*
X231387248Y-210194507D01*
X231387248Y-210194507D02*
X231434867Y-210289745D01*
X231434867Y-210289745D02*
X231434867Y-210527840D01*
X231434867Y-210527840D02*
X231387248Y-210623078D01*
X231387248Y-210623078D02*
X231339629Y-210670698D01*
X231339629Y-210670698D02*
X231244391Y-210718317D01*
X231244391Y-210718317D02*
X231006296Y-210718317D01*
X231006296Y-210718317D02*
X230911058Y-210670698D01*
X230911058Y-210670698D02*
X230863439Y-210623078D01*
X232339629Y-209718317D02*
X231863439Y-209718317D01*
X231863439Y-209718317D02*
X231815820Y-210194507D01*
X231815820Y-210194507D02*
X231863439Y-210146888D01*
X231863439Y-210146888D02*
X231958677Y-210099269D01*
X231958677Y-210099269D02*
X232196772Y-210099269D01*
X232196772Y-210099269D02*
X232292010Y-210146888D01*
X232292010Y-210146888D02*
X232339629Y-210194507D01*
X232339629Y-210194507D02*
X232387248Y-210289745D01*
X232387248Y-210289745D02*
X232387248Y-210527840D01*
X232387248Y-210527840D02*
X232339629Y-210623078D01*
X232339629Y-210623078D02*
X232292010Y-210670698D01*
X232292010Y-210670698D02*
X232196772Y-210718317D01*
X232196772Y-210718317D02*
X231958677Y-210718317D01*
X231958677Y-210718317D02*
X231863439Y-210670698D01*
X231863439Y-210670698D02*
X231815820Y-210623078D01*
X170735826Y-154859713D02*
X170735826Y-153859713D01*
X170735826Y-153859713D02*
X170973921Y-153859713D01*
X170973921Y-153859713D02*
X171116778Y-153907332D01*
X171116778Y-153907332D02*
X171212016Y-154002570D01*
X171212016Y-154002570D02*
X171259635Y-154097808D01*
X171259635Y-154097808D02*
X171307254Y-154288284D01*
X171307254Y-154288284D02*
X171307254Y-154431141D01*
X171307254Y-154431141D02*
X171259635Y-154621617D01*
X171259635Y-154621617D02*
X171212016Y-154716855D01*
X171212016Y-154716855D02*
X171116778Y-154812094D01*
X171116778Y-154812094D02*
X170973921Y-154859713D01*
X170973921Y-154859713D02*
X170735826Y-154859713D01*
X171688207Y-153954951D02*
X171735826Y-153907332D01*
X171735826Y-153907332D02*
X171831064Y-153859713D01*
X171831064Y-153859713D02*
X172069159Y-153859713D01*
X172069159Y-153859713D02*
X172164397Y-153907332D01*
X172164397Y-153907332D02*
X172212016Y-153954951D01*
X172212016Y-153954951D02*
X172259635Y-154050189D01*
X172259635Y-154050189D02*
X172259635Y-154145427D01*
X172259635Y-154145427D02*
X172212016Y-154288284D01*
X172212016Y-154288284D02*
X171640588Y-154859713D01*
X171640588Y-154859713D02*
X172259635Y-154859713D01*
X172592969Y-153859713D02*
X173212016Y-153859713D01*
X173212016Y-153859713D02*
X172878683Y-154240665D01*
X172878683Y-154240665D02*
X173021540Y-154240665D01*
X173021540Y-154240665D02*
X173116778Y-154288284D01*
X173116778Y-154288284D02*
X173164397Y-154335903D01*
X173164397Y-154335903D02*
X173212016Y-154431141D01*
X173212016Y-154431141D02*
X173212016Y-154669236D01*
X173212016Y-154669236D02*
X173164397Y-154764474D01*
X173164397Y-154764474D02*
X173116778Y-154812094D01*
X173116778Y-154812094D02*
X173021540Y-154859713D01*
X173021540Y-154859713D02*
X172735826Y-154859713D01*
X172735826Y-154859713D02*
X172640588Y-154812094D01*
X172640588Y-154812094D02*
X172592969Y-154764474D01*
X181712017Y-99001113D02*
X181712017Y-98001113D01*
X181712017Y-98001113D02*
X181950112Y-98001113D01*
X181950112Y-98001113D02*
X182092969Y-98048732D01*
X182092969Y-98048732D02*
X182188207Y-98143970D01*
X182188207Y-98143970D02*
X182235826Y-98239208D01*
X182235826Y-98239208D02*
X182283445Y-98429684D01*
X182283445Y-98429684D02*
X182283445Y-98572541D01*
X182283445Y-98572541D02*
X182235826Y-98763017D01*
X182235826Y-98763017D02*
X182188207Y-98858255D01*
X182188207Y-98858255D02*
X182092969Y-98953494D01*
X182092969Y-98953494D02*
X181950112Y-99001113D01*
X181950112Y-99001113D02*
X181712017Y-99001113D01*
X183140588Y-98001113D02*
X182950112Y-98001113D01*
X182950112Y-98001113D02*
X182854874Y-98048732D01*
X182854874Y-98048732D02*
X182807255Y-98096351D01*
X182807255Y-98096351D02*
X182712017Y-98239208D01*
X182712017Y-98239208D02*
X182664398Y-98429684D01*
X182664398Y-98429684D02*
X182664398Y-98810636D01*
X182664398Y-98810636D02*
X182712017Y-98905874D01*
X182712017Y-98905874D02*
X182759636Y-98953494D01*
X182759636Y-98953494D02*
X182854874Y-99001113D01*
X182854874Y-99001113D02*
X183045350Y-99001113D01*
X183045350Y-99001113D02*
X183140588Y-98953494D01*
X183140588Y-98953494D02*
X183188207Y-98905874D01*
X183188207Y-98905874D02*
X183235826Y-98810636D01*
X183235826Y-98810636D02*
X183235826Y-98572541D01*
X183235826Y-98572541D02*
X183188207Y-98477303D01*
X183188207Y-98477303D02*
X183140588Y-98429684D01*
X183140588Y-98429684D02*
X183045350Y-98382065D01*
X183045350Y-98382065D02*
X182854874Y-98382065D01*
X182854874Y-98382065D02*
X182759636Y-98429684D01*
X182759636Y-98429684D02*
X182712017Y-98477303D01*
X182712017Y-98477303D02*
X182664398Y-98572541D01*
X74212017Y-99001113D02*
X74212017Y-98001113D01*
X74212017Y-98001113D02*
X74450112Y-98001113D01*
X74450112Y-98001113D02*
X74592969Y-98048732D01*
X74592969Y-98048732D02*
X74688207Y-98143970D01*
X74688207Y-98143970D02*
X74735826Y-98239208D01*
X74735826Y-98239208D02*
X74783445Y-98429684D01*
X74783445Y-98429684D02*
X74783445Y-98572541D01*
X74783445Y-98572541D02*
X74735826Y-98763017D01*
X74735826Y-98763017D02*
X74688207Y-98858255D01*
X74688207Y-98858255D02*
X74592969Y-98953494D01*
X74592969Y-98953494D02*
X74450112Y-99001113D01*
X74450112Y-99001113D02*
X74212017Y-99001113D01*
X75735826Y-99001113D02*
X75164398Y-99001113D01*
X75450112Y-99001113D02*
X75450112Y-98001113D01*
X75450112Y-98001113D02*
X75354874Y-98143970D01*
X75354874Y-98143970D02*
X75259636Y-98239208D01*
X75259636Y-98239208D02*
X75164398Y-98286827D01*
X116985826Y-173479213D02*
X116985826Y-172479213D01*
X116985826Y-172479213D02*
X117223921Y-172479213D01*
X117223921Y-172479213D02*
X117366778Y-172526832D01*
X117366778Y-172526832D02*
X117462016Y-172622070D01*
X117462016Y-172622070D02*
X117509635Y-172717308D01*
X117509635Y-172717308D02*
X117557254Y-172907784D01*
X117557254Y-172907784D02*
X117557254Y-173050641D01*
X117557254Y-173050641D02*
X117509635Y-173241117D01*
X117509635Y-173241117D02*
X117462016Y-173336355D01*
X117462016Y-173336355D02*
X117366778Y-173431594D01*
X117366778Y-173431594D02*
X117223921Y-173479213D01*
X117223921Y-173479213D02*
X116985826Y-173479213D01*
X117938207Y-172574451D02*
X117985826Y-172526832D01*
X117985826Y-172526832D02*
X118081064Y-172479213D01*
X118081064Y-172479213D02*
X118319159Y-172479213D01*
X118319159Y-172479213D02*
X118414397Y-172526832D01*
X118414397Y-172526832D02*
X118462016Y-172574451D01*
X118462016Y-172574451D02*
X118509635Y-172669689D01*
X118509635Y-172669689D02*
X118509635Y-172764927D01*
X118509635Y-172764927D02*
X118462016Y-172907784D01*
X118462016Y-172907784D02*
X117890588Y-173479213D01*
X117890588Y-173479213D02*
X118509635Y-173479213D01*
X119414397Y-172479213D02*
X118938207Y-172479213D01*
X118938207Y-172479213D02*
X118890588Y-172955403D01*
X118890588Y-172955403D02*
X118938207Y-172907784D01*
X118938207Y-172907784D02*
X119033445Y-172860165D01*
X119033445Y-172860165D02*
X119271540Y-172860165D01*
X119271540Y-172860165D02*
X119366778Y-172907784D01*
X119366778Y-172907784D02*
X119414397Y-172955403D01*
X119414397Y-172955403D02*
X119462016Y-173050641D01*
X119462016Y-173050641D02*
X119462016Y-173288736D01*
X119462016Y-173288736D02*
X119414397Y-173383974D01*
X119414397Y-173383974D02*
X119366778Y-173431594D01*
X119366778Y-173431594D02*
X119271540Y-173479213D01*
X119271540Y-173479213D02*
X119033445Y-173479213D01*
X119033445Y-173479213D02*
X118938207Y-173431594D01*
X118938207Y-173431594D02*
X118890588Y-173383974D01*
X326786058Y-117620577D02*
X326786058Y-116620577D01*
X326786058Y-116620577D02*
X327024153Y-116620577D01*
X327024153Y-116620577D02*
X327167010Y-116668196D01*
X327167010Y-116668196D02*
X327262248Y-116763434D01*
X327262248Y-116763434D02*
X327309867Y-116858672D01*
X327309867Y-116858672D02*
X327357486Y-117049148D01*
X327357486Y-117049148D02*
X327357486Y-117192005D01*
X327357486Y-117192005D02*
X327309867Y-117382481D01*
X327309867Y-117382481D02*
X327262248Y-117477719D01*
X327262248Y-117477719D02*
X327167010Y-117572958D01*
X327167010Y-117572958D02*
X327024153Y-117620577D01*
X327024153Y-117620577D02*
X326786058Y-117620577D01*
X328214629Y-116953910D02*
X328214629Y-117620577D01*
X327976534Y-116572958D02*
X327738439Y-117287243D01*
X327738439Y-117287243D02*
X328357486Y-117287243D01*
X328690820Y-116715815D02*
X328738439Y-116668196D01*
X328738439Y-116668196D02*
X328833677Y-116620577D01*
X328833677Y-116620577D02*
X329071772Y-116620577D01*
X329071772Y-116620577D02*
X329167010Y-116668196D01*
X329167010Y-116668196D02*
X329214629Y-116715815D01*
X329214629Y-116715815D02*
X329262248Y-116811053D01*
X329262248Y-116811053D02*
X329262248Y-116906291D01*
X329262248Y-116906291D02*
X329214629Y-117049148D01*
X329214629Y-117049148D02*
X328643201Y-117620577D01*
X328643201Y-117620577D02*
X329262248Y-117620577D01*
X251536058Y-173479221D02*
X251536058Y-172479221D01*
X251536058Y-172479221D02*
X251774153Y-172479221D01*
X251774153Y-172479221D02*
X251917010Y-172526840D01*
X251917010Y-172526840D02*
X252012248Y-172622078D01*
X252012248Y-172622078D02*
X252059867Y-172717316D01*
X252059867Y-172717316D02*
X252107486Y-172907792D01*
X252107486Y-172907792D02*
X252107486Y-173050649D01*
X252107486Y-173050649D02*
X252059867Y-173241125D01*
X252059867Y-173241125D02*
X252012248Y-173336363D01*
X252012248Y-173336363D02*
X251917010Y-173431602D01*
X251917010Y-173431602D02*
X251774153Y-173479221D01*
X251774153Y-173479221D02*
X251536058Y-173479221D01*
X253012248Y-172479221D02*
X252536058Y-172479221D01*
X252536058Y-172479221D02*
X252488439Y-172955411D01*
X252488439Y-172955411D02*
X252536058Y-172907792D01*
X252536058Y-172907792D02*
X252631296Y-172860173D01*
X252631296Y-172860173D02*
X252869391Y-172860173D01*
X252869391Y-172860173D02*
X252964629Y-172907792D01*
X252964629Y-172907792D02*
X253012248Y-172955411D01*
X253012248Y-172955411D02*
X253059867Y-173050649D01*
X253059867Y-173050649D02*
X253059867Y-173288744D01*
X253059867Y-173288744D02*
X253012248Y-173383982D01*
X253012248Y-173383982D02*
X252964629Y-173431602D01*
X252964629Y-173431602D02*
X252869391Y-173479221D01*
X252869391Y-173479221D02*
X252631296Y-173479221D01*
X252631296Y-173479221D02*
X252536058Y-173431602D01*
X252536058Y-173431602D02*
X252488439Y-173383982D01*
X253631296Y-172907792D02*
X253536058Y-172860173D01*
X253536058Y-172860173D02*
X253488439Y-172812554D01*
X253488439Y-172812554D02*
X253440820Y-172717316D01*
X253440820Y-172717316D02*
X253440820Y-172669697D01*
X253440820Y-172669697D02*
X253488439Y-172574459D01*
X253488439Y-172574459D02*
X253536058Y-172526840D01*
X253536058Y-172526840D02*
X253631296Y-172479221D01*
X253631296Y-172479221D02*
X253821772Y-172479221D01*
X253821772Y-172479221D02*
X253917010Y-172526840D01*
X253917010Y-172526840D02*
X253964629Y-172574459D01*
X253964629Y-172574459D02*
X254012248Y-172669697D01*
X254012248Y-172669697D02*
X254012248Y-172717316D01*
X254012248Y-172717316D02*
X253964629Y-172812554D01*
X253964629Y-172812554D02*
X253917010Y-172860173D01*
X253917010Y-172860173D02*
X253821772Y-172907792D01*
X253821772Y-172907792D02*
X253631296Y-172907792D01*
X253631296Y-172907792D02*
X253536058Y-172955411D01*
X253536058Y-172955411D02*
X253488439Y-173003030D01*
X253488439Y-173003030D02*
X253440820Y-173098268D01*
X253440820Y-173098268D02*
X253440820Y-173288744D01*
X253440820Y-173288744D02*
X253488439Y-173383982D01*
X253488439Y-173383982D02*
X253536058Y-173431602D01*
X253536058Y-173431602D02*
X253631296Y-173479221D01*
X253631296Y-173479221D02*
X253821772Y-173479221D01*
X253821772Y-173479221D02*
X253917010Y-173431602D01*
X253917010Y-173431602D02*
X253964629Y-173383982D01*
X253964629Y-173383982D02*
X254012248Y-173288744D01*
X254012248Y-173288744D02*
X254012248Y-173098268D01*
X254012248Y-173098268D02*
X253964629Y-173003030D01*
X253964629Y-173003030D02*
X253917010Y-172955411D01*
X253917010Y-172955411D02*
X253821772Y-172907792D01*
X294536058Y-173479221D02*
X294536058Y-172479221D01*
X294536058Y-172479221D02*
X294774153Y-172479221D01*
X294774153Y-172479221D02*
X294917010Y-172526840D01*
X294917010Y-172526840D02*
X295012248Y-172622078D01*
X295012248Y-172622078D02*
X295059867Y-172717316D01*
X295059867Y-172717316D02*
X295107486Y-172907792D01*
X295107486Y-172907792D02*
X295107486Y-173050649D01*
X295107486Y-173050649D02*
X295059867Y-173241125D01*
X295059867Y-173241125D02*
X295012248Y-173336363D01*
X295012248Y-173336363D02*
X294917010Y-173431602D01*
X294917010Y-173431602D02*
X294774153Y-173479221D01*
X294774153Y-173479221D02*
X294536058Y-173479221D01*
X295964629Y-172479221D02*
X295774153Y-172479221D01*
X295774153Y-172479221D02*
X295678915Y-172526840D01*
X295678915Y-172526840D02*
X295631296Y-172574459D01*
X295631296Y-172574459D02*
X295536058Y-172717316D01*
X295536058Y-172717316D02*
X295488439Y-172907792D01*
X295488439Y-172907792D02*
X295488439Y-173288744D01*
X295488439Y-173288744D02*
X295536058Y-173383982D01*
X295536058Y-173383982D02*
X295583677Y-173431602D01*
X295583677Y-173431602D02*
X295678915Y-173479221D01*
X295678915Y-173479221D02*
X295869391Y-173479221D01*
X295869391Y-173479221D02*
X295964629Y-173431602D01*
X295964629Y-173431602D02*
X296012248Y-173383982D01*
X296012248Y-173383982D02*
X296059867Y-173288744D01*
X296059867Y-173288744D02*
X296059867Y-173050649D01*
X296059867Y-173050649D02*
X296012248Y-172955411D01*
X296012248Y-172955411D02*
X295964629Y-172907792D01*
X295964629Y-172907792D02*
X295869391Y-172860173D01*
X295869391Y-172860173D02*
X295678915Y-172860173D01*
X295678915Y-172860173D02*
X295583677Y-172907792D01*
X295583677Y-172907792D02*
X295536058Y-172955411D01*
X295536058Y-172955411D02*
X295488439Y-173050649D01*
X296678915Y-172479221D02*
X296774153Y-172479221D01*
X296774153Y-172479221D02*
X296869391Y-172526840D01*
X296869391Y-172526840D02*
X296917010Y-172574459D01*
X296917010Y-172574459D02*
X296964629Y-172669697D01*
X296964629Y-172669697D02*
X297012248Y-172860173D01*
X297012248Y-172860173D02*
X297012248Y-173098268D01*
X297012248Y-173098268D02*
X296964629Y-173288744D01*
X296964629Y-173288744D02*
X296917010Y-173383982D01*
X296917010Y-173383982D02*
X296869391Y-173431602D01*
X296869391Y-173431602D02*
X296774153Y-173479221D01*
X296774153Y-173479221D02*
X296678915Y-173479221D01*
X296678915Y-173479221D02*
X296583677Y-173431602D01*
X296583677Y-173431602D02*
X296536058Y-173383982D01*
X296536058Y-173383982D02*
X296488439Y-173288744D01*
X296488439Y-173288744D02*
X296440820Y-173098268D01*
X296440820Y-173098268D02*
X296440820Y-172860173D01*
X296440820Y-172860173D02*
X296488439Y-172669697D01*
X296488439Y-172669697D02*
X296536058Y-172574459D01*
X296536058Y-172574459D02*
X296583677Y-172526840D01*
X296583677Y-172526840D02*
X296678915Y-172479221D01*
X294536058Y-99001029D02*
X294536058Y-98001029D01*
X294536058Y-98001029D02*
X294774153Y-98001029D01*
X294774153Y-98001029D02*
X294917010Y-98048648D01*
X294917010Y-98048648D02*
X295012248Y-98143886D01*
X295012248Y-98143886D02*
X295059867Y-98239124D01*
X295059867Y-98239124D02*
X295107486Y-98429600D01*
X295107486Y-98429600D02*
X295107486Y-98572457D01*
X295107486Y-98572457D02*
X295059867Y-98762933D01*
X295059867Y-98762933D02*
X295012248Y-98858171D01*
X295012248Y-98858171D02*
X294917010Y-98953410D01*
X294917010Y-98953410D02*
X294774153Y-99001029D01*
X294774153Y-99001029D02*
X294536058Y-99001029D01*
X295440820Y-98001029D02*
X296059867Y-98001029D01*
X296059867Y-98001029D02*
X295726534Y-98381981D01*
X295726534Y-98381981D02*
X295869391Y-98381981D01*
X295869391Y-98381981D02*
X295964629Y-98429600D01*
X295964629Y-98429600D02*
X296012248Y-98477219D01*
X296012248Y-98477219D02*
X296059867Y-98572457D01*
X296059867Y-98572457D02*
X296059867Y-98810552D01*
X296059867Y-98810552D02*
X296012248Y-98905790D01*
X296012248Y-98905790D02*
X295964629Y-98953410D01*
X295964629Y-98953410D02*
X295869391Y-99001029D01*
X295869391Y-99001029D02*
X295583677Y-99001029D01*
X295583677Y-99001029D02*
X295488439Y-98953410D01*
X295488439Y-98953410D02*
X295440820Y-98905790D01*
X296917010Y-98334362D02*
X296917010Y-99001029D01*
X296678915Y-97953410D02*
X296440820Y-98667695D01*
X296440820Y-98667695D02*
X297059867Y-98667695D01*
X305286058Y-117620577D02*
X305286058Y-116620577D01*
X305286058Y-116620577D02*
X305524153Y-116620577D01*
X305524153Y-116620577D02*
X305667010Y-116668196D01*
X305667010Y-116668196D02*
X305762248Y-116763434D01*
X305762248Y-116763434D02*
X305809867Y-116858672D01*
X305809867Y-116858672D02*
X305857486Y-117049148D01*
X305857486Y-117049148D02*
X305857486Y-117192005D01*
X305857486Y-117192005D02*
X305809867Y-117382481D01*
X305809867Y-117382481D02*
X305762248Y-117477719D01*
X305762248Y-117477719D02*
X305667010Y-117572958D01*
X305667010Y-117572958D02*
X305524153Y-117620577D01*
X305524153Y-117620577D02*
X305286058Y-117620577D01*
X306714629Y-116953910D02*
X306714629Y-117620577D01*
X306476534Y-116572958D02*
X306238439Y-117287243D01*
X306238439Y-117287243D02*
X306857486Y-117287243D01*
X307762248Y-117620577D02*
X307190820Y-117620577D01*
X307476534Y-117620577D02*
X307476534Y-116620577D01*
X307476534Y-116620577D02*
X307381296Y-116763434D01*
X307381296Y-116763434D02*
X307286058Y-116858672D01*
X307286058Y-116858672D02*
X307190820Y-116906291D01*
X181485826Y-136240113D02*
X181485826Y-135240113D01*
X181485826Y-135240113D02*
X181723921Y-135240113D01*
X181723921Y-135240113D02*
X181866778Y-135287732D01*
X181866778Y-135287732D02*
X181962016Y-135382970D01*
X181962016Y-135382970D02*
X182009635Y-135478208D01*
X182009635Y-135478208D02*
X182057254Y-135668684D01*
X182057254Y-135668684D02*
X182057254Y-135811541D01*
X182057254Y-135811541D02*
X182009635Y-136002017D01*
X182009635Y-136002017D02*
X181962016Y-136097255D01*
X181962016Y-136097255D02*
X181866778Y-136192494D01*
X181866778Y-136192494D02*
X181723921Y-136240113D01*
X181723921Y-136240113D02*
X181485826Y-136240113D01*
X183009635Y-136240113D02*
X182438207Y-136240113D01*
X182723921Y-136240113D02*
X182723921Y-135240113D01*
X182723921Y-135240113D02*
X182628683Y-135382970D01*
X182628683Y-135382970D02*
X182533445Y-135478208D01*
X182533445Y-135478208D02*
X182438207Y-135525827D01*
X183581064Y-135668684D02*
X183485826Y-135621065D01*
X183485826Y-135621065D02*
X183438207Y-135573446D01*
X183438207Y-135573446D02*
X183390588Y-135478208D01*
X183390588Y-135478208D02*
X183390588Y-135430589D01*
X183390588Y-135430589D02*
X183438207Y-135335351D01*
X183438207Y-135335351D02*
X183485826Y-135287732D01*
X183485826Y-135287732D02*
X183581064Y-135240113D01*
X183581064Y-135240113D02*
X183771540Y-135240113D01*
X183771540Y-135240113D02*
X183866778Y-135287732D01*
X183866778Y-135287732D02*
X183914397Y-135335351D01*
X183914397Y-135335351D02*
X183962016Y-135430589D01*
X183962016Y-135430589D02*
X183962016Y-135478208D01*
X183962016Y-135478208D02*
X183914397Y-135573446D01*
X183914397Y-135573446D02*
X183866778Y-135621065D01*
X183866778Y-135621065D02*
X183771540Y-135668684D01*
X183771540Y-135668684D02*
X183581064Y-135668684D01*
X183581064Y-135668684D02*
X183485826Y-135716303D01*
X183485826Y-135716303D02*
X183438207Y-135763922D01*
X183438207Y-135763922D02*
X183390588Y-135859160D01*
X183390588Y-135859160D02*
X183390588Y-136049636D01*
X183390588Y-136049636D02*
X183438207Y-136144874D01*
X183438207Y-136144874D02*
X183485826Y-136192494D01*
X183485826Y-136192494D02*
X183581064Y-136240113D01*
X183581064Y-136240113D02*
X183771540Y-136240113D01*
X183771540Y-136240113D02*
X183866778Y-136192494D01*
X183866778Y-136192494D02*
X183914397Y-136144874D01*
X183914397Y-136144874D02*
X183962016Y-136049636D01*
X183962016Y-136049636D02*
X183962016Y-135859160D01*
X183962016Y-135859160D02*
X183914397Y-135763922D01*
X183914397Y-135763922D02*
X183866778Y-135716303D01*
X183866778Y-135716303D02*
X183771540Y-135668684D01*
X138962017Y-99001113D02*
X138962017Y-98001113D01*
X138962017Y-98001113D02*
X139200112Y-98001113D01*
X139200112Y-98001113D02*
X139342969Y-98048732D01*
X139342969Y-98048732D02*
X139438207Y-98143970D01*
X139438207Y-98143970D02*
X139485826Y-98239208D01*
X139485826Y-98239208D02*
X139533445Y-98429684D01*
X139533445Y-98429684D02*
X139533445Y-98572541D01*
X139533445Y-98572541D02*
X139485826Y-98763017D01*
X139485826Y-98763017D02*
X139438207Y-98858255D01*
X139438207Y-98858255D02*
X139342969Y-98953494D01*
X139342969Y-98953494D02*
X139200112Y-99001113D01*
X139200112Y-99001113D02*
X138962017Y-99001113D01*
X140390588Y-98334446D02*
X140390588Y-99001113D01*
X140152493Y-97953494D02*
X139914398Y-98667779D01*
X139914398Y-98667779D02*
X140533445Y-98667779D01*
X283786058Y-117620577D02*
X283786058Y-116620577D01*
X283786058Y-116620577D02*
X284024153Y-116620577D01*
X284024153Y-116620577D02*
X284167010Y-116668196D01*
X284167010Y-116668196D02*
X284262248Y-116763434D01*
X284262248Y-116763434D02*
X284309867Y-116858672D01*
X284309867Y-116858672D02*
X284357486Y-117049148D01*
X284357486Y-117049148D02*
X284357486Y-117192005D01*
X284357486Y-117192005D02*
X284309867Y-117382481D01*
X284309867Y-117382481D02*
X284262248Y-117477719D01*
X284262248Y-117477719D02*
X284167010Y-117572958D01*
X284167010Y-117572958D02*
X284024153Y-117620577D01*
X284024153Y-117620577D02*
X283786058Y-117620577D01*
X285214629Y-116953910D02*
X285214629Y-117620577D01*
X284976534Y-116572958D02*
X284738439Y-117287243D01*
X284738439Y-117287243D02*
X285357486Y-117287243D01*
X285928915Y-116620577D02*
X286024153Y-116620577D01*
X286024153Y-116620577D02*
X286119391Y-116668196D01*
X286119391Y-116668196D02*
X286167010Y-116715815D01*
X286167010Y-116715815D02*
X286214629Y-116811053D01*
X286214629Y-116811053D02*
X286262248Y-117001529D01*
X286262248Y-117001529D02*
X286262248Y-117239624D01*
X286262248Y-117239624D02*
X286214629Y-117430100D01*
X286214629Y-117430100D02*
X286167010Y-117525338D01*
X286167010Y-117525338D02*
X286119391Y-117572958D01*
X286119391Y-117572958D02*
X286024153Y-117620577D01*
X286024153Y-117620577D02*
X285928915Y-117620577D01*
X285928915Y-117620577D02*
X285833677Y-117572958D01*
X285833677Y-117572958D02*
X285786058Y-117525338D01*
X285786058Y-117525338D02*
X285738439Y-117430100D01*
X285738439Y-117430100D02*
X285690820Y-117239624D01*
X285690820Y-117239624D02*
X285690820Y-117001529D01*
X285690820Y-117001529D02*
X285738439Y-116811053D01*
X285738439Y-116811053D02*
X285786058Y-116715815D01*
X285786058Y-116715815D02*
X285833677Y-116668196D01*
X285833677Y-116668196D02*
X285928915Y-116620577D01*
X128212017Y-117620613D02*
X128212017Y-116620613D01*
X128212017Y-116620613D02*
X128450112Y-116620613D01*
X128450112Y-116620613D02*
X128592969Y-116668232D01*
X128592969Y-116668232D02*
X128688207Y-116763470D01*
X128688207Y-116763470D02*
X128735826Y-116858708D01*
X128735826Y-116858708D02*
X128783445Y-117049184D01*
X128783445Y-117049184D02*
X128783445Y-117192041D01*
X128783445Y-117192041D02*
X128735826Y-117382517D01*
X128735826Y-117382517D02*
X128688207Y-117477755D01*
X128688207Y-117477755D02*
X128592969Y-117572994D01*
X128592969Y-117572994D02*
X128450112Y-117620613D01*
X128450112Y-117620613D02*
X128212017Y-117620613D01*
X129259636Y-117620613D02*
X129450112Y-117620613D01*
X129450112Y-117620613D02*
X129545350Y-117572994D01*
X129545350Y-117572994D02*
X129592969Y-117525374D01*
X129592969Y-117525374D02*
X129688207Y-117382517D01*
X129688207Y-117382517D02*
X129735826Y-117192041D01*
X129735826Y-117192041D02*
X129735826Y-116811089D01*
X129735826Y-116811089D02*
X129688207Y-116715851D01*
X129688207Y-116715851D02*
X129640588Y-116668232D01*
X129640588Y-116668232D02*
X129545350Y-116620613D01*
X129545350Y-116620613D02*
X129354874Y-116620613D01*
X129354874Y-116620613D02*
X129259636Y-116668232D01*
X129259636Y-116668232D02*
X129212017Y-116715851D01*
X129212017Y-116715851D02*
X129164398Y-116811089D01*
X129164398Y-116811089D02*
X129164398Y-117049184D01*
X129164398Y-117049184D02*
X129212017Y-117144422D01*
X129212017Y-117144422D02*
X129259636Y-117192041D01*
X129259636Y-117192041D02*
X129354874Y-117239660D01*
X129354874Y-117239660D02*
X129545350Y-117239660D01*
X129545350Y-117239660D02*
X129640588Y-117192041D01*
X129640588Y-117192041D02*
X129688207Y-117144422D01*
X129688207Y-117144422D02*
X129735826Y-117049184D01*
X273036058Y-99001029D02*
X273036058Y-98001029D01*
X273036058Y-98001029D02*
X273274153Y-98001029D01*
X273274153Y-98001029D02*
X273417010Y-98048648D01*
X273417010Y-98048648D02*
X273512248Y-98143886D01*
X273512248Y-98143886D02*
X273559867Y-98239124D01*
X273559867Y-98239124D02*
X273607486Y-98429600D01*
X273607486Y-98429600D02*
X273607486Y-98572457D01*
X273607486Y-98572457D02*
X273559867Y-98762933D01*
X273559867Y-98762933D02*
X273512248Y-98858171D01*
X273512248Y-98858171D02*
X273417010Y-98953410D01*
X273417010Y-98953410D02*
X273274153Y-99001029D01*
X273274153Y-99001029D02*
X273036058Y-99001029D01*
X273940820Y-98001029D02*
X274559867Y-98001029D01*
X274559867Y-98001029D02*
X274226534Y-98381981D01*
X274226534Y-98381981D02*
X274369391Y-98381981D01*
X274369391Y-98381981D02*
X274464629Y-98429600D01*
X274464629Y-98429600D02*
X274512248Y-98477219D01*
X274512248Y-98477219D02*
X274559867Y-98572457D01*
X274559867Y-98572457D02*
X274559867Y-98810552D01*
X274559867Y-98810552D02*
X274512248Y-98905790D01*
X274512248Y-98905790D02*
X274464629Y-98953410D01*
X274464629Y-98953410D02*
X274369391Y-99001029D01*
X274369391Y-99001029D02*
X274083677Y-99001029D01*
X274083677Y-99001029D02*
X273988439Y-98953410D01*
X273988439Y-98953410D02*
X273940820Y-98905790D01*
X274893201Y-98001029D02*
X275512248Y-98001029D01*
X275512248Y-98001029D02*
X275178915Y-98381981D01*
X275178915Y-98381981D02*
X275321772Y-98381981D01*
X275321772Y-98381981D02*
X275417010Y-98429600D01*
X275417010Y-98429600D02*
X275464629Y-98477219D01*
X275464629Y-98477219D02*
X275512248Y-98572457D01*
X275512248Y-98572457D02*
X275512248Y-98810552D01*
X275512248Y-98810552D02*
X275464629Y-98905790D01*
X275464629Y-98905790D02*
X275417010Y-98953410D01*
X275417010Y-98953410D02*
X275321772Y-99001029D01*
X275321772Y-99001029D02*
X275036058Y-99001029D01*
X275036058Y-99001029D02*
X274940820Y-98953410D01*
X274940820Y-98953410D02*
X274893201Y-98905790D01*
X181485826Y-173479213D02*
X181485826Y-172479213D01*
X181485826Y-172479213D02*
X181723921Y-172479213D01*
X181723921Y-172479213D02*
X181866778Y-172526832D01*
X181866778Y-172526832D02*
X181962016Y-172622070D01*
X181962016Y-172622070D02*
X182009635Y-172717308D01*
X182009635Y-172717308D02*
X182057254Y-172907784D01*
X182057254Y-172907784D02*
X182057254Y-173050641D01*
X182057254Y-173050641D02*
X182009635Y-173241117D01*
X182009635Y-173241117D02*
X181962016Y-173336355D01*
X181962016Y-173336355D02*
X181866778Y-173431594D01*
X181866778Y-173431594D02*
X181723921Y-173479213D01*
X181723921Y-173479213D02*
X181485826Y-173479213D01*
X182438207Y-172574451D02*
X182485826Y-172526832D01*
X182485826Y-172526832D02*
X182581064Y-172479213D01*
X182581064Y-172479213D02*
X182819159Y-172479213D01*
X182819159Y-172479213D02*
X182914397Y-172526832D01*
X182914397Y-172526832D02*
X182962016Y-172574451D01*
X182962016Y-172574451D02*
X183009635Y-172669689D01*
X183009635Y-172669689D02*
X183009635Y-172764927D01*
X183009635Y-172764927D02*
X182962016Y-172907784D01*
X182962016Y-172907784D02*
X182390588Y-173479213D01*
X182390588Y-173479213D02*
X183009635Y-173479213D01*
X183581064Y-172907784D02*
X183485826Y-172860165D01*
X183485826Y-172860165D02*
X183438207Y-172812546D01*
X183438207Y-172812546D02*
X183390588Y-172717308D01*
X183390588Y-172717308D02*
X183390588Y-172669689D01*
X183390588Y-172669689D02*
X183438207Y-172574451D01*
X183438207Y-172574451D02*
X183485826Y-172526832D01*
X183485826Y-172526832D02*
X183581064Y-172479213D01*
X183581064Y-172479213D02*
X183771540Y-172479213D01*
X183771540Y-172479213D02*
X183866778Y-172526832D01*
X183866778Y-172526832D02*
X183914397Y-172574451D01*
X183914397Y-172574451D02*
X183962016Y-172669689D01*
X183962016Y-172669689D02*
X183962016Y-172717308D01*
X183962016Y-172717308D02*
X183914397Y-172812546D01*
X183914397Y-172812546D02*
X183866778Y-172860165D01*
X183866778Y-172860165D02*
X183771540Y-172907784D01*
X183771540Y-172907784D02*
X183581064Y-172907784D01*
X183581064Y-172907784D02*
X183485826Y-172955403D01*
X183485826Y-172955403D02*
X183438207Y-173003022D01*
X183438207Y-173003022D02*
X183390588Y-173098260D01*
X183390588Y-173098260D02*
X183390588Y-173288736D01*
X183390588Y-173288736D02*
X183438207Y-173383974D01*
X183438207Y-173383974D02*
X183485826Y-173431594D01*
X183485826Y-173431594D02*
X183581064Y-173479213D01*
X183581064Y-173479213D02*
X183771540Y-173479213D01*
X183771540Y-173479213D02*
X183866778Y-173431594D01*
X183866778Y-173431594D02*
X183914397Y-173383974D01*
X183914397Y-173383974D02*
X183962016Y-173288736D01*
X183962016Y-173288736D02*
X183962016Y-173098260D01*
X183962016Y-173098260D02*
X183914397Y-173003022D01*
X183914397Y-173003022D02*
X183866778Y-172955403D01*
X183866778Y-172955403D02*
X183771540Y-172907784D01*
X106235826Y-154859713D02*
X106235826Y-153859713D01*
X106235826Y-153859713D02*
X106473921Y-153859713D01*
X106473921Y-153859713D02*
X106616778Y-153907332D01*
X106616778Y-153907332D02*
X106712016Y-154002570D01*
X106712016Y-154002570D02*
X106759635Y-154097808D01*
X106759635Y-154097808D02*
X106807254Y-154288284D01*
X106807254Y-154288284D02*
X106807254Y-154431141D01*
X106807254Y-154431141D02*
X106759635Y-154621617D01*
X106759635Y-154621617D02*
X106712016Y-154716855D01*
X106712016Y-154716855D02*
X106616778Y-154812094D01*
X106616778Y-154812094D02*
X106473921Y-154859713D01*
X106473921Y-154859713D02*
X106235826Y-154859713D01*
X107188207Y-153954951D02*
X107235826Y-153907332D01*
X107235826Y-153907332D02*
X107331064Y-153859713D01*
X107331064Y-153859713D02*
X107569159Y-153859713D01*
X107569159Y-153859713D02*
X107664397Y-153907332D01*
X107664397Y-153907332D02*
X107712016Y-153954951D01*
X107712016Y-153954951D02*
X107759635Y-154050189D01*
X107759635Y-154050189D02*
X107759635Y-154145427D01*
X107759635Y-154145427D02*
X107712016Y-154288284D01*
X107712016Y-154288284D02*
X107140588Y-154859713D01*
X107140588Y-154859713D02*
X107759635Y-154859713D01*
X108378683Y-153859713D02*
X108473921Y-153859713D01*
X108473921Y-153859713D02*
X108569159Y-153907332D01*
X108569159Y-153907332D02*
X108616778Y-153954951D01*
X108616778Y-153954951D02*
X108664397Y-154050189D01*
X108664397Y-154050189D02*
X108712016Y-154240665D01*
X108712016Y-154240665D02*
X108712016Y-154478760D01*
X108712016Y-154478760D02*
X108664397Y-154669236D01*
X108664397Y-154669236D02*
X108616778Y-154764474D01*
X108616778Y-154764474D02*
X108569159Y-154812094D01*
X108569159Y-154812094D02*
X108473921Y-154859713D01*
X108473921Y-154859713D02*
X108378683Y-154859713D01*
X108378683Y-154859713D02*
X108283445Y-154812094D01*
X108283445Y-154812094D02*
X108235826Y-154764474D01*
X108235826Y-154764474D02*
X108188207Y-154669236D01*
X108188207Y-154669236D02*
X108140588Y-154478760D01*
X108140588Y-154478760D02*
X108140588Y-154240665D01*
X108140588Y-154240665D02*
X108188207Y-154050189D01*
X108188207Y-154050189D02*
X108235826Y-153954951D01*
X108235826Y-153954951D02*
X108283445Y-153907332D01*
X108283445Y-153907332D02*
X108378683Y-153859713D01*
X326786058Y-154859673D02*
X326786058Y-153859673D01*
X326786058Y-153859673D02*
X327024153Y-153859673D01*
X327024153Y-153859673D02*
X327167010Y-153907292D01*
X327167010Y-153907292D02*
X327262248Y-154002530D01*
X327262248Y-154002530D02*
X327309867Y-154097768D01*
X327309867Y-154097768D02*
X327357486Y-154288244D01*
X327357486Y-154288244D02*
X327357486Y-154431101D01*
X327357486Y-154431101D02*
X327309867Y-154621577D01*
X327309867Y-154621577D02*
X327262248Y-154716815D01*
X327262248Y-154716815D02*
X327167010Y-154812054D01*
X327167010Y-154812054D02*
X327024153Y-154859673D01*
X327024153Y-154859673D02*
X326786058Y-154859673D01*
X328262248Y-153859673D02*
X327786058Y-153859673D01*
X327786058Y-153859673D02*
X327738439Y-154335863D01*
X327738439Y-154335863D02*
X327786058Y-154288244D01*
X327786058Y-154288244D02*
X327881296Y-154240625D01*
X327881296Y-154240625D02*
X328119391Y-154240625D01*
X328119391Y-154240625D02*
X328214629Y-154288244D01*
X328214629Y-154288244D02*
X328262248Y-154335863D01*
X328262248Y-154335863D02*
X328309867Y-154431101D01*
X328309867Y-154431101D02*
X328309867Y-154669196D01*
X328309867Y-154669196D02*
X328262248Y-154764434D01*
X328262248Y-154764434D02*
X328214629Y-154812054D01*
X328214629Y-154812054D02*
X328119391Y-154859673D01*
X328119391Y-154859673D02*
X327881296Y-154859673D01*
X327881296Y-154859673D02*
X327786058Y-154812054D01*
X327786058Y-154812054D02*
X327738439Y-154764434D01*
X329167010Y-154193006D02*
X329167010Y-154859673D01*
X328928915Y-153812054D02*
X328690820Y-154526339D01*
X328690820Y-154526339D02*
X329309867Y-154526339D01*
X240786058Y-154859673D02*
X240786058Y-153859673D01*
X240786058Y-153859673D02*
X241024153Y-153859673D01*
X241024153Y-153859673D02*
X241167010Y-153907292D01*
X241167010Y-153907292D02*
X241262248Y-154002530D01*
X241262248Y-154002530D02*
X241309867Y-154097768D01*
X241309867Y-154097768D02*
X241357486Y-154288244D01*
X241357486Y-154288244D02*
X241357486Y-154431101D01*
X241357486Y-154431101D02*
X241309867Y-154621577D01*
X241309867Y-154621577D02*
X241262248Y-154716815D01*
X241262248Y-154716815D02*
X241167010Y-154812054D01*
X241167010Y-154812054D02*
X241024153Y-154859673D01*
X241024153Y-154859673D02*
X240786058Y-154859673D01*
X242262248Y-153859673D02*
X241786058Y-153859673D01*
X241786058Y-153859673D02*
X241738439Y-154335863D01*
X241738439Y-154335863D02*
X241786058Y-154288244D01*
X241786058Y-154288244D02*
X241881296Y-154240625D01*
X241881296Y-154240625D02*
X242119391Y-154240625D01*
X242119391Y-154240625D02*
X242214629Y-154288244D01*
X242214629Y-154288244D02*
X242262248Y-154335863D01*
X242262248Y-154335863D02*
X242309867Y-154431101D01*
X242309867Y-154431101D02*
X242309867Y-154669196D01*
X242309867Y-154669196D02*
X242262248Y-154764434D01*
X242262248Y-154764434D02*
X242214629Y-154812054D01*
X242214629Y-154812054D02*
X242119391Y-154859673D01*
X242119391Y-154859673D02*
X241881296Y-154859673D01*
X241881296Y-154859673D02*
X241786058Y-154812054D01*
X241786058Y-154812054D02*
X241738439Y-154764434D01*
X242928915Y-153859673D02*
X243024153Y-153859673D01*
X243024153Y-153859673D02*
X243119391Y-153907292D01*
X243119391Y-153907292D02*
X243167010Y-153954911D01*
X243167010Y-153954911D02*
X243214629Y-154050149D01*
X243214629Y-154050149D02*
X243262248Y-154240625D01*
X243262248Y-154240625D02*
X243262248Y-154478720D01*
X243262248Y-154478720D02*
X243214629Y-154669196D01*
X243214629Y-154669196D02*
X243167010Y-154764434D01*
X243167010Y-154764434D02*
X243119391Y-154812054D01*
X243119391Y-154812054D02*
X243024153Y-154859673D01*
X243024153Y-154859673D02*
X242928915Y-154859673D01*
X242928915Y-154859673D02*
X242833677Y-154812054D01*
X242833677Y-154812054D02*
X242786058Y-154764434D01*
X242786058Y-154764434D02*
X242738439Y-154669196D01*
X242738439Y-154669196D02*
X242690820Y-154478720D01*
X242690820Y-154478720D02*
X242690820Y-154240625D01*
X242690820Y-154240625D02*
X242738439Y-154050149D01*
X242738439Y-154050149D02*
X242786058Y-153954911D01*
X242786058Y-153954911D02*
X242833677Y-153907292D01*
X242833677Y-153907292D02*
X242928915Y-153859673D01*
X149235826Y-117620613D02*
X149235826Y-116620613D01*
X149235826Y-116620613D02*
X149473921Y-116620613D01*
X149473921Y-116620613D02*
X149616778Y-116668232D01*
X149616778Y-116668232D02*
X149712016Y-116763470D01*
X149712016Y-116763470D02*
X149759635Y-116858708D01*
X149759635Y-116858708D02*
X149807254Y-117049184D01*
X149807254Y-117049184D02*
X149807254Y-117192041D01*
X149807254Y-117192041D02*
X149759635Y-117382517D01*
X149759635Y-117382517D02*
X149712016Y-117477755D01*
X149712016Y-117477755D02*
X149616778Y-117572994D01*
X149616778Y-117572994D02*
X149473921Y-117620613D01*
X149473921Y-117620613D02*
X149235826Y-117620613D01*
X150759635Y-117620613D02*
X150188207Y-117620613D01*
X150473921Y-117620613D02*
X150473921Y-116620613D01*
X150473921Y-116620613D02*
X150378683Y-116763470D01*
X150378683Y-116763470D02*
X150283445Y-116858708D01*
X150283445Y-116858708D02*
X150188207Y-116906327D01*
X151378683Y-116620613D02*
X151473921Y-116620613D01*
X151473921Y-116620613D02*
X151569159Y-116668232D01*
X151569159Y-116668232D02*
X151616778Y-116715851D01*
X151616778Y-116715851D02*
X151664397Y-116811089D01*
X151664397Y-116811089D02*
X151712016Y-117001565D01*
X151712016Y-117001565D02*
X151712016Y-117239660D01*
X151712016Y-117239660D02*
X151664397Y-117430136D01*
X151664397Y-117430136D02*
X151616778Y-117525374D01*
X151616778Y-117525374D02*
X151569159Y-117572994D01*
X151569159Y-117572994D02*
X151473921Y-117620613D01*
X151473921Y-117620613D02*
X151378683Y-117620613D01*
X151378683Y-117620613D02*
X151283445Y-117572994D01*
X151283445Y-117572994D02*
X151235826Y-117525374D01*
X151235826Y-117525374D02*
X151188207Y-117430136D01*
X151188207Y-117430136D02*
X151140588Y-117239660D01*
X151140588Y-117239660D02*
X151140588Y-117001565D01*
X151140588Y-117001565D02*
X151188207Y-116811089D01*
X151188207Y-116811089D02*
X151235826Y-116715851D01*
X151235826Y-116715851D02*
X151283445Y-116668232D01*
X151283445Y-116668232D02*
X151378683Y-116620613D01*
X85212017Y-117620613D02*
X85212017Y-116620613D01*
X85212017Y-116620613D02*
X85450112Y-116620613D01*
X85450112Y-116620613D02*
X85592969Y-116668232D01*
X85592969Y-116668232D02*
X85688207Y-116763470D01*
X85688207Y-116763470D02*
X85735826Y-116858708D01*
X85735826Y-116858708D02*
X85783445Y-117049184D01*
X85783445Y-117049184D02*
X85783445Y-117192041D01*
X85783445Y-117192041D02*
X85735826Y-117382517D01*
X85735826Y-117382517D02*
X85688207Y-117477755D01*
X85688207Y-117477755D02*
X85592969Y-117572994D01*
X85592969Y-117572994D02*
X85450112Y-117620613D01*
X85450112Y-117620613D02*
X85212017Y-117620613D01*
X86116779Y-116620613D02*
X86783445Y-116620613D01*
X86783445Y-116620613D02*
X86354874Y-117620613D01*
X95712017Y-99001113D02*
X95712017Y-98001113D01*
X95712017Y-98001113D02*
X95950112Y-98001113D01*
X95950112Y-98001113D02*
X96092969Y-98048732D01*
X96092969Y-98048732D02*
X96188207Y-98143970D01*
X96188207Y-98143970D02*
X96235826Y-98239208D01*
X96235826Y-98239208D02*
X96283445Y-98429684D01*
X96283445Y-98429684D02*
X96283445Y-98572541D01*
X96283445Y-98572541D02*
X96235826Y-98763017D01*
X96235826Y-98763017D02*
X96188207Y-98858255D01*
X96188207Y-98858255D02*
X96092969Y-98953494D01*
X96092969Y-98953494D02*
X95950112Y-99001113D01*
X95950112Y-99001113D02*
X95712017Y-99001113D01*
X96664398Y-98096351D02*
X96712017Y-98048732D01*
X96712017Y-98048732D02*
X96807255Y-98001113D01*
X96807255Y-98001113D02*
X97045350Y-98001113D01*
X97045350Y-98001113D02*
X97140588Y-98048732D01*
X97140588Y-98048732D02*
X97188207Y-98096351D01*
X97188207Y-98096351D02*
X97235826Y-98191589D01*
X97235826Y-98191589D02*
X97235826Y-98286827D01*
X97235826Y-98286827D02*
X97188207Y-98429684D01*
X97188207Y-98429684D02*
X96616779Y-99001113D01*
X96616779Y-99001113D02*
X97235826Y-99001113D01*
X138485826Y-173479213D02*
X138485826Y-172479213D01*
X138485826Y-172479213D02*
X138723921Y-172479213D01*
X138723921Y-172479213D02*
X138866778Y-172526832D01*
X138866778Y-172526832D02*
X138962016Y-172622070D01*
X138962016Y-172622070D02*
X139009635Y-172717308D01*
X139009635Y-172717308D02*
X139057254Y-172907784D01*
X139057254Y-172907784D02*
X139057254Y-173050641D01*
X139057254Y-173050641D02*
X139009635Y-173241117D01*
X139009635Y-173241117D02*
X138962016Y-173336355D01*
X138962016Y-173336355D02*
X138866778Y-173431594D01*
X138866778Y-173431594D02*
X138723921Y-173479213D01*
X138723921Y-173479213D02*
X138485826Y-173479213D01*
X139438207Y-172574451D02*
X139485826Y-172526832D01*
X139485826Y-172526832D02*
X139581064Y-172479213D01*
X139581064Y-172479213D02*
X139819159Y-172479213D01*
X139819159Y-172479213D02*
X139914397Y-172526832D01*
X139914397Y-172526832D02*
X139962016Y-172574451D01*
X139962016Y-172574451D02*
X140009635Y-172669689D01*
X140009635Y-172669689D02*
X140009635Y-172764927D01*
X140009635Y-172764927D02*
X139962016Y-172907784D01*
X139962016Y-172907784D02*
X139390588Y-173479213D01*
X139390588Y-173479213D02*
X140009635Y-173479213D01*
X140866778Y-172479213D02*
X140676302Y-172479213D01*
X140676302Y-172479213D02*
X140581064Y-172526832D01*
X140581064Y-172526832D02*
X140533445Y-172574451D01*
X140533445Y-172574451D02*
X140438207Y-172717308D01*
X140438207Y-172717308D02*
X140390588Y-172907784D01*
X140390588Y-172907784D02*
X140390588Y-173288736D01*
X140390588Y-173288736D02*
X140438207Y-173383974D01*
X140438207Y-173383974D02*
X140485826Y-173431594D01*
X140485826Y-173431594D02*
X140581064Y-173479213D01*
X140581064Y-173479213D02*
X140771540Y-173479213D01*
X140771540Y-173479213D02*
X140866778Y-173431594D01*
X140866778Y-173431594D02*
X140914397Y-173383974D01*
X140914397Y-173383974D02*
X140962016Y-173288736D01*
X140962016Y-173288736D02*
X140962016Y-173050641D01*
X140962016Y-173050641D02*
X140914397Y-172955403D01*
X140914397Y-172955403D02*
X140866778Y-172907784D01*
X140866778Y-172907784D02*
X140771540Y-172860165D01*
X140771540Y-172860165D02*
X140581064Y-172860165D01*
X140581064Y-172860165D02*
X140485826Y-172907784D01*
X140485826Y-172907784D02*
X140438207Y-172955403D01*
X140438207Y-172955403D02*
X140390588Y-173050641D01*
X219286058Y-154859673D02*
X219286058Y-153859673D01*
X219286058Y-153859673D02*
X219524153Y-153859673D01*
X219524153Y-153859673D02*
X219667010Y-153907292D01*
X219667010Y-153907292D02*
X219762248Y-154002530D01*
X219762248Y-154002530D02*
X219809867Y-154097768D01*
X219809867Y-154097768D02*
X219857486Y-154288244D01*
X219857486Y-154288244D02*
X219857486Y-154431101D01*
X219857486Y-154431101D02*
X219809867Y-154621577D01*
X219809867Y-154621577D02*
X219762248Y-154716815D01*
X219762248Y-154716815D02*
X219667010Y-154812054D01*
X219667010Y-154812054D02*
X219524153Y-154859673D01*
X219524153Y-154859673D02*
X219286058Y-154859673D01*
X220714629Y-154193006D02*
X220714629Y-154859673D01*
X220476534Y-153812054D02*
X220238439Y-154526339D01*
X220238439Y-154526339D02*
X220857486Y-154526339D01*
X221286058Y-154859673D02*
X221476534Y-154859673D01*
X221476534Y-154859673D02*
X221571772Y-154812054D01*
X221571772Y-154812054D02*
X221619391Y-154764434D01*
X221619391Y-154764434D02*
X221714629Y-154621577D01*
X221714629Y-154621577D02*
X221762248Y-154431101D01*
X221762248Y-154431101D02*
X221762248Y-154050149D01*
X221762248Y-154050149D02*
X221714629Y-153954911D01*
X221714629Y-153954911D02*
X221667010Y-153907292D01*
X221667010Y-153907292D02*
X221571772Y-153859673D01*
X221571772Y-153859673D02*
X221381296Y-153859673D01*
X221381296Y-153859673D02*
X221286058Y-153907292D01*
X221286058Y-153907292D02*
X221238439Y-153954911D01*
X221238439Y-153954911D02*
X221190820Y-154050149D01*
X221190820Y-154050149D02*
X221190820Y-154288244D01*
X221190820Y-154288244D02*
X221238439Y-154383482D01*
X221238439Y-154383482D02*
X221286058Y-154431101D01*
X221286058Y-154431101D02*
X221381296Y-154478720D01*
X221381296Y-154478720D02*
X221571772Y-154478720D01*
X221571772Y-154478720D02*
X221667010Y-154431101D01*
X221667010Y-154431101D02*
X221714629Y-154383482D01*
X221714629Y-154383482D02*
X221762248Y-154288244D01*
X240786058Y-117620577D02*
X240786058Y-116620577D01*
X240786058Y-116620577D02*
X241024153Y-116620577D01*
X241024153Y-116620577D02*
X241167010Y-116668196D01*
X241167010Y-116668196D02*
X241262248Y-116763434D01*
X241262248Y-116763434D02*
X241309867Y-116858672D01*
X241309867Y-116858672D02*
X241357486Y-117049148D01*
X241357486Y-117049148D02*
X241357486Y-117192005D01*
X241357486Y-117192005D02*
X241309867Y-117382481D01*
X241309867Y-117382481D02*
X241262248Y-117477719D01*
X241262248Y-117477719D02*
X241167010Y-117572958D01*
X241167010Y-117572958D02*
X241024153Y-117620577D01*
X241024153Y-117620577D02*
X240786058Y-117620577D01*
X241690820Y-116620577D02*
X242309867Y-116620577D01*
X242309867Y-116620577D02*
X241976534Y-117001529D01*
X241976534Y-117001529D02*
X242119391Y-117001529D01*
X242119391Y-117001529D02*
X242214629Y-117049148D01*
X242214629Y-117049148D02*
X242262248Y-117096767D01*
X242262248Y-117096767D02*
X242309867Y-117192005D01*
X242309867Y-117192005D02*
X242309867Y-117430100D01*
X242309867Y-117430100D02*
X242262248Y-117525338D01*
X242262248Y-117525338D02*
X242214629Y-117572958D01*
X242214629Y-117572958D02*
X242119391Y-117620577D01*
X242119391Y-117620577D02*
X241833677Y-117620577D01*
X241833677Y-117620577D02*
X241738439Y-117572958D01*
X241738439Y-117572958D02*
X241690820Y-117525338D01*
X242881296Y-117049148D02*
X242786058Y-117001529D01*
X242786058Y-117001529D02*
X242738439Y-116953910D01*
X242738439Y-116953910D02*
X242690820Y-116858672D01*
X242690820Y-116858672D02*
X242690820Y-116811053D01*
X242690820Y-116811053D02*
X242738439Y-116715815D01*
X242738439Y-116715815D02*
X242786058Y-116668196D01*
X242786058Y-116668196D02*
X242881296Y-116620577D01*
X242881296Y-116620577D02*
X243071772Y-116620577D01*
X243071772Y-116620577D02*
X243167010Y-116668196D01*
X243167010Y-116668196D02*
X243214629Y-116715815D01*
X243214629Y-116715815D02*
X243262248Y-116811053D01*
X243262248Y-116811053D02*
X243262248Y-116858672D01*
X243262248Y-116858672D02*
X243214629Y-116953910D01*
X243214629Y-116953910D02*
X243167010Y-117001529D01*
X243167010Y-117001529D02*
X243071772Y-117049148D01*
X243071772Y-117049148D02*
X242881296Y-117049148D01*
X242881296Y-117049148D02*
X242786058Y-117096767D01*
X242786058Y-117096767D02*
X242738439Y-117144386D01*
X242738439Y-117144386D02*
X242690820Y-117239624D01*
X242690820Y-117239624D02*
X242690820Y-117430100D01*
X242690820Y-117430100D02*
X242738439Y-117525338D01*
X242738439Y-117525338D02*
X242786058Y-117572958D01*
X242786058Y-117572958D02*
X242881296Y-117620577D01*
X242881296Y-117620577D02*
X243071772Y-117620577D01*
X243071772Y-117620577D02*
X243167010Y-117572958D01*
X243167010Y-117572958D02*
X243214629Y-117525338D01*
X243214629Y-117525338D02*
X243262248Y-117430100D01*
X243262248Y-117430100D02*
X243262248Y-117239624D01*
X243262248Y-117239624D02*
X243214629Y-117144386D01*
X243214629Y-117144386D02*
X243167010Y-117096767D01*
X243167010Y-117096767D02*
X243071772Y-117049148D01*
X84735826Y-154859713D02*
X84735826Y-153859713D01*
X84735826Y-153859713D02*
X84973921Y-153859713D01*
X84973921Y-153859713D02*
X85116778Y-153907332D01*
X85116778Y-153907332D02*
X85212016Y-154002570D01*
X85212016Y-154002570D02*
X85259635Y-154097808D01*
X85259635Y-154097808D02*
X85307254Y-154288284D01*
X85307254Y-154288284D02*
X85307254Y-154431141D01*
X85307254Y-154431141D02*
X85259635Y-154621617D01*
X85259635Y-154621617D02*
X85212016Y-154716855D01*
X85212016Y-154716855D02*
X85116778Y-154812094D01*
X85116778Y-154812094D02*
X84973921Y-154859713D01*
X84973921Y-154859713D02*
X84735826Y-154859713D01*
X86259635Y-154859713D02*
X85688207Y-154859713D01*
X85973921Y-154859713D02*
X85973921Y-153859713D01*
X85973921Y-153859713D02*
X85878683Y-154002570D01*
X85878683Y-154002570D02*
X85783445Y-154097808D01*
X85783445Y-154097808D02*
X85688207Y-154145427D01*
X86735826Y-154859713D02*
X86926302Y-154859713D01*
X86926302Y-154859713D02*
X87021540Y-154812094D01*
X87021540Y-154812094D02*
X87069159Y-154764474D01*
X87069159Y-154764474D02*
X87164397Y-154621617D01*
X87164397Y-154621617D02*
X87212016Y-154431141D01*
X87212016Y-154431141D02*
X87212016Y-154050189D01*
X87212016Y-154050189D02*
X87164397Y-153954951D01*
X87164397Y-153954951D02*
X87116778Y-153907332D01*
X87116778Y-153907332D02*
X87021540Y-153859713D01*
X87021540Y-153859713D02*
X86831064Y-153859713D01*
X86831064Y-153859713D02*
X86735826Y-153907332D01*
X86735826Y-153907332D02*
X86688207Y-153954951D01*
X86688207Y-153954951D02*
X86640588Y-154050189D01*
X86640588Y-154050189D02*
X86640588Y-154288284D01*
X86640588Y-154288284D02*
X86688207Y-154383522D01*
X86688207Y-154383522D02*
X86735826Y-154431141D01*
X86735826Y-154431141D02*
X86831064Y-154478760D01*
X86831064Y-154478760D02*
X87021540Y-154478760D01*
X87021540Y-154478760D02*
X87116778Y-154431141D01*
X87116778Y-154431141D02*
X87164397Y-154383522D01*
X87164397Y-154383522D02*
X87212016Y-154288284D01*
X192235826Y-117620613D02*
X192235826Y-116620613D01*
X192235826Y-116620613D02*
X192473921Y-116620613D01*
X192473921Y-116620613D02*
X192616778Y-116668232D01*
X192616778Y-116668232D02*
X192712016Y-116763470D01*
X192712016Y-116763470D02*
X192759635Y-116858708D01*
X192759635Y-116858708D02*
X192807254Y-117049184D01*
X192807254Y-117049184D02*
X192807254Y-117192041D01*
X192807254Y-117192041D02*
X192759635Y-117382517D01*
X192759635Y-117382517D02*
X192712016Y-117477755D01*
X192712016Y-117477755D02*
X192616778Y-117572994D01*
X192616778Y-117572994D02*
X192473921Y-117620613D01*
X192473921Y-117620613D02*
X192235826Y-117620613D01*
X193759635Y-117620613D02*
X193188207Y-117620613D01*
X193473921Y-117620613D02*
X193473921Y-116620613D01*
X193473921Y-116620613D02*
X193378683Y-116763470D01*
X193378683Y-116763470D02*
X193283445Y-116858708D01*
X193283445Y-116858708D02*
X193188207Y-116906327D01*
X194140588Y-116715851D02*
X194188207Y-116668232D01*
X194188207Y-116668232D02*
X194283445Y-116620613D01*
X194283445Y-116620613D02*
X194521540Y-116620613D01*
X194521540Y-116620613D02*
X194616778Y-116668232D01*
X194616778Y-116668232D02*
X194664397Y-116715851D01*
X194664397Y-116715851D02*
X194712016Y-116811089D01*
X194712016Y-116811089D02*
X194712016Y-116906327D01*
X194712016Y-116906327D02*
X194664397Y-117049184D01*
X194664397Y-117049184D02*
X194092969Y-117620613D01*
X194092969Y-117620613D02*
X194712016Y-117620613D01*
X159985826Y-136240113D02*
X159985826Y-135240113D01*
X159985826Y-135240113D02*
X160223921Y-135240113D01*
X160223921Y-135240113D02*
X160366778Y-135287732D01*
X160366778Y-135287732D02*
X160462016Y-135382970D01*
X160462016Y-135382970D02*
X160509635Y-135478208D01*
X160509635Y-135478208D02*
X160557254Y-135668684D01*
X160557254Y-135668684D02*
X160557254Y-135811541D01*
X160557254Y-135811541D02*
X160509635Y-136002017D01*
X160509635Y-136002017D02*
X160462016Y-136097255D01*
X160462016Y-136097255D02*
X160366778Y-136192494D01*
X160366778Y-136192494D02*
X160223921Y-136240113D01*
X160223921Y-136240113D02*
X159985826Y-136240113D01*
X161509635Y-136240113D02*
X160938207Y-136240113D01*
X161223921Y-136240113D02*
X161223921Y-135240113D01*
X161223921Y-135240113D02*
X161128683Y-135382970D01*
X161128683Y-135382970D02*
X161033445Y-135478208D01*
X161033445Y-135478208D02*
X160938207Y-135525827D01*
X161842969Y-135240113D02*
X162509635Y-135240113D01*
X162509635Y-135240113D02*
X162081064Y-136240113D01*
X262286058Y-117620577D02*
X262286058Y-116620577D01*
X262286058Y-116620577D02*
X262524153Y-116620577D01*
X262524153Y-116620577D02*
X262667010Y-116668196D01*
X262667010Y-116668196D02*
X262762248Y-116763434D01*
X262762248Y-116763434D02*
X262809867Y-116858672D01*
X262809867Y-116858672D02*
X262857486Y-117049148D01*
X262857486Y-117049148D02*
X262857486Y-117192005D01*
X262857486Y-117192005D02*
X262809867Y-117382481D01*
X262809867Y-117382481D02*
X262762248Y-117477719D01*
X262762248Y-117477719D02*
X262667010Y-117572958D01*
X262667010Y-117572958D02*
X262524153Y-117620577D01*
X262524153Y-117620577D02*
X262286058Y-117620577D01*
X263190820Y-116620577D02*
X263809867Y-116620577D01*
X263809867Y-116620577D02*
X263476534Y-117001529D01*
X263476534Y-117001529D02*
X263619391Y-117001529D01*
X263619391Y-117001529D02*
X263714629Y-117049148D01*
X263714629Y-117049148D02*
X263762248Y-117096767D01*
X263762248Y-117096767D02*
X263809867Y-117192005D01*
X263809867Y-117192005D02*
X263809867Y-117430100D01*
X263809867Y-117430100D02*
X263762248Y-117525338D01*
X263762248Y-117525338D02*
X263714629Y-117572958D01*
X263714629Y-117572958D02*
X263619391Y-117620577D01*
X263619391Y-117620577D02*
X263333677Y-117620577D01*
X263333677Y-117620577D02*
X263238439Y-117572958D01*
X263238439Y-117572958D02*
X263190820Y-117525338D01*
X264286058Y-117620577D02*
X264476534Y-117620577D01*
X264476534Y-117620577D02*
X264571772Y-117572958D01*
X264571772Y-117572958D02*
X264619391Y-117525338D01*
X264619391Y-117525338D02*
X264714629Y-117382481D01*
X264714629Y-117382481D02*
X264762248Y-117192005D01*
X264762248Y-117192005D02*
X264762248Y-116811053D01*
X264762248Y-116811053D02*
X264714629Y-116715815D01*
X264714629Y-116715815D02*
X264667010Y-116668196D01*
X264667010Y-116668196D02*
X264571772Y-116620577D01*
X264571772Y-116620577D02*
X264381296Y-116620577D01*
X264381296Y-116620577D02*
X264286058Y-116668196D01*
X264286058Y-116668196D02*
X264238439Y-116715815D01*
X264238439Y-116715815D02*
X264190820Y-116811053D01*
X264190820Y-116811053D02*
X264190820Y-117049148D01*
X264190820Y-117049148D02*
X264238439Y-117144386D01*
X264238439Y-117144386D02*
X264286058Y-117192005D01*
X264286058Y-117192005D02*
X264381296Y-117239624D01*
X264381296Y-117239624D02*
X264571772Y-117239624D01*
X264571772Y-117239624D02*
X264667010Y-117192005D01*
X264667010Y-117192005D02*
X264714629Y-117144386D01*
X264714629Y-117144386D02*
X264762248Y-117049148D01*
X138235826Y-136240113D02*
X138235826Y-135240113D01*
X138235826Y-135240113D02*
X138473921Y-135240113D01*
X138473921Y-135240113D02*
X138616778Y-135287732D01*
X138616778Y-135287732D02*
X138712016Y-135382970D01*
X138712016Y-135382970D02*
X138759635Y-135478208D01*
X138759635Y-135478208D02*
X138807254Y-135668684D01*
X138807254Y-135668684D02*
X138807254Y-135811541D01*
X138807254Y-135811541D02*
X138759635Y-136002017D01*
X138759635Y-136002017D02*
X138712016Y-136097255D01*
X138712016Y-136097255D02*
X138616778Y-136192494D01*
X138616778Y-136192494D02*
X138473921Y-136240113D01*
X138473921Y-136240113D02*
X138235826Y-136240113D01*
X139759635Y-136240113D02*
X139188207Y-136240113D01*
X139473921Y-136240113D02*
X139473921Y-135240113D01*
X139473921Y-135240113D02*
X139378683Y-135382970D01*
X139378683Y-135382970D02*
X139283445Y-135478208D01*
X139283445Y-135478208D02*
X139188207Y-135525827D01*
X140616778Y-135240113D02*
X140426302Y-135240113D01*
X140426302Y-135240113D02*
X140331064Y-135287732D01*
X140331064Y-135287732D02*
X140283445Y-135335351D01*
X140283445Y-135335351D02*
X140188207Y-135478208D01*
X140188207Y-135478208D02*
X140140588Y-135668684D01*
X140140588Y-135668684D02*
X140140588Y-136049636D01*
X140140588Y-136049636D02*
X140188207Y-136144874D01*
X140188207Y-136144874D02*
X140235826Y-136192494D01*
X140235826Y-136192494D02*
X140331064Y-136240113D01*
X140331064Y-136240113D02*
X140521540Y-136240113D01*
X140521540Y-136240113D02*
X140616778Y-136192494D01*
X140616778Y-136192494D02*
X140664397Y-136144874D01*
X140664397Y-136144874D02*
X140712016Y-136049636D01*
X140712016Y-136049636D02*
X140712016Y-135811541D01*
X140712016Y-135811541D02*
X140664397Y-135716303D01*
X140664397Y-135716303D02*
X140616778Y-135668684D01*
X140616778Y-135668684D02*
X140521540Y-135621065D01*
X140521540Y-135621065D02*
X140331064Y-135621065D01*
X140331064Y-135621065D02*
X140235826Y-135668684D01*
X140235826Y-135668684D02*
X140188207Y-135716303D01*
X140188207Y-135716303D02*
X140140588Y-135811541D01*
X149235826Y-154859713D02*
X149235826Y-153859713D01*
X149235826Y-153859713D02*
X149473921Y-153859713D01*
X149473921Y-153859713D02*
X149616778Y-153907332D01*
X149616778Y-153907332D02*
X149712016Y-154002570D01*
X149712016Y-154002570D02*
X149759635Y-154097808D01*
X149759635Y-154097808D02*
X149807254Y-154288284D01*
X149807254Y-154288284D02*
X149807254Y-154431141D01*
X149807254Y-154431141D02*
X149759635Y-154621617D01*
X149759635Y-154621617D02*
X149712016Y-154716855D01*
X149712016Y-154716855D02*
X149616778Y-154812094D01*
X149616778Y-154812094D02*
X149473921Y-154859713D01*
X149473921Y-154859713D02*
X149235826Y-154859713D01*
X150188207Y-153954951D02*
X150235826Y-153907332D01*
X150235826Y-153907332D02*
X150331064Y-153859713D01*
X150331064Y-153859713D02*
X150569159Y-153859713D01*
X150569159Y-153859713D02*
X150664397Y-153907332D01*
X150664397Y-153907332D02*
X150712016Y-153954951D01*
X150712016Y-153954951D02*
X150759635Y-154050189D01*
X150759635Y-154050189D02*
X150759635Y-154145427D01*
X150759635Y-154145427D02*
X150712016Y-154288284D01*
X150712016Y-154288284D02*
X150140588Y-154859713D01*
X150140588Y-154859713D02*
X150759635Y-154859713D01*
X151140588Y-153954951D02*
X151188207Y-153907332D01*
X151188207Y-153907332D02*
X151283445Y-153859713D01*
X151283445Y-153859713D02*
X151521540Y-153859713D01*
X151521540Y-153859713D02*
X151616778Y-153907332D01*
X151616778Y-153907332D02*
X151664397Y-153954951D01*
X151664397Y-153954951D02*
X151712016Y-154050189D01*
X151712016Y-154050189D02*
X151712016Y-154145427D01*
X151712016Y-154145427D02*
X151664397Y-154288284D01*
X151664397Y-154288284D02*
X151092969Y-154859713D01*
X151092969Y-154859713D02*
X151712016Y-154859713D01*
X170735826Y-117620613D02*
X170735826Y-116620613D01*
X170735826Y-116620613D02*
X170973921Y-116620613D01*
X170973921Y-116620613D02*
X171116778Y-116668232D01*
X171116778Y-116668232D02*
X171212016Y-116763470D01*
X171212016Y-116763470D02*
X171259635Y-116858708D01*
X171259635Y-116858708D02*
X171307254Y-117049184D01*
X171307254Y-117049184D02*
X171307254Y-117192041D01*
X171307254Y-117192041D02*
X171259635Y-117382517D01*
X171259635Y-117382517D02*
X171212016Y-117477755D01*
X171212016Y-117477755D02*
X171116778Y-117572994D01*
X171116778Y-117572994D02*
X170973921Y-117620613D01*
X170973921Y-117620613D02*
X170735826Y-117620613D01*
X172259635Y-117620613D02*
X171688207Y-117620613D01*
X171973921Y-117620613D02*
X171973921Y-116620613D01*
X171973921Y-116620613D02*
X171878683Y-116763470D01*
X171878683Y-116763470D02*
X171783445Y-116858708D01*
X171783445Y-116858708D02*
X171688207Y-116906327D01*
X173212016Y-117620613D02*
X172640588Y-117620613D01*
X172926302Y-117620613D02*
X172926302Y-116620613D01*
X172926302Y-116620613D02*
X172831064Y-116763470D01*
X172831064Y-116763470D02*
X172735826Y-116858708D01*
X172735826Y-116858708D02*
X172640588Y-116906327D01*
X230036058Y-173479221D02*
X230036058Y-172479221D01*
X230036058Y-172479221D02*
X230274153Y-172479221D01*
X230274153Y-172479221D02*
X230417010Y-172526840D01*
X230417010Y-172526840D02*
X230512248Y-172622078D01*
X230512248Y-172622078D02*
X230559867Y-172717316D01*
X230559867Y-172717316D02*
X230607486Y-172907792D01*
X230607486Y-172907792D02*
X230607486Y-173050649D01*
X230607486Y-173050649D02*
X230559867Y-173241125D01*
X230559867Y-173241125D02*
X230512248Y-173336363D01*
X230512248Y-173336363D02*
X230417010Y-173431602D01*
X230417010Y-173431602D02*
X230274153Y-173479221D01*
X230274153Y-173479221D02*
X230036058Y-173479221D01*
X231512248Y-172479221D02*
X231036058Y-172479221D01*
X231036058Y-172479221D02*
X230988439Y-172955411D01*
X230988439Y-172955411D02*
X231036058Y-172907792D01*
X231036058Y-172907792D02*
X231131296Y-172860173D01*
X231131296Y-172860173D02*
X231369391Y-172860173D01*
X231369391Y-172860173D02*
X231464629Y-172907792D01*
X231464629Y-172907792D02*
X231512248Y-172955411D01*
X231512248Y-172955411D02*
X231559867Y-173050649D01*
X231559867Y-173050649D02*
X231559867Y-173288744D01*
X231559867Y-173288744D02*
X231512248Y-173383982D01*
X231512248Y-173383982D02*
X231464629Y-173431602D01*
X231464629Y-173431602D02*
X231369391Y-173479221D01*
X231369391Y-173479221D02*
X231131296Y-173479221D01*
X231131296Y-173479221D02*
X231036058Y-173431602D01*
X231036058Y-173431602D02*
X230988439Y-173383982D01*
X231893201Y-172479221D02*
X232559867Y-172479221D01*
X232559867Y-172479221D02*
X232131296Y-173479221D01*
X251536058Y-99001029D02*
X251536058Y-98001029D01*
X251536058Y-98001029D02*
X251774153Y-98001029D01*
X251774153Y-98001029D02*
X251917010Y-98048648D01*
X251917010Y-98048648D02*
X252012248Y-98143886D01*
X252012248Y-98143886D02*
X252059867Y-98239124D01*
X252059867Y-98239124D02*
X252107486Y-98429600D01*
X252107486Y-98429600D02*
X252107486Y-98572457D01*
X252107486Y-98572457D02*
X252059867Y-98762933D01*
X252059867Y-98762933D02*
X252012248Y-98858171D01*
X252012248Y-98858171D02*
X251917010Y-98953410D01*
X251917010Y-98953410D02*
X251774153Y-99001029D01*
X251774153Y-99001029D02*
X251536058Y-99001029D01*
X252440820Y-98001029D02*
X253059867Y-98001029D01*
X253059867Y-98001029D02*
X252726534Y-98381981D01*
X252726534Y-98381981D02*
X252869391Y-98381981D01*
X252869391Y-98381981D02*
X252964629Y-98429600D01*
X252964629Y-98429600D02*
X253012248Y-98477219D01*
X253012248Y-98477219D02*
X253059867Y-98572457D01*
X253059867Y-98572457D02*
X253059867Y-98810552D01*
X253059867Y-98810552D02*
X253012248Y-98905790D01*
X253012248Y-98905790D02*
X252964629Y-98953410D01*
X252964629Y-98953410D02*
X252869391Y-99001029D01*
X252869391Y-99001029D02*
X252583677Y-99001029D01*
X252583677Y-99001029D02*
X252488439Y-98953410D01*
X252488439Y-98953410D02*
X252440820Y-98905790D01*
X253440820Y-98096267D02*
X253488439Y-98048648D01*
X253488439Y-98048648D02*
X253583677Y-98001029D01*
X253583677Y-98001029D02*
X253821772Y-98001029D01*
X253821772Y-98001029D02*
X253917010Y-98048648D01*
X253917010Y-98048648D02*
X253964629Y-98096267D01*
X253964629Y-98096267D02*
X254012248Y-98191505D01*
X254012248Y-98191505D02*
X254012248Y-98286743D01*
X254012248Y-98286743D02*
X253964629Y-98429600D01*
X253964629Y-98429600D02*
X253393201Y-99001029D01*
X253393201Y-99001029D02*
X254012248Y-99001029D01*
X315911058Y-99001029D02*
X315911058Y-98001029D01*
X315911058Y-98001029D02*
X316149153Y-98001029D01*
X316149153Y-98001029D02*
X316292010Y-98048648D01*
X316292010Y-98048648D02*
X316387248Y-98143886D01*
X316387248Y-98143886D02*
X316434867Y-98239124D01*
X316434867Y-98239124D02*
X316482486Y-98429600D01*
X316482486Y-98429600D02*
X316482486Y-98572457D01*
X316482486Y-98572457D02*
X316434867Y-98762933D01*
X316434867Y-98762933D02*
X316387248Y-98858171D01*
X316387248Y-98858171D02*
X316292010Y-98953410D01*
X316292010Y-98953410D02*
X316149153Y-99001029D01*
X316149153Y-99001029D02*
X315911058Y-99001029D01*
X316815820Y-98001029D02*
X317434867Y-98001029D01*
X317434867Y-98001029D02*
X317101534Y-98381981D01*
X317101534Y-98381981D02*
X317244391Y-98381981D01*
X317244391Y-98381981D02*
X317339629Y-98429600D01*
X317339629Y-98429600D02*
X317387248Y-98477219D01*
X317387248Y-98477219D02*
X317434867Y-98572457D01*
X317434867Y-98572457D02*
X317434867Y-98810552D01*
X317434867Y-98810552D02*
X317387248Y-98905790D01*
X317387248Y-98905790D02*
X317339629Y-98953410D01*
X317339629Y-98953410D02*
X317244391Y-99001029D01*
X317244391Y-99001029D02*
X316958677Y-99001029D01*
X316958677Y-99001029D02*
X316863439Y-98953410D01*
X316863439Y-98953410D02*
X316815820Y-98905790D01*
X318339629Y-98001029D02*
X317863439Y-98001029D01*
X317863439Y-98001029D02*
X317815820Y-98477219D01*
X317815820Y-98477219D02*
X317863439Y-98429600D01*
X317863439Y-98429600D02*
X317958677Y-98381981D01*
X317958677Y-98381981D02*
X318196772Y-98381981D01*
X318196772Y-98381981D02*
X318292010Y-98429600D01*
X318292010Y-98429600D02*
X318339629Y-98477219D01*
X318339629Y-98477219D02*
X318387248Y-98572457D01*
X318387248Y-98572457D02*
X318387248Y-98810552D01*
X318387248Y-98810552D02*
X318339629Y-98905790D01*
X318339629Y-98905790D02*
X318292010Y-98953410D01*
X318292010Y-98953410D02*
X318196772Y-99001029D01*
X318196772Y-99001029D02*
X317958677Y-99001029D01*
X317958677Y-99001029D02*
X317863439Y-98953410D01*
X317863439Y-98953410D02*
X317815820Y-98905790D01*
X337536058Y-136240125D02*
X337536058Y-135240125D01*
X337536058Y-135240125D02*
X337774153Y-135240125D01*
X337774153Y-135240125D02*
X337917010Y-135287744D01*
X337917010Y-135287744D02*
X338012248Y-135382982D01*
X338012248Y-135382982D02*
X338059867Y-135478220D01*
X338059867Y-135478220D02*
X338107486Y-135668696D01*
X338107486Y-135668696D02*
X338107486Y-135811553D01*
X338107486Y-135811553D02*
X338059867Y-136002029D01*
X338059867Y-136002029D02*
X338012248Y-136097267D01*
X338012248Y-136097267D02*
X337917010Y-136192506D01*
X337917010Y-136192506D02*
X337774153Y-136240125D01*
X337774153Y-136240125D02*
X337536058Y-136240125D01*
X338964629Y-135573458D02*
X338964629Y-136240125D01*
X338726534Y-135192506D02*
X338488439Y-135906791D01*
X338488439Y-135906791D02*
X339107486Y-135906791D01*
X339631296Y-135668696D02*
X339536058Y-135621077D01*
X339536058Y-135621077D02*
X339488439Y-135573458D01*
X339488439Y-135573458D02*
X339440820Y-135478220D01*
X339440820Y-135478220D02*
X339440820Y-135430601D01*
X339440820Y-135430601D02*
X339488439Y-135335363D01*
X339488439Y-135335363D02*
X339536058Y-135287744D01*
X339536058Y-135287744D02*
X339631296Y-135240125D01*
X339631296Y-135240125D02*
X339821772Y-135240125D01*
X339821772Y-135240125D02*
X339917010Y-135287744D01*
X339917010Y-135287744D02*
X339964629Y-135335363D01*
X339964629Y-135335363D02*
X340012248Y-135430601D01*
X340012248Y-135430601D02*
X340012248Y-135478220D01*
X340012248Y-135478220D02*
X339964629Y-135573458D01*
X339964629Y-135573458D02*
X339917010Y-135621077D01*
X339917010Y-135621077D02*
X339821772Y-135668696D01*
X339821772Y-135668696D02*
X339631296Y-135668696D01*
X339631296Y-135668696D02*
X339536058Y-135716315D01*
X339536058Y-135716315D02*
X339488439Y-135763934D01*
X339488439Y-135763934D02*
X339440820Y-135859172D01*
X339440820Y-135859172D02*
X339440820Y-136049648D01*
X339440820Y-136049648D02*
X339488439Y-136144886D01*
X339488439Y-136144886D02*
X339536058Y-136192506D01*
X339536058Y-136192506D02*
X339631296Y-136240125D01*
X339631296Y-136240125D02*
X339821772Y-136240125D01*
X339821772Y-136240125D02*
X339917010Y-136192506D01*
X339917010Y-136192506D02*
X339964629Y-136144886D01*
X339964629Y-136144886D02*
X340012248Y-136049648D01*
X340012248Y-136049648D02*
X340012248Y-135859172D01*
X340012248Y-135859172D02*
X339964629Y-135763934D01*
X339964629Y-135763934D02*
X339917010Y-135716315D01*
X339917010Y-135716315D02*
X339821772Y-135668696D01*
X192235826Y-154859713D02*
X192235826Y-153859713D01*
X192235826Y-153859713D02*
X192473921Y-153859713D01*
X192473921Y-153859713D02*
X192616778Y-153907332D01*
X192616778Y-153907332D02*
X192712016Y-154002570D01*
X192712016Y-154002570D02*
X192759635Y-154097808D01*
X192759635Y-154097808D02*
X192807254Y-154288284D01*
X192807254Y-154288284D02*
X192807254Y-154431141D01*
X192807254Y-154431141D02*
X192759635Y-154621617D01*
X192759635Y-154621617D02*
X192712016Y-154716855D01*
X192712016Y-154716855D02*
X192616778Y-154812094D01*
X192616778Y-154812094D02*
X192473921Y-154859713D01*
X192473921Y-154859713D02*
X192235826Y-154859713D01*
X193188207Y-153954951D02*
X193235826Y-153907332D01*
X193235826Y-153907332D02*
X193331064Y-153859713D01*
X193331064Y-153859713D02*
X193569159Y-153859713D01*
X193569159Y-153859713D02*
X193664397Y-153907332D01*
X193664397Y-153907332D02*
X193712016Y-153954951D01*
X193712016Y-153954951D02*
X193759635Y-154050189D01*
X193759635Y-154050189D02*
X193759635Y-154145427D01*
X193759635Y-154145427D02*
X193712016Y-154288284D01*
X193712016Y-154288284D02*
X193140588Y-154859713D01*
X193140588Y-154859713D02*
X193759635Y-154859713D01*
X194616778Y-154193046D02*
X194616778Y-154859713D01*
X194378683Y-153812094D02*
X194140588Y-154526379D01*
X194140588Y-154526379D02*
X194759635Y-154526379D01*
X273036058Y-136240125D02*
X273036058Y-135240125D01*
X273036058Y-135240125D02*
X273274153Y-135240125D01*
X273274153Y-135240125D02*
X273417010Y-135287744D01*
X273417010Y-135287744D02*
X273512248Y-135382982D01*
X273512248Y-135382982D02*
X273559867Y-135478220D01*
X273559867Y-135478220D02*
X273607486Y-135668696D01*
X273607486Y-135668696D02*
X273607486Y-135811553D01*
X273607486Y-135811553D02*
X273559867Y-136002029D01*
X273559867Y-136002029D02*
X273512248Y-136097267D01*
X273512248Y-136097267D02*
X273417010Y-136192506D01*
X273417010Y-136192506D02*
X273274153Y-136240125D01*
X273274153Y-136240125D02*
X273036058Y-136240125D01*
X274464629Y-135573458D02*
X274464629Y-136240125D01*
X274226534Y-135192506D02*
X273988439Y-135906791D01*
X273988439Y-135906791D02*
X274607486Y-135906791D01*
X275464629Y-135240125D02*
X274988439Y-135240125D01*
X274988439Y-135240125D02*
X274940820Y-135716315D01*
X274940820Y-135716315D02*
X274988439Y-135668696D01*
X274988439Y-135668696D02*
X275083677Y-135621077D01*
X275083677Y-135621077D02*
X275321772Y-135621077D01*
X275321772Y-135621077D02*
X275417010Y-135668696D01*
X275417010Y-135668696D02*
X275464629Y-135716315D01*
X275464629Y-135716315D02*
X275512248Y-135811553D01*
X275512248Y-135811553D02*
X275512248Y-136049648D01*
X275512248Y-136049648D02*
X275464629Y-136144886D01*
X275464629Y-136144886D02*
X275417010Y-136192506D01*
X275417010Y-136192506D02*
X275321772Y-136240125D01*
X275321772Y-136240125D02*
X275083677Y-136240125D01*
X275083677Y-136240125D02*
X274988439Y-136192506D01*
X274988439Y-136192506D02*
X274940820Y-136144886D01*
X192235826Y-192098813D02*
X192235826Y-191098813D01*
X192235826Y-191098813D02*
X192473921Y-191098813D01*
X192473921Y-191098813D02*
X192616778Y-191146432D01*
X192616778Y-191146432D02*
X192712016Y-191241670D01*
X192712016Y-191241670D02*
X192759635Y-191336908D01*
X192759635Y-191336908D02*
X192807254Y-191527384D01*
X192807254Y-191527384D02*
X192807254Y-191670241D01*
X192807254Y-191670241D02*
X192759635Y-191860717D01*
X192759635Y-191860717D02*
X192712016Y-191955955D01*
X192712016Y-191955955D02*
X192616778Y-192051194D01*
X192616778Y-192051194D02*
X192473921Y-192098813D01*
X192473921Y-192098813D02*
X192235826Y-192098813D01*
X193188207Y-191194051D02*
X193235826Y-191146432D01*
X193235826Y-191146432D02*
X193331064Y-191098813D01*
X193331064Y-191098813D02*
X193569159Y-191098813D01*
X193569159Y-191098813D02*
X193664397Y-191146432D01*
X193664397Y-191146432D02*
X193712016Y-191194051D01*
X193712016Y-191194051D02*
X193759635Y-191289289D01*
X193759635Y-191289289D02*
X193759635Y-191384527D01*
X193759635Y-191384527D02*
X193712016Y-191527384D01*
X193712016Y-191527384D02*
X193140588Y-192098813D01*
X193140588Y-192098813D02*
X193759635Y-192098813D01*
X194235826Y-192098813D02*
X194426302Y-192098813D01*
X194426302Y-192098813D02*
X194521540Y-192051194D01*
X194521540Y-192051194D02*
X194569159Y-192003574D01*
X194569159Y-192003574D02*
X194664397Y-191860717D01*
X194664397Y-191860717D02*
X194712016Y-191670241D01*
X194712016Y-191670241D02*
X194712016Y-191289289D01*
X194712016Y-191289289D02*
X194664397Y-191194051D01*
X194664397Y-191194051D02*
X194616778Y-191146432D01*
X194616778Y-191146432D02*
X194521540Y-191098813D01*
X194521540Y-191098813D02*
X194331064Y-191098813D01*
X194331064Y-191098813D02*
X194235826Y-191146432D01*
X194235826Y-191146432D02*
X194188207Y-191194051D01*
X194188207Y-191194051D02*
X194140588Y-191289289D01*
X194140588Y-191289289D02*
X194140588Y-191527384D01*
X194140588Y-191527384D02*
X194188207Y-191622622D01*
X194188207Y-191622622D02*
X194235826Y-191670241D01*
X194235826Y-191670241D02*
X194331064Y-191717860D01*
X194331064Y-191717860D02*
X194521540Y-191717860D01*
X194521540Y-191717860D02*
X194616778Y-191670241D01*
X194616778Y-191670241D02*
X194664397Y-191622622D01*
X194664397Y-191622622D02*
X194712016Y-191527384D01*
X316036058Y-136240125D02*
X316036058Y-135240125D01*
X316036058Y-135240125D02*
X316274153Y-135240125D01*
X316274153Y-135240125D02*
X316417010Y-135287744D01*
X316417010Y-135287744D02*
X316512248Y-135382982D01*
X316512248Y-135382982D02*
X316559867Y-135478220D01*
X316559867Y-135478220D02*
X316607486Y-135668696D01*
X316607486Y-135668696D02*
X316607486Y-135811553D01*
X316607486Y-135811553D02*
X316559867Y-136002029D01*
X316559867Y-136002029D02*
X316512248Y-136097267D01*
X316512248Y-136097267D02*
X316417010Y-136192506D01*
X316417010Y-136192506D02*
X316274153Y-136240125D01*
X316274153Y-136240125D02*
X316036058Y-136240125D01*
X317464629Y-135573458D02*
X317464629Y-136240125D01*
X317226534Y-135192506D02*
X316988439Y-135906791D01*
X316988439Y-135906791D02*
X317607486Y-135906791D01*
X317893201Y-135240125D02*
X318559867Y-135240125D01*
X318559867Y-135240125D02*
X318131296Y-136240125D01*
X273036058Y-173479221D02*
X273036058Y-172479221D01*
X273036058Y-172479221D02*
X273274153Y-172479221D01*
X273274153Y-172479221D02*
X273417010Y-172526840D01*
X273417010Y-172526840D02*
X273512248Y-172622078D01*
X273512248Y-172622078D02*
X273559867Y-172717316D01*
X273559867Y-172717316D02*
X273607486Y-172907792D01*
X273607486Y-172907792D02*
X273607486Y-173050649D01*
X273607486Y-173050649D02*
X273559867Y-173241125D01*
X273559867Y-173241125D02*
X273512248Y-173336363D01*
X273512248Y-173336363D02*
X273417010Y-173431602D01*
X273417010Y-173431602D02*
X273274153Y-173479221D01*
X273274153Y-173479221D02*
X273036058Y-173479221D01*
X274512248Y-172479221D02*
X274036058Y-172479221D01*
X274036058Y-172479221D02*
X273988439Y-172955411D01*
X273988439Y-172955411D02*
X274036058Y-172907792D01*
X274036058Y-172907792D02*
X274131296Y-172860173D01*
X274131296Y-172860173D02*
X274369391Y-172860173D01*
X274369391Y-172860173D02*
X274464629Y-172907792D01*
X274464629Y-172907792D02*
X274512248Y-172955411D01*
X274512248Y-172955411D02*
X274559867Y-173050649D01*
X274559867Y-173050649D02*
X274559867Y-173288744D01*
X274559867Y-173288744D02*
X274512248Y-173383982D01*
X274512248Y-173383982D02*
X274464629Y-173431602D01*
X274464629Y-173431602D02*
X274369391Y-173479221D01*
X274369391Y-173479221D02*
X274131296Y-173479221D01*
X274131296Y-173479221D02*
X274036058Y-173431602D01*
X274036058Y-173431602D02*
X273988439Y-173383982D01*
X275036058Y-173479221D02*
X275226534Y-173479221D01*
X275226534Y-173479221D02*
X275321772Y-173431602D01*
X275321772Y-173431602D02*
X275369391Y-173383982D01*
X275369391Y-173383982D02*
X275464629Y-173241125D01*
X275464629Y-173241125D02*
X275512248Y-173050649D01*
X275512248Y-173050649D02*
X275512248Y-172669697D01*
X275512248Y-172669697D02*
X275464629Y-172574459D01*
X275464629Y-172574459D02*
X275417010Y-172526840D01*
X275417010Y-172526840D02*
X275321772Y-172479221D01*
X275321772Y-172479221D02*
X275131296Y-172479221D01*
X275131296Y-172479221D02*
X275036058Y-172526840D01*
X275036058Y-172526840D02*
X274988439Y-172574459D01*
X274988439Y-172574459D02*
X274940820Y-172669697D01*
X274940820Y-172669697D02*
X274940820Y-172907792D01*
X274940820Y-172907792D02*
X274988439Y-173003030D01*
X274988439Y-173003030D02*
X275036058Y-173050649D01*
X275036058Y-173050649D02*
X275131296Y-173098268D01*
X275131296Y-173098268D02*
X275321772Y-173098268D01*
X275321772Y-173098268D02*
X275417010Y-173050649D01*
X275417010Y-173050649D02*
X275464629Y-173003030D01*
X275464629Y-173003030D02*
X275512248Y-172907792D01*
X73985826Y-136240113D02*
X73985826Y-135240113D01*
X73985826Y-135240113D02*
X74223921Y-135240113D01*
X74223921Y-135240113D02*
X74366778Y-135287732D01*
X74366778Y-135287732D02*
X74462016Y-135382970D01*
X74462016Y-135382970D02*
X74509635Y-135478208D01*
X74509635Y-135478208D02*
X74557254Y-135668684D01*
X74557254Y-135668684D02*
X74557254Y-135811541D01*
X74557254Y-135811541D02*
X74509635Y-136002017D01*
X74509635Y-136002017D02*
X74462016Y-136097255D01*
X74462016Y-136097255D02*
X74366778Y-136192494D01*
X74366778Y-136192494D02*
X74223921Y-136240113D01*
X74223921Y-136240113D02*
X73985826Y-136240113D01*
X75509635Y-136240113D02*
X74938207Y-136240113D01*
X75223921Y-136240113D02*
X75223921Y-135240113D01*
X75223921Y-135240113D02*
X75128683Y-135382970D01*
X75128683Y-135382970D02*
X75033445Y-135478208D01*
X75033445Y-135478208D02*
X74938207Y-135525827D01*
X75842969Y-135240113D02*
X76462016Y-135240113D01*
X76462016Y-135240113D02*
X76128683Y-135621065D01*
X76128683Y-135621065D02*
X76271540Y-135621065D01*
X76271540Y-135621065D02*
X76366778Y-135668684D01*
X76366778Y-135668684D02*
X76414397Y-135716303D01*
X76414397Y-135716303D02*
X76462016Y-135811541D01*
X76462016Y-135811541D02*
X76462016Y-136049636D01*
X76462016Y-136049636D02*
X76414397Y-136144874D01*
X76414397Y-136144874D02*
X76366778Y-136192494D01*
X76366778Y-136192494D02*
X76271540Y-136240113D01*
X76271540Y-136240113D02*
X75985826Y-136240113D01*
X75985826Y-136240113D02*
X75890588Y-136192494D01*
X75890588Y-136192494D02*
X75842969Y-136144874D01*
X219036058Y-192098769D02*
X219036058Y-191098769D01*
X219036058Y-191098769D02*
X219274153Y-191098769D01*
X219274153Y-191098769D02*
X219417010Y-191146388D01*
X219417010Y-191146388D02*
X219512248Y-191241626D01*
X219512248Y-191241626D02*
X219559867Y-191336864D01*
X219559867Y-191336864D02*
X219607486Y-191527340D01*
X219607486Y-191527340D02*
X219607486Y-191670197D01*
X219607486Y-191670197D02*
X219559867Y-191860673D01*
X219559867Y-191860673D02*
X219512248Y-191955911D01*
X219512248Y-191955911D02*
X219417010Y-192051150D01*
X219417010Y-192051150D02*
X219274153Y-192098769D01*
X219274153Y-192098769D02*
X219036058Y-192098769D01*
X220512248Y-191098769D02*
X220036058Y-191098769D01*
X220036058Y-191098769D02*
X219988439Y-191574959D01*
X219988439Y-191574959D02*
X220036058Y-191527340D01*
X220036058Y-191527340D02*
X220131296Y-191479721D01*
X220131296Y-191479721D02*
X220369391Y-191479721D01*
X220369391Y-191479721D02*
X220464629Y-191527340D01*
X220464629Y-191527340D02*
X220512248Y-191574959D01*
X220512248Y-191574959D02*
X220559867Y-191670197D01*
X220559867Y-191670197D02*
X220559867Y-191908292D01*
X220559867Y-191908292D02*
X220512248Y-192003530D01*
X220512248Y-192003530D02*
X220464629Y-192051150D01*
X220464629Y-192051150D02*
X220369391Y-192098769D01*
X220369391Y-192098769D02*
X220131296Y-192098769D01*
X220131296Y-192098769D02*
X220036058Y-192051150D01*
X220036058Y-192051150D02*
X219988439Y-192003530D01*
X221417010Y-191098769D02*
X221226534Y-191098769D01*
X221226534Y-191098769D02*
X221131296Y-191146388D01*
X221131296Y-191146388D02*
X221083677Y-191194007D01*
X221083677Y-191194007D02*
X220988439Y-191336864D01*
X220988439Y-191336864D02*
X220940820Y-191527340D01*
X220940820Y-191527340D02*
X220940820Y-191908292D01*
X220940820Y-191908292D02*
X220988439Y-192003530D01*
X220988439Y-192003530D02*
X221036058Y-192051150D01*
X221036058Y-192051150D02*
X221131296Y-192098769D01*
X221131296Y-192098769D02*
X221321772Y-192098769D01*
X221321772Y-192098769D02*
X221417010Y-192051150D01*
X221417010Y-192051150D02*
X221464629Y-192003530D01*
X221464629Y-192003530D02*
X221512248Y-191908292D01*
X221512248Y-191908292D02*
X221512248Y-191670197D01*
X221512248Y-191670197D02*
X221464629Y-191574959D01*
X221464629Y-191574959D02*
X221417010Y-191527340D01*
X221417010Y-191527340D02*
X221321772Y-191479721D01*
X221321772Y-191479721D02*
X221131296Y-191479721D01*
X221131296Y-191479721D02*
X221036058Y-191527340D01*
X221036058Y-191527340D02*
X220988439Y-191574959D01*
X220988439Y-191574959D02*
X220940820Y-191670197D01*
X230036058Y-136240125D02*
X230036058Y-135240125D01*
X230036058Y-135240125D02*
X230274153Y-135240125D01*
X230274153Y-135240125D02*
X230417010Y-135287744D01*
X230417010Y-135287744D02*
X230512248Y-135382982D01*
X230512248Y-135382982D02*
X230559867Y-135478220D01*
X230559867Y-135478220D02*
X230607486Y-135668696D01*
X230607486Y-135668696D02*
X230607486Y-135811553D01*
X230607486Y-135811553D02*
X230559867Y-136002029D01*
X230559867Y-136002029D02*
X230512248Y-136097267D01*
X230512248Y-136097267D02*
X230417010Y-136192506D01*
X230417010Y-136192506D02*
X230274153Y-136240125D01*
X230274153Y-136240125D02*
X230036058Y-136240125D01*
X231464629Y-135573458D02*
X231464629Y-136240125D01*
X231226534Y-135192506D02*
X230988439Y-135906791D01*
X230988439Y-135906791D02*
X231607486Y-135906791D01*
X231893201Y-135240125D02*
X232512248Y-135240125D01*
X232512248Y-135240125D02*
X232178915Y-135621077D01*
X232178915Y-135621077D02*
X232321772Y-135621077D01*
X232321772Y-135621077D02*
X232417010Y-135668696D01*
X232417010Y-135668696D02*
X232464629Y-135716315D01*
X232464629Y-135716315D02*
X232512248Y-135811553D01*
X232512248Y-135811553D02*
X232512248Y-136049648D01*
X232512248Y-136049648D02*
X232464629Y-136144886D01*
X232464629Y-136144886D02*
X232417010Y-136192506D01*
X232417010Y-136192506D02*
X232321772Y-136240125D01*
X232321772Y-136240125D02*
X232036058Y-136240125D01*
X232036058Y-136240125D02*
X231940820Y-136192506D01*
X231940820Y-136192506D02*
X231893201Y-136144886D01*
X230036058Y-99001029D02*
X230036058Y-98001029D01*
X230036058Y-98001029D02*
X230274153Y-98001029D01*
X230274153Y-98001029D02*
X230417010Y-98048648D01*
X230417010Y-98048648D02*
X230512248Y-98143886D01*
X230512248Y-98143886D02*
X230559867Y-98239124D01*
X230559867Y-98239124D02*
X230607486Y-98429600D01*
X230607486Y-98429600D02*
X230607486Y-98572457D01*
X230607486Y-98572457D02*
X230559867Y-98762933D01*
X230559867Y-98762933D02*
X230512248Y-98858171D01*
X230512248Y-98858171D02*
X230417010Y-98953410D01*
X230417010Y-98953410D02*
X230274153Y-99001029D01*
X230274153Y-99001029D02*
X230036058Y-99001029D01*
X230940820Y-98001029D02*
X231559867Y-98001029D01*
X231559867Y-98001029D02*
X231226534Y-98381981D01*
X231226534Y-98381981D02*
X231369391Y-98381981D01*
X231369391Y-98381981D02*
X231464629Y-98429600D01*
X231464629Y-98429600D02*
X231512248Y-98477219D01*
X231512248Y-98477219D02*
X231559867Y-98572457D01*
X231559867Y-98572457D02*
X231559867Y-98810552D01*
X231559867Y-98810552D02*
X231512248Y-98905790D01*
X231512248Y-98905790D02*
X231464629Y-98953410D01*
X231464629Y-98953410D02*
X231369391Y-99001029D01*
X231369391Y-99001029D02*
X231083677Y-99001029D01*
X231083677Y-99001029D02*
X230988439Y-98953410D01*
X230988439Y-98953410D02*
X230940820Y-98905790D01*
X232512248Y-99001029D02*
X231940820Y-99001029D01*
X232226534Y-99001029D02*
X232226534Y-98001029D01*
X232226534Y-98001029D02*
X232131296Y-98143886D01*
X232131296Y-98143886D02*
X232036058Y-98239124D01*
X232036058Y-98239124D02*
X231940820Y-98286743D01*
X181485826Y-210718313D02*
X181485826Y-209718313D01*
X181485826Y-209718313D02*
X181723921Y-209718313D01*
X181723921Y-209718313D02*
X181866778Y-209765932D01*
X181866778Y-209765932D02*
X181962016Y-209861170D01*
X181962016Y-209861170D02*
X182009635Y-209956408D01*
X182009635Y-209956408D02*
X182057254Y-210146884D01*
X182057254Y-210146884D02*
X182057254Y-210289741D01*
X182057254Y-210289741D02*
X182009635Y-210480217D01*
X182009635Y-210480217D02*
X181962016Y-210575455D01*
X181962016Y-210575455D02*
X181866778Y-210670694D01*
X181866778Y-210670694D02*
X181723921Y-210718313D01*
X181723921Y-210718313D02*
X181485826Y-210718313D01*
X182390588Y-209718313D02*
X183009635Y-209718313D01*
X183009635Y-209718313D02*
X182676302Y-210099265D01*
X182676302Y-210099265D02*
X182819159Y-210099265D01*
X182819159Y-210099265D02*
X182914397Y-210146884D01*
X182914397Y-210146884D02*
X182962016Y-210194503D01*
X182962016Y-210194503D02*
X183009635Y-210289741D01*
X183009635Y-210289741D02*
X183009635Y-210527836D01*
X183009635Y-210527836D02*
X182962016Y-210623074D01*
X182962016Y-210623074D02*
X182914397Y-210670694D01*
X182914397Y-210670694D02*
X182819159Y-210718313D01*
X182819159Y-210718313D02*
X182533445Y-210718313D01*
X182533445Y-210718313D02*
X182438207Y-210670694D01*
X182438207Y-210670694D02*
X182390588Y-210623074D01*
X183628683Y-209718313D02*
X183723921Y-209718313D01*
X183723921Y-209718313D02*
X183819159Y-209765932D01*
X183819159Y-209765932D02*
X183866778Y-209813551D01*
X183866778Y-209813551D02*
X183914397Y-209908789D01*
X183914397Y-209908789D02*
X183962016Y-210099265D01*
X183962016Y-210099265D02*
X183962016Y-210337360D01*
X183962016Y-210337360D02*
X183914397Y-210527836D01*
X183914397Y-210527836D02*
X183866778Y-210623074D01*
X183866778Y-210623074D02*
X183819159Y-210670694D01*
X183819159Y-210670694D02*
X183723921Y-210718313D01*
X183723921Y-210718313D02*
X183628683Y-210718313D01*
X183628683Y-210718313D02*
X183533445Y-210670694D01*
X183533445Y-210670694D02*
X183485826Y-210623074D01*
X183485826Y-210623074D02*
X183438207Y-210527836D01*
X183438207Y-210527836D02*
X183390588Y-210337360D01*
X183390588Y-210337360D02*
X183390588Y-210099265D01*
X183390588Y-210099265D02*
X183438207Y-209908789D01*
X183438207Y-209908789D02*
X183485826Y-209813551D01*
X183485826Y-209813551D02*
X183533445Y-209765932D01*
X183533445Y-209765932D02*
X183628683Y-209718313D01*
X127735826Y-154859713D02*
X127735826Y-153859713D01*
X127735826Y-153859713D02*
X127973921Y-153859713D01*
X127973921Y-153859713D02*
X128116778Y-153907332D01*
X128116778Y-153907332D02*
X128212016Y-154002570D01*
X128212016Y-154002570D02*
X128259635Y-154097808D01*
X128259635Y-154097808D02*
X128307254Y-154288284D01*
X128307254Y-154288284D02*
X128307254Y-154431141D01*
X128307254Y-154431141D02*
X128259635Y-154621617D01*
X128259635Y-154621617D02*
X128212016Y-154716855D01*
X128212016Y-154716855D02*
X128116778Y-154812094D01*
X128116778Y-154812094D02*
X127973921Y-154859713D01*
X127973921Y-154859713D02*
X127735826Y-154859713D01*
X128688207Y-153954951D02*
X128735826Y-153907332D01*
X128735826Y-153907332D02*
X128831064Y-153859713D01*
X128831064Y-153859713D02*
X129069159Y-153859713D01*
X129069159Y-153859713D02*
X129164397Y-153907332D01*
X129164397Y-153907332D02*
X129212016Y-153954951D01*
X129212016Y-153954951D02*
X129259635Y-154050189D01*
X129259635Y-154050189D02*
X129259635Y-154145427D01*
X129259635Y-154145427D02*
X129212016Y-154288284D01*
X129212016Y-154288284D02*
X128640588Y-154859713D01*
X128640588Y-154859713D02*
X129259635Y-154859713D01*
X130212016Y-154859713D02*
X129640588Y-154859713D01*
X129926302Y-154859713D02*
X129926302Y-153859713D01*
X129926302Y-153859713D02*
X129831064Y-154002570D01*
X129831064Y-154002570D02*
X129735826Y-154097808D01*
X129735826Y-154097808D02*
X129640588Y-154145427D01*
X116985826Y-136240113D02*
X116985826Y-135240113D01*
X116985826Y-135240113D02*
X117223921Y-135240113D01*
X117223921Y-135240113D02*
X117366778Y-135287732D01*
X117366778Y-135287732D02*
X117462016Y-135382970D01*
X117462016Y-135382970D02*
X117509635Y-135478208D01*
X117509635Y-135478208D02*
X117557254Y-135668684D01*
X117557254Y-135668684D02*
X117557254Y-135811541D01*
X117557254Y-135811541D02*
X117509635Y-136002017D01*
X117509635Y-136002017D02*
X117462016Y-136097255D01*
X117462016Y-136097255D02*
X117366778Y-136192494D01*
X117366778Y-136192494D02*
X117223921Y-136240113D01*
X117223921Y-136240113D02*
X116985826Y-136240113D01*
X118509635Y-136240113D02*
X117938207Y-136240113D01*
X118223921Y-136240113D02*
X118223921Y-135240113D01*
X118223921Y-135240113D02*
X118128683Y-135382970D01*
X118128683Y-135382970D02*
X118033445Y-135478208D01*
X118033445Y-135478208D02*
X117938207Y-135525827D01*
X119414397Y-135240113D02*
X118938207Y-135240113D01*
X118938207Y-135240113D02*
X118890588Y-135716303D01*
X118890588Y-135716303D02*
X118938207Y-135668684D01*
X118938207Y-135668684D02*
X119033445Y-135621065D01*
X119033445Y-135621065D02*
X119271540Y-135621065D01*
X119271540Y-135621065D02*
X119366778Y-135668684D01*
X119366778Y-135668684D02*
X119414397Y-135716303D01*
X119414397Y-135716303D02*
X119462016Y-135811541D01*
X119462016Y-135811541D02*
X119462016Y-136049636D01*
X119462016Y-136049636D02*
X119414397Y-136144874D01*
X119414397Y-136144874D02*
X119366778Y-136192494D01*
X119366778Y-136192494D02*
X119271540Y-136240113D01*
X119271540Y-136240113D02*
X119033445Y-136240113D01*
X119033445Y-136240113D02*
X118938207Y-136192494D01*
X118938207Y-136192494D02*
X118890588Y-136144874D01*
X262161058Y-154859673D02*
X262161058Y-153859673D01*
X262161058Y-153859673D02*
X262399153Y-153859673D01*
X262399153Y-153859673D02*
X262542010Y-153907292D01*
X262542010Y-153907292D02*
X262637248Y-154002530D01*
X262637248Y-154002530D02*
X262684867Y-154097768D01*
X262684867Y-154097768D02*
X262732486Y-154288244D01*
X262732486Y-154288244D02*
X262732486Y-154431101D01*
X262732486Y-154431101D02*
X262684867Y-154621577D01*
X262684867Y-154621577D02*
X262637248Y-154716815D01*
X262637248Y-154716815D02*
X262542010Y-154812054D01*
X262542010Y-154812054D02*
X262399153Y-154859673D01*
X262399153Y-154859673D02*
X262161058Y-154859673D01*
X263637248Y-153859673D02*
X263161058Y-153859673D01*
X263161058Y-153859673D02*
X263113439Y-154335863D01*
X263113439Y-154335863D02*
X263161058Y-154288244D01*
X263161058Y-154288244D02*
X263256296Y-154240625D01*
X263256296Y-154240625D02*
X263494391Y-154240625D01*
X263494391Y-154240625D02*
X263589629Y-154288244D01*
X263589629Y-154288244D02*
X263637248Y-154335863D01*
X263637248Y-154335863D02*
X263684867Y-154431101D01*
X263684867Y-154431101D02*
X263684867Y-154669196D01*
X263684867Y-154669196D02*
X263637248Y-154764434D01*
X263637248Y-154764434D02*
X263589629Y-154812054D01*
X263589629Y-154812054D02*
X263494391Y-154859673D01*
X263494391Y-154859673D02*
X263256296Y-154859673D01*
X263256296Y-154859673D02*
X263161058Y-154812054D01*
X263161058Y-154812054D02*
X263113439Y-154764434D01*
X264637248Y-154859673D02*
X264065820Y-154859673D01*
X264351534Y-154859673D02*
X264351534Y-153859673D01*
X264351534Y-153859673D02*
X264256296Y-154002530D01*
X264256296Y-154002530D02*
X264161058Y-154097768D01*
X264161058Y-154097768D02*
X264065820Y-154145387D01*
X95485826Y-136240113D02*
X95485826Y-135240113D01*
X95485826Y-135240113D02*
X95723921Y-135240113D01*
X95723921Y-135240113D02*
X95866778Y-135287732D01*
X95866778Y-135287732D02*
X95962016Y-135382970D01*
X95962016Y-135382970D02*
X96009635Y-135478208D01*
X96009635Y-135478208D02*
X96057254Y-135668684D01*
X96057254Y-135668684D02*
X96057254Y-135811541D01*
X96057254Y-135811541D02*
X96009635Y-136002017D01*
X96009635Y-136002017D02*
X95962016Y-136097255D01*
X95962016Y-136097255D02*
X95866778Y-136192494D01*
X95866778Y-136192494D02*
X95723921Y-136240113D01*
X95723921Y-136240113D02*
X95485826Y-136240113D01*
X97009635Y-136240113D02*
X96438207Y-136240113D01*
X96723921Y-136240113D02*
X96723921Y-135240113D01*
X96723921Y-135240113D02*
X96628683Y-135382970D01*
X96628683Y-135382970D02*
X96533445Y-135478208D01*
X96533445Y-135478208D02*
X96438207Y-135525827D01*
X97866778Y-135573446D02*
X97866778Y-136240113D01*
X97628683Y-135192494D02*
X97390588Y-135906779D01*
X97390588Y-135906779D02*
X98009635Y-135906779D01*
X106462017Y-117620613D02*
X106462017Y-116620613D01*
X106462017Y-116620613D02*
X106700112Y-116620613D01*
X106700112Y-116620613D02*
X106842969Y-116668232D01*
X106842969Y-116668232D02*
X106938207Y-116763470D01*
X106938207Y-116763470D02*
X106985826Y-116858708D01*
X106985826Y-116858708D02*
X107033445Y-117049184D01*
X107033445Y-117049184D02*
X107033445Y-117192041D01*
X107033445Y-117192041D02*
X106985826Y-117382517D01*
X106985826Y-117382517D02*
X106938207Y-117477755D01*
X106938207Y-117477755D02*
X106842969Y-117572994D01*
X106842969Y-117572994D02*
X106700112Y-117620613D01*
X106700112Y-117620613D02*
X106462017Y-117620613D01*
X107604874Y-117049184D02*
X107509636Y-117001565D01*
X107509636Y-117001565D02*
X107462017Y-116953946D01*
X107462017Y-116953946D02*
X107414398Y-116858708D01*
X107414398Y-116858708D02*
X107414398Y-116811089D01*
X107414398Y-116811089D02*
X107462017Y-116715851D01*
X107462017Y-116715851D02*
X107509636Y-116668232D01*
X107509636Y-116668232D02*
X107604874Y-116620613D01*
X107604874Y-116620613D02*
X107795350Y-116620613D01*
X107795350Y-116620613D02*
X107890588Y-116668232D01*
X107890588Y-116668232D02*
X107938207Y-116715851D01*
X107938207Y-116715851D02*
X107985826Y-116811089D01*
X107985826Y-116811089D02*
X107985826Y-116858708D01*
X107985826Y-116858708D02*
X107938207Y-116953946D01*
X107938207Y-116953946D02*
X107890588Y-117001565D01*
X107890588Y-117001565D02*
X107795350Y-117049184D01*
X107795350Y-117049184D02*
X107604874Y-117049184D01*
X107604874Y-117049184D02*
X107509636Y-117096803D01*
X107509636Y-117096803D02*
X107462017Y-117144422D01*
X107462017Y-117144422D02*
X107414398Y-117239660D01*
X107414398Y-117239660D02*
X107414398Y-117430136D01*
X107414398Y-117430136D02*
X107462017Y-117525374D01*
X107462017Y-117525374D02*
X107509636Y-117572994D01*
X107509636Y-117572994D02*
X107604874Y-117620613D01*
X107604874Y-117620613D02*
X107795350Y-117620613D01*
X107795350Y-117620613D02*
X107890588Y-117572994D01*
X107890588Y-117572994D02*
X107938207Y-117525374D01*
X107938207Y-117525374D02*
X107985826Y-117430136D01*
X107985826Y-117430136D02*
X107985826Y-117239660D01*
X107985826Y-117239660D02*
X107938207Y-117144422D01*
X107938207Y-117144422D02*
X107890588Y-117096803D01*
X107890588Y-117096803D02*
X107795350Y-117049184D01*
X159735826Y-173479213D02*
X159735826Y-172479213D01*
X159735826Y-172479213D02*
X159973921Y-172479213D01*
X159973921Y-172479213D02*
X160116778Y-172526832D01*
X160116778Y-172526832D02*
X160212016Y-172622070D01*
X160212016Y-172622070D02*
X160259635Y-172717308D01*
X160259635Y-172717308D02*
X160307254Y-172907784D01*
X160307254Y-172907784D02*
X160307254Y-173050641D01*
X160307254Y-173050641D02*
X160259635Y-173241117D01*
X160259635Y-173241117D02*
X160212016Y-173336355D01*
X160212016Y-173336355D02*
X160116778Y-173431594D01*
X160116778Y-173431594D02*
X159973921Y-173479213D01*
X159973921Y-173479213D02*
X159735826Y-173479213D01*
X160688207Y-172574451D02*
X160735826Y-172526832D01*
X160735826Y-172526832D02*
X160831064Y-172479213D01*
X160831064Y-172479213D02*
X161069159Y-172479213D01*
X161069159Y-172479213D02*
X161164397Y-172526832D01*
X161164397Y-172526832D02*
X161212016Y-172574451D01*
X161212016Y-172574451D02*
X161259635Y-172669689D01*
X161259635Y-172669689D02*
X161259635Y-172764927D01*
X161259635Y-172764927D02*
X161212016Y-172907784D01*
X161212016Y-172907784D02*
X160640588Y-173479213D01*
X160640588Y-173479213D02*
X161259635Y-173479213D01*
X161592969Y-172479213D02*
X162259635Y-172479213D01*
X162259635Y-172479213D02*
X161831064Y-173479213D01*
D11*
%TO.C,D36*%
X341110344Y-97546210D02*
X341110344Y-95546210D01*
X341110344Y-97546210D02*
X337100344Y-97546210D01*
X341110344Y-95546210D02*
X337100344Y-95546210D01*
%TO.C,D5*%
X163560112Y-97546294D02*
X163560112Y-95546294D01*
X163560112Y-97546294D02*
X159550112Y-97546294D01*
X163560112Y-95546294D02*
X159550112Y-95546294D01*
%TO.C,D52*%
X287110344Y-153404854D02*
X287110344Y-151404854D01*
X287110344Y-153404854D02*
X283100344Y-153404854D01*
X287110344Y-151404854D02*
X283100344Y-151404854D01*
%TO.C,D37*%
X222860344Y-116165758D02*
X222860344Y-114165758D01*
X222860344Y-116165758D02*
X218850344Y-116165758D01*
X222860344Y-114165758D02*
X218850344Y-114165758D01*
%TO.C,MB5*%
X206000312Y-145889306D02*
X205125312Y-147404850D01*
X206000312Y-145889306D02*
X207750312Y-145889306D01*
X206000312Y-148920394D02*
X205125312Y-147404850D01*
X206000312Y-148920394D02*
X207750312Y-148920394D01*
X208625312Y-147404850D02*
X207750312Y-145889306D01*
X208625312Y-147404850D02*
X207750312Y-148920394D01*
%TO.C,D46*%
X298110344Y-134785306D02*
X298110344Y-132785306D01*
X298110344Y-134785306D02*
X294100344Y-134785306D01*
X298110344Y-132785306D02*
X294100344Y-132785306D01*
%TO.C,D44*%
X255110344Y-134785306D02*
X255110344Y-132785306D01*
X255110344Y-134785306D02*
X251100344Y-134785306D01*
X255110344Y-132785306D02*
X251100344Y-132785306D01*
%TO.C,D3*%
X120310112Y-97546294D02*
X120310112Y-95546294D01*
X120310112Y-97546294D02*
X116300112Y-97546294D01*
X120310112Y-95546294D02*
X116300112Y-95546294D01*
%TO.C,D53*%
X308860344Y-153404854D02*
X308860344Y-151404854D01*
X308860344Y-153404854D02*
X304850344Y-153404854D01*
X308860344Y-151404854D02*
X304850344Y-151404854D01*
%TO.C,D55*%
X233485344Y-209263498D02*
X233485344Y-207263498D01*
X233485344Y-209263498D02*
X229475344Y-209263498D01*
X233485344Y-207263498D02*
X229475344Y-207263498D01*
%TO.C,D23*%
X174310112Y-153404894D02*
X174310112Y-151404894D01*
X174310112Y-153404894D02*
X170300112Y-153404894D01*
X174310112Y-151404894D02*
X170300112Y-151404894D01*
%TO.C,D6*%
X184810112Y-97546294D02*
X184810112Y-95546294D01*
X184810112Y-97546294D02*
X180800112Y-97546294D01*
X184810112Y-95546294D02*
X180800112Y-95546294D01*
%TO.C,D1*%
X77310112Y-97546294D02*
X77310112Y-95546294D01*
X77310112Y-97546294D02*
X73300112Y-97546294D01*
X77310112Y-95546294D02*
X73300112Y-95546294D01*
%TO.C,D25*%
X120560112Y-172024394D02*
X120560112Y-170024394D01*
X120560112Y-172024394D02*
X116550112Y-172024394D01*
X120560112Y-170024394D02*
X116550112Y-170024394D01*
%TO.C,D42*%
X330360344Y-116165758D02*
X330360344Y-114165758D01*
X330360344Y-116165758D02*
X326350344Y-116165758D01*
X330360344Y-114165758D02*
X326350344Y-114165758D01*
%TO.C,D58*%
X255110344Y-172024402D02*
X255110344Y-170024402D01*
X255110344Y-172024402D02*
X251100344Y-172024402D01*
X255110344Y-170024402D02*
X251100344Y-170024402D01*
%TO.C,D60*%
X298110344Y-172024402D02*
X298110344Y-170024402D01*
X298110344Y-172024402D02*
X294100344Y-172024402D01*
X298110344Y-170024402D02*
X294100344Y-170024402D01*
%TO.C,D34*%
X298110344Y-97546210D02*
X298110344Y-95546210D01*
X298110344Y-97546210D02*
X294100344Y-97546210D01*
X298110344Y-95546210D02*
X294100344Y-95546210D01*
%TO.C,D41*%
X308860344Y-116165758D02*
X308860344Y-114165758D01*
X308860344Y-116165758D02*
X304850344Y-116165758D01*
X308860344Y-114165758D02*
X304850344Y-114165758D01*
%TO.C,D18*%
X185060112Y-134785294D02*
X185060112Y-132785294D01*
X185060112Y-134785294D02*
X181050112Y-134785294D01*
X185060112Y-132785294D02*
X181050112Y-132785294D01*
%TO.C,D4*%
X142060112Y-97546294D02*
X142060112Y-95546294D01*
X142060112Y-97546294D02*
X138050112Y-97546294D01*
X142060112Y-95546294D02*
X138050112Y-95546294D01*
%TO.C,D40*%
X287360344Y-116165758D02*
X287360344Y-114165758D01*
X287360344Y-116165758D02*
X283350344Y-116165758D01*
X287360344Y-114165758D02*
X283350344Y-114165758D01*
%TO.C,D9*%
X131310112Y-116165794D02*
X131310112Y-114165794D01*
X131310112Y-116165794D02*
X127300112Y-116165794D01*
X131310112Y-114165794D02*
X127300112Y-114165794D01*
%TO.C,D33*%
X276610344Y-97546210D02*
X276610344Y-95546210D01*
X276610344Y-97546210D02*
X272600344Y-97546210D01*
X276610344Y-95546210D02*
X272600344Y-95546210D01*
%TO.C,D28*%
X185060112Y-172024394D02*
X185060112Y-170024394D01*
X185060112Y-172024394D02*
X181050112Y-172024394D01*
X185060112Y-170024394D02*
X181050112Y-170024394D01*
%TO.C,D20*%
X109810112Y-153404894D02*
X109810112Y-151404894D01*
X109810112Y-153404894D02*
X105800112Y-153404894D01*
X109810112Y-151404894D02*
X105800112Y-151404894D01*
%TO.C,D54*%
X330360344Y-153404854D02*
X330360344Y-151404854D01*
X330360344Y-153404854D02*
X326350344Y-153404854D01*
X330360344Y-151404854D02*
X326350344Y-151404854D01*
%TO.C,D50*%
X244360344Y-153404854D02*
X244360344Y-151404854D01*
X244360344Y-153404854D02*
X240350344Y-153404854D01*
X244360344Y-151404854D02*
X240350344Y-151404854D01*
%TO.C,D10*%
X152810112Y-116165794D02*
X152810112Y-114165794D01*
X152810112Y-116165794D02*
X148800112Y-116165794D01*
X152810112Y-114165794D02*
X148800112Y-114165794D01*
%TO.C,D7*%
X88310112Y-116165794D02*
X88310112Y-114165794D01*
X88310112Y-116165794D02*
X84300112Y-116165794D01*
X88310112Y-114165794D02*
X84300112Y-114165794D01*
%TO.C,D2*%
X98810112Y-97546294D02*
X98810112Y-95546294D01*
X98810112Y-97546294D02*
X94800112Y-97546294D01*
X98810112Y-95546294D02*
X94800112Y-95546294D01*
%TO.C,D26*%
X142060112Y-172024394D02*
X142060112Y-170024394D01*
X142060112Y-172024394D02*
X138050112Y-172024394D01*
X142060112Y-170024394D02*
X138050112Y-170024394D01*
%TO.C,D49*%
X222860344Y-153404854D02*
X222860344Y-151404854D01*
X222860344Y-153404854D02*
X218850344Y-153404854D01*
X222860344Y-151404854D02*
X218850344Y-151404854D01*
%TO.C,D38*%
X244360344Y-116165758D02*
X244360344Y-114165758D01*
X244360344Y-116165758D02*
X240350344Y-116165758D01*
X244360344Y-114165758D02*
X240350344Y-114165758D01*
%TO.C,D19*%
X88310112Y-153404894D02*
X88310112Y-151404894D01*
X88310112Y-153404894D02*
X84300112Y-153404894D01*
X88310112Y-151404894D02*
X84300112Y-151404894D01*
%TO.C,D12*%
X195810112Y-116165794D02*
X195810112Y-114165794D01*
X195810112Y-116165794D02*
X191800112Y-116165794D01*
X195810112Y-114165794D02*
X191800112Y-114165794D01*
%TO.C,D17*%
X163560112Y-134785294D02*
X163560112Y-132785294D01*
X163560112Y-134785294D02*
X159550112Y-134785294D01*
X163560112Y-132785294D02*
X159550112Y-132785294D01*
%TO.C,D39*%
X265860344Y-116165758D02*
X265860344Y-114165758D01*
X265860344Y-116165758D02*
X261850344Y-116165758D01*
X265860344Y-114165758D02*
X261850344Y-114165758D01*
%TO.C,D16*%
X141810112Y-134785294D02*
X141810112Y-132785294D01*
X141810112Y-134785294D02*
X137800112Y-134785294D01*
X141810112Y-132785294D02*
X137800112Y-132785294D01*
%TO.C,D22*%
X152810112Y-153404894D02*
X152810112Y-151404894D01*
X152810112Y-153404894D02*
X148800112Y-153404894D01*
X152810112Y-151404894D02*
X148800112Y-151404894D01*
%TO.C,D11*%
X174310112Y-116165794D02*
X174310112Y-114165794D01*
X174310112Y-116165794D02*
X170300112Y-116165794D01*
X174310112Y-114165794D02*
X170300112Y-114165794D01*
%TO.C,D57*%
X233610344Y-172024402D02*
X233610344Y-170024402D01*
X233610344Y-172024402D02*
X229600344Y-172024402D01*
X233610344Y-170024402D02*
X229600344Y-170024402D01*
%TO.C,D32*%
X255110344Y-97546210D02*
X255110344Y-95546210D01*
X255110344Y-97546210D02*
X251100344Y-97546210D01*
X255110344Y-95546210D02*
X251100344Y-95546210D01*
%TO.C,D35*%
X319485344Y-97546210D02*
X319485344Y-95546210D01*
X319485344Y-97546210D02*
X315475344Y-97546210D01*
X319485344Y-95546210D02*
X315475344Y-95546210D01*
%TO.C,D48*%
X341110344Y-134785306D02*
X341110344Y-132785306D01*
X341110344Y-134785306D02*
X337100344Y-134785306D01*
X341110344Y-132785306D02*
X337100344Y-132785306D01*
%TO.C,D24*%
X195810112Y-153404894D02*
X195810112Y-151404894D01*
X195810112Y-153404894D02*
X191800112Y-153404894D01*
X195810112Y-151404894D02*
X191800112Y-151404894D01*
%TO.C,D45*%
X276610344Y-134785306D02*
X276610344Y-132785306D01*
X276610344Y-134785306D02*
X272600344Y-134785306D01*
X276610344Y-132785306D02*
X272600344Y-132785306D01*
%TO.C,D29*%
X195810112Y-190643994D02*
X195810112Y-188643994D01*
X195810112Y-190643994D02*
X191800112Y-190643994D01*
X195810112Y-188643994D02*
X191800112Y-188643994D01*
%TO.C,D47*%
X319610344Y-134785306D02*
X319610344Y-132785306D01*
X319610344Y-134785306D02*
X315600344Y-134785306D01*
X319610344Y-132785306D02*
X315600344Y-132785306D01*
%TO.C,D59*%
X276610344Y-172024402D02*
X276610344Y-170024402D01*
X276610344Y-172024402D02*
X272600344Y-172024402D01*
X276610344Y-170024402D02*
X272600344Y-170024402D01*
%TO.C,D13*%
X77560112Y-134785294D02*
X77560112Y-132785294D01*
X77560112Y-134785294D02*
X73550112Y-134785294D01*
X77560112Y-132785294D02*
X73550112Y-132785294D01*
%TO.C,D56*%
X222610344Y-190643950D02*
X222610344Y-188643950D01*
X222610344Y-190643950D02*
X218600344Y-190643950D01*
X222610344Y-188643950D02*
X218600344Y-188643950D01*
%TO.C,D43*%
X233610344Y-134785306D02*
X233610344Y-132785306D01*
X233610344Y-134785306D02*
X229600344Y-134785306D01*
X233610344Y-132785306D02*
X229600344Y-132785306D01*
%TO.C,D31*%
X233610344Y-97546210D02*
X233610344Y-95546210D01*
X233610344Y-97546210D02*
X229600344Y-97546210D01*
X233610344Y-95546210D02*
X229600344Y-95546210D01*
%TO.C,D30*%
X185060112Y-209263494D02*
X185060112Y-207263494D01*
X185060112Y-209263494D02*
X181050112Y-209263494D01*
X185060112Y-207263494D02*
X181050112Y-207263494D01*
%TO.C,D21*%
X131310112Y-153404894D02*
X131310112Y-151404894D01*
X131310112Y-153404894D02*
X127300112Y-153404894D01*
X131310112Y-151404894D02*
X127300112Y-151404894D01*
%TO.C,D15*%
X120560112Y-134785294D02*
X120560112Y-132785294D01*
X120560112Y-134785294D02*
X116550112Y-134785294D01*
X120560112Y-132785294D02*
X116550112Y-132785294D01*
%TO.C,D51*%
X265735344Y-153404854D02*
X265735344Y-151404854D01*
X265735344Y-153404854D02*
X261725344Y-153404854D01*
X265735344Y-151404854D02*
X261725344Y-151404854D01*
%TO.C,D14*%
X99060112Y-134785294D02*
X99060112Y-132785294D01*
X99060112Y-134785294D02*
X95050112Y-134785294D01*
X99060112Y-132785294D02*
X95050112Y-132785294D01*
%TO.C,D8*%
X109560112Y-116165794D02*
X109560112Y-114165794D01*
X109560112Y-116165794D02*
X105550112Y-116165794D01*
X109560112Y-114165794D02*
X105550112Y-114165794D01*
%TO.C,D27*%
X163310112Y-172024394D02*
X163310112Y-170024394D01*
X163310112Y-172024394D02*
X159300112Y-172024394D01*
X163310112Y-170024394D02*
X159300112Y-170024394D01*
D10*
%TO.C,S23*%
X162275113Y-143551081D02*
X162275113Y-151258707D01*
X163775112Y-153856783D02*
X170450113Y-157710596D01*
X170450112Y-137099192D02*
X163775112Y-140953005D01*
X173450112Y-157710596D02*
X180125111Y-153856783D01*
X180125112Y-140953005D02*
X173450111Y-137099192D01*
X181625111Y-151258707D02*
X181625112Y-143551081D01*
X163775112Y-140953005D02*
G75*
G03*
X162275112Y-143551081I1500009J-2598082D01*
G01*
X162275113Y-151258707D02*
G75*
G03*
X163775112Y-153856782I2999971J-16D01*
G01*
X173450110Y-137099193D02*
G75*
G03*
X170450112Y-137099194I-1499998J-2598076D01*
G01*
X170450114Y-157710595D02*
G75*
G03*
X173450112Y-157710594I1499998J2598076D01*
G01*
X181625123Y-143551081D02*
G75*
G03*
X180125112Y-140953005I-3000011J-13D01*
G01*
X180125113Y-153856787D02*
G75*
G03*
X181625111Y-151258707I-1500051J2598103D01*
G01*
%TO.C,S54*%
X318325345Y-143551041D02*
X318325345Y-151258667D01*
X319825344Y-153856743D02*
X326500345Y-157710556D01*
X326500344Y-137099152D02*
X319825344Y-140952965D01*
X329500344Y-157710556D02*
X336175343Y-153856743D01*
X336175344Y-140952965D02*
X329500343Y-137099152D01*
X337675343Y-151258667D02*
X337675344Y-143551041D01*
X319825344Y-140952965D02*
G75*
G03*
X318325344Y-143551041I1500009J-2598082D01*
G01*
X318325345Y-151258667D02*
G75*
G03*
X319825344Y-153856742I2999971J-16D01*
G01*
X329500342Y-137099153D02*
G75*
G03*
X326500344Y-137099154I-1499998J-2598076D01*
G01*
X326500346Y-157710555D02*
G75*
G03*
X329500344Y-157710554I1499998J2598076D01*
G01*
X337675355Y-143551041D02*
G75*
G03*
X336175344Y-140952965I-3000011J-13D01*
G01*
X336175345Y-153856747D02*
G75*
G03*
X337675343Y-151258667I-1500051J2598103D01*
G01*
%TO.C,S29*%
X183775113Y-180790181D02*
X183775113Y-188497807D01*
X185275112Y-191095883D02*
X191950113Y-194949696D01*
X191950112Y-174338292D02*
X185275112Y-178192105D01*
X194950112Y-194949696D02*
X201625111Y-191095883D01*
X201625112Y-178192105D02*
X194950111Y-174338292D01*
X203125111Y-188497807D02*
X203125112Y-180790181D01*
X185275112Y-178192105D02*
G75*
G03*
X183775112Y-180790181I1500009J-2598082D01*
G01*
X183775113Y-188497807D02*
G75*
G03*
X185275112Y-191095882I2999971J-16D01*
G01*
X194950110Y-174338293D02*
G75*
G03*
X191950112Y-174338294I-1499998J-2598076D01*
G01*
X191950114Y-194949695D02*
G75*
G03*
X194950112Y-194949694I1499998J2598076D01*
G01*
X203125123Y-180790181D02*
G75*
G03*
X201625112Y-178192105I-3000011J-13D01*
G01*
X201625113Y-191095887D02*
G75*
G03*
X203125111Y-188497807I-1500051J2598103D01*
G01*
%TO.C,S37*%
X210825345Y-106311945D02*
X210825345Y-114019571D01*
X212325344Y-116617647D02*
X219000345Y-120471460D01*
X219000344Y-99860056D02*
X212325344Y-103713869D01*
X222000344Y-120471460D02*
X228675343Y-116617647D01*
X228675344Y-103713869D02*
X222000343Y-99860056D01*
X230175343Y-114019571D02*
X230175344Y-106311945D01*
X212325344Y-103713869D02*
G75*
G03*
X210825344Y-106311945I1500009J-2598082D01*
G01*
X210825345Y-114019571D02*
G75*
G03*
X212325344Y-116617646I2999971J-16D01*
G01*
X222000342Y-99860057D02*
G75*
G03*
X219000344Y-99860058I-1499998J-2598076D01*
G01*
X219000346Y-120471459D02*
G75*
G03*
X222000344Y-120471458I1499998J2598076D01*
G01*
X230175355Y-106311945D02*
G75*
G03*
X228675344Y-103713869I-3000011J-13D01*
G01*
X228675345Y-116617651D02*
G75*
G03*
X230175343Y-114019571I-1500051J2598103D01*
G01*
%TO.C,S39*%
X253825345Y-106311945D02*
X253825345Y-114019571D01*
X255325344Y-116617647D02*
X262000345Y-120471460D01*
X262000344Y-99860056D02*
X255325344Y-103713869D01*
X265000344Y-120471460D02*
X271675343Y-116617647D01*
X271675344Y-103713869D02*
X265000343Y-99860056D01*
X273175343Y-114019571D02*
X273175344Y-106311945D01*
X255325344Y-103713869D02*
G75*
G03*
X253825344Y-106311945I1500009J-2598082D01*
G01*
X253825345Y-114019571D02*
G75*
G03*
X255325344Y-116617646I2999971J-16D01*
G01*
X265000342Y-99860057D02*
G75*
G03*
X262000344Y-99860058I-1499998J-2598076D01*
G01*
X262000346Y-120471459D02*
G75*
G03*
X265000344Y-120471458I1499998J2598076D01*
G01*
X273175355Y-106311945D02*
G75*
G03*
X271675344Y-103713869I-3000011J-13D01*
G01*
X271675345Y-116617651D02*
G75*
G03*
X273175343Y-114019571I-1500051J2598103D01*
G01*
%TO.C,S36*%
X329075345Y-87692397D02*
X329075345Y-95400023D01*
X330575344Y-97998099D02*
X337250345Y-101851912D01*
X337250344Y-81240508D02*
X330575344Y-85094321D01*
X340250344Y-101851912D02*
X346925343Y-97998099D01*
X346925344Y-85094321D02*
X340250343Y-81240508D01*
X348425343Y-95400023D02*
X348425344Y-87692397D01*
X330575344Y-85094321D02*
G75*
G03*
X329075344Y-87692397I1500009J-2598082D01*
G01*
X329075345Y-95400023D02*
G75*
G03*
X330575344Y-97998098I2999971J-16D01*
G01*
X340250342Y-81240509D02*
G75*
G03*
X337250344Y-81240510I-1499998J-2598076D01*
G01*
X337250346Y-101851911D02*
G75*
G03*
X340250344Y-101851910I1499998J2598076D01*
G01*
X348425355Y-87692397D02*
G75*
G03*
X346925344Y-85094321I-3000011J-13D01*
G01*
X346925345Y-97998103D02*
G75*
G03*
X348425343Y-95400023I-1500051J2598103D01*
G01*
%TO.C,S38*%
X232325345Y-106311945D02*
X232325345Y-114019571D01*
X233825344Y-116617647D02*
X240500345Y-120471460D01*
X240500344Y-99860056D02*
X233825344Y-103713869D01*
X243500344Y-120471460D02*
X250175343Y-116617647D01*
X250175344Y-103713869D02*
X243500343Y-99860056D01*
X251675343Y-114019571D02*
X251675344Y-106311945D01*
X233825344Y-103713869D02*
G75*
G03*
X232325344Y-106311945I1500009J-2598082D01*
G01*
X232325345Y-114019571D02*
G75*
G03*
X233825344Y-116617646I2999971J-16D01*
G01*
X243500342Y-99860057D02*
G75*
G03*
X240500344Y-99860058I-1499998J-2598076D01*
G01*
X240500346Y-120471459D02*
G75*
G03*
X243500344Y-120471458I1499998J2598076D01*
G01*
X251675355Y-106311945D02*
G75*
G03*
X250175344Y-103713869I-3000011J-13D01*
G01*
X250175345Y-116617651D02*
G75*
G03*
X251675343Y-114019571I-1500051J2598103D01*
G01*
%TO.C,S34*%
X286075345Y-87692397D02*
X286075345Y-95400023D01*
X287575344Y-97998099D02*
X294250345Y-101851912D01*
X294250344Y-81240508D02*
X287575344Y-85094321D01*
X297250344Y-101851912D02*
X303925343Y-97998099D01*
X303925344Y-85094321D02*
X297250343Y-81240508D01*
X305425343Y-95400023D02*
X305425344Y-87692397D01*
X287575344Y-85094321D02*
G75*
G03*
X286075344Y-87692397I1500009J-2598082D01*
G01*
X286075345Y-95400023D02*
G75*
G03*
X287575344Y-97998098I2999971J-16D01*
G01*
X297250342Y-81240509D02*
G75*
G03*
X294250344Y-81240510I-1499998J-2598076D01*
G01*
X294250346Y-101851911D02*
G75*
G03*
X297250344Y-101851910I1499998J2598076D01*
G01*
X305425355Y-87692397D02*
G75*
G03*
X303925344Y-85094321I-3000011J-13D01*
G01*
X303925345Y-97998103D02*
G75*
G03*
X305425343Y-95400023I-1500051J2598103D01*
G01*
%TO.C,S50*%
X232325345Y-143551041D02*
X232325345Y-151258667D01*
X233825344Y-153856743D02*
X240500345Y-157710556D01*
X240500344Y-137099152D02*
X233825344Y-140952965D01*
X243500344Y-157710556D02*
X250175343Y-153856743D01*
X250175344Y-140952965D02*
X243500343Y-137099152D01*
X251675343Y-151258667D02*
X251675344Y-143551041D01*
X233825344Y-140952965D02*
G75*
G03*
X232325344Y-143551041I1500009J-2598082D01*
G01*
X232325345Y-151258667D02*
G75*
G03*
X233825344Y-153856742I2999971J-16D01*
G01*
X243500342Y-137099153D02*
G75*
G03*
X240500344Y-137099154I-1499998J-2598076D01*
G01*
X240500346Y-157710555D02*
G75*
G03*
X243500344Y-157710554I1499998J2598076D01*
G01*
X251675355Y-143551041D02*
G75*
G03*
X250175344Y-140952965I-3000011J-13D01*
G01*
X250175345Y-153856747D02*
G75*
G03*
X251675343Y-151258667I-1500051J2598103D01*
G01*
%TO.C,S47*%
X307575345Y-124931493D02*
X307575345Y-132639119D01*
X309075344Y-135237195D02*
X315750345Y-139091008D01*
X315750344Y-118479604D02*
X309075344Y-122333417D01*
X318750344Y-139091008D02*
X325425343Y-135237195D01*
X325425344Y-122333417D02*
X318750343Y-118479604D01*
X326925343Y-132639119D02*
X326925344Y-124931493D01*
X309075344Y-122333417D02*
G75*
G03*
X307575344Y-124931493I1500009J-2598082D01*
G01*
X307575345Y-132639119D02*
G75*
G03*
X309075344Y-135237194I2999971J-16D01*
G01*
X318750342Y-118479605D02*
G75*
G03*
X315750344Y-118479606I-1499998J-2598076D01*
G01*
X315750346Y-139091007D02*
G75*
G03*
X318750344Y-139091006I1499998J2598076D01*
G01*
X326925355Y-124931493D02*
G75*
G03*
X325425344Y-122333417I-3000011J-13D01*
G01*
X325425345Y-135237199D02*
G75*
G03*
X326925343Y-132639119I-1500051J2598103D01*
G01*
%TO.C,S19*%
X76275113Y-143551081D02*
X76275113Y-151258707D01*
X77775112Y-153856783D02*
X84450113Y-157710596D01*
X84450112Y-137099192D02*
X77775112Y-140953005D01*
X87450112Y-157710596D02*
X94125111Y-153856783D01*
X94125112Y-140953005D02*
X87450111Y-137099192D01*
X95625111Y-151258707D02*
X95625112Y-143551081D01*
X77775112Y-140953005D02*
G75*
G03*
X76275112Y-143551081I1500009J-2598082D01*
G01*
X76275113Y-151258707D02*
G75*
G03*
X77775112Y-153856782I2999971J-16D01*
G01*
X87450110Y-137099193D02*
G75*
G03*
X84450112Y-137099194I-1499998J-2598076D01*
G01*
X84450114Y-157710595D02*
G75*
G03*
X87450112Y-157710594I1499998J2598076D01*
G01*
X95625123Y-143551081D02*
G75*
G03*
X94125112Y-140953005I-3000011J-13D01*
G01*
X94125113Y-153856787D02*
G75*
G03*
X95625111Y-151258707I-1500051J2598103D01*
G01*
%TO.C,S60*%
X286075345Y-162170589D02*
X286075345Y-169878215D01*
X287575344Y-172476291D02*
X294250345Y-176330104D01*
X294250344Y-155718700D02*
X287575344Y-159572513D01*
X297250344Y-176330104D02*
X303925343Y-172476291D01*
X303925344Y-159572513D02*
X297250343Y-155718700D01*
X305425343Y-169878215D02*
X305425344Y-162170589D01*
X287575344Y-159572513D02*
G75*
G03*
X286075344Y-162170589I1500009J-2598082D01*
G01*
X286075345Y-169878215D02*
G75*
G03*
X287575344Y-172476290I2999971J-16D01*
G01*
X297250342Y-155718701D02*
G75*
G03*
X294250344Y-155718702I-1499998J-2598076D01*
G01*
X294250346Y-176330103D02*
G75*
G03*
X297250344Y-176330102I1499998J2598076D01*
G01*
X305425355Y-162170589D02*
G75*
G03*
X303925344Y-159572513I-3000011J-13D01*
G01*
X303925345Y-172476295D02*
G75*
G03*
X305425343Y-169878215I-1500051J2598103D01*
G01*
%TO.C,S6*%
X172775113Y-87692481D02*
X172775113Y-95400107D01*
X174275112Y-97998183D02*
X180950113Y-101851996D01*
X180950112Y-81240592D02*
X174275112Y-85094405D01*
X183950112Y-101851996D02*
X190625111Y-97998183D01*
X190625112Y-85094405D02*
X183950111Y-81240592D01*
X192125111Y-95400107D02*
X192125112Y-87692481D01*
X174275112Y-85094405D02*
G75*
G03*
X172775112Y-87692481I1500009J-2598082D01*
G01*
X172775113Y-95400107D02*
G75*
G03*
X174275112Y-97998182I2999971J-16D01*
G01*
X183950110Y-81240593D02*
G75*
G03*
X180950112Y-81240594I-1499998J-2598076D01*
G01*
X180950114Y-101851995D02*
G75*
G03*
X183950112Y-101851994I1499998J2598076D01*
G01*
X192125123Y-87692481D02*
G75*
G03*
X190625112Y-85094405I-3000011J-13D01*
G01*
X190625113Y-97998187D02*
G75*
G03*
X192125111Y-95400107I-1500051J2598103D01*
G01*
%TO.C,S4*%
X130025113Y-87692481D02*
X130025113Y-95400107D01*
X131525112Y-97998183D02*
X138200113Y-101851996D01*
X138200112Y-81240592D02*
X131525112Y-85094405D01*
X141200112Y-101851996D02*
X147875111Y-97998183D01*
X147875112Y-85094405D02*
X141200111Y-81240592D01*
X149375111Y-95400107D02*
X149375112Y-87692481D01*
X131525112Y-85094405D02*
G75*
G03*
X130025112Y-87692481I1500009J-2598082D01*
G01*
X130025113Y-95400107D02*
G75*
G03*
X131525112Y-97998182I2999971J-16D01*
G01*
X141200110Y-81240593D02*
G75*
G03*
X138200112Y-81240594I-1499998J-2598076D01*
G01*
X138200114Y-101851995D02*
G75*
G03*
X141200112Y-101851994I1499998J2598076D01*
G01*
X149375123Y-87692481D02*
G75*
G03*
X147875112Y-85094405I-3000011J-13D01*
G01*
X147875113Y-97998187D02*
G75*
G03*
X149375111Y-95400107I-1500051J2598103D01*
G01*
%TO.C,S17*%
X151525113Y-124931481D02*
X151525113Y-132639107D01*
X153025112Y-135237183D02*
X159700113Y-139090996D01*
X159700112Y-118479592D02*
X153025112Y-122333405D01*
X162700112Y-139090996D02*
X169375111Y-135237183D01*
X169375112Y-122333405D02*
X162700111Y-118479592D01*
X170875111Y-132639107D02*
X170875112Y-124931481D01*
X153025112Y-122333405D02*
G75*
G03*
X151525112Y-124931481I1500009J-2598082D01*
G01*
X151525113Y-132639107D02*
G75*
G03*
X153025112Y-135237182I2999971J-16D01*
G01*
X162700110Y-118479593D02*
G75*
G03*
X159700112Y-118479594I-1499998J-2598076D01*
G01*
X159700114Y-139090995D02*
G75*
G03*
X162700112Y-139090994I1499998J2598076D01*
G01*
X170875123Y-124931481D02*
G75*
G03*
X169375112Y-122333405I-3000011J-13D01*
G01*
X169375113Y-135237187D02*
G75*
G03*
X170875111Y-132639107I-1500051J2598103D01*
G01*
%TO.C,S24*%
X183775113Y-143551081D02*
X183775113Y-151258707D01*
X185275112Y-153856783D02*
X191950113Y-157710596D01*
X191950112Y-137099192D02*
X185275112Y-140953005D01*
X194950112Y-157710596D02*
X201625111Y-153856783D01*
X201625112Y-140953005D02*
X194950111Y-137099192D01*
X203125111Y-151258707D02*
X203125112Y-143551081D01*
X185275112Y-140953005D02*
G75*
G03*
X183775112Y-143551081I1500009J-2598082D01*
G01*
X183775113Y-151258707D02*
G75*
G03*
X185275112Y-153856782I2999971J-16D01*
G01*
X194950110Y-137099193D02*
G75*
G03*
X191950112Y-137099194I-1499998J-2598076D01*
G01*
X191950114Y-157710595D02*
G75*
G03*
X194950112Y-157710594I1499998J2598076D01*
G01*
X203125123Y-143551081D02*
G75*
G03*
X201625112Y-140953005I-3000011J-13D01*
G01*
X201625113Y-153856787D02*
G75*
G03*
X203125111Y-151258707I-1500051J2598103D01*
G01*
%TO.C,S31*%
X221575345Y-87692397D02*
X221575345Y-95400023D01*
X223075344Y-97998099D02*
X229750345Y-101851912D01*
X229750344Y-81240508D02*
X223075344Y-85094321D01*
X232750344Y-101851912D02*
X239425343Y-97998099D01*
X239425344Y-85094321D02*
X232750343Y-81240508D01*
X240925343Y-95400023D02*
X240925344Y-87692397D01*
X223075344Y-85094321D02*
G75*
G03*
X221575344Y-87692397I1500009J-2598082D01*
G01*
X221575345Y-95400023D02*
G75*
G03*
X223075344Y-97998098I2999971J-16D01*
G01*
X232750342Y-81240509D02*
G75*
G03*
X229750344Y-81240510I-1499998J-2598076D01*
G01*
X229750346Y-101851911D02*
G75*
G03*
X232750344Y-101851910I1499998J2598076D01*
G01*
X240925355Y-87692397D02*
G75*
G03*
X239425344Y-85094321I-3000011J-13D01*
G01*
X239425345Y-97998103D02*
G75*
G03*
X240925343Y-95400023I-1500051J2598103D01*
G01*
%TO.C,S53*%
X296825345Y-143551041D02*
X296825345Y-151258667D01*
X298325344Y-153856743D02*
X305000345Y-157710556D01*
X305000344Y-137099152D02*
X298325344Y-140952965D01*
X308000344Y-157710556D02*
X314675343Y-153856743D01*
X314675344Y-140952965D02*
X308000343Y-137099152D01*
X316175343Y-151258667D02*
X316175344Y-143551041D01*
X298325344Y-140952965D02*
G75*
G03*
X296825344Y-143551041I1500009J-2598082D01*
G01*
X296825345Y-151258667D02*
G75*
G03*
X298325344Y-153856742I2999971J-16D01*
G01*
X308000342Y-137099153D02*
G75*
G03*
X305000344Y-137099154I-1499998J-2598076D01*
G01*
X305000346Y-157710555D02*
G75*
G03*
X308000344Y-157710554I1499998J2598076D01*
G01*
X316175355Y-143551041D02*
G75*
G03*
X314675344Y-140952965I-3000011J-13D01*
G01*
X314675345Y-153856747D02*
G75*
G03*
X316175343Y-151258667I-1500051J2598103D01*
G01*
%TO.C,S46*%
X286075345Y-124931493D02*
X286075345Y-132639119D01*
X287575344Y-135237195D02*
X294250345Y-139091008D01*
X294250344Y-118479604D02*
X287575344Y-122333417D01*
X297250344Y-139091008D02*
X303925343Y-135237195D01*
X303925344Y-122333417D02*
X297250343Y-118479604D01*
X305425343Y-132639119D02*
X305425344Y-124931493D01*
X287575344Y-122333417D02*
G75*
G03*
X286075344Y-124931493I1500009J-2598082D01*
G01*
X286075345Y-132639119D02*
G75*
G03*
X287575344Y-135237194I2999971J-16D01*
G01*
X297250342Y-118479605D02*
G75*
G03*
X294250344Y-118479606I-1499998J-2598076D01*
G01*
X294250346Y-139091007D02*
G75*
G03*
X297250344Y-139091006I1499998J2598076D01*
G01*
X305425355Y-124931493D02*
G75*
G03*
X303925344Y-122333417I-3000011J-13D01*
G01*
X303925345Y-135237199D02*
G75*
G03*
X305425343Y-132639119I-1500051J2598103D01*
G01*
%TO.C,S35*%
X307450345Y-87692397D02*
X307450345Y-95400023D01*
X308950344Y-97998099D02*
X315625345Y-101851912D01*
X315625344Y-81240508D02*
X308950344Y-85094321D01*
X318625344Y-101851912D02*
X325300343Y-97998099D01*
X325300344Y-85094321D02*
X318625343Y-81240508D01*
X326800343Y-95400023D02*
X326800344Y-87692397D01*
X308950344Y-85094321D02*
G75*
G03*
X307450344Y-87692397I1500009J-2598082D01*
G01*
X307450345Y-95400023D02*
G75*
G03*
X308950344Y-97998098I2999971J-16D01*
G01*
X318625342Y-81240509D02*
G75*
G03*
X315625344Y-81240510I-1499998J-2598076D01*
G01*
X315625346Y-101851911D02*
G75*
G03*
X318625344Y-101851910I1499998J2598076D01*
G01*
X326800355Y-87692397D02*
G75*
G03*
X325300344Y-85094321I-3000011J-13D01*
G01*
X325300345Y-97998103D02*
G75*
G03*
X326800343Y-95400023I-1500051J2598103D01*
G01*
%TO.C,S14*%
X87025113Y-124931481D02*
X87025113Y-132639107D01*
X88525112Y-135237183D02*
X95200113Y-139090996D01*
X95200112Y-118479592D02*
X88525112Y-122333405D01*
X98200112Y-139090996D02*
X104875111Y-135237183D01*
X104875112Y-122333405D02*
X98200111Y-118479592D01*
X106375111Y-132639107D02*
X106375112Y-124931481D01*
X88525112Y-122333405D02*
G75*
G03*
X87025112Y-124931481I1500009J-2598082D01*
G01*
X87025113Y-132639107D02*
G75*
G03*
X88525112Y-135237182I2999971J-16D01*
G01*
X98200110Y-118479593D02*
G75*
G03*
X95200112Y-118479594I-1499998J-2598076D01*
G01*
X95200114Y-139090995D02*
G75*
G03*
X98200112Y-139090994I1499998J2598076D01*
G01*
X106375123Y-124931481D02*
G75*
G03*
X104875112Y-122333405I-3000011J-13D01*
G01*
X104875113Y-135237187D02*
G75*
G03*
X106375111Y-132639107I-1500051J2598103D01*
G01*
%TO.C,S16*%
X129775113Y-124931481D02*
X129775113Y-132639107D01*
X131275112Y-135237183D02*
X137950113Y-139090996D01*
X137950112Y-118479592D02*
X131275112Y-122333405D01*
X140950112Y-139090996D02*
X147625111Y-135237183D01*
X147625112Y-122333405D02*
X140950111Y-118479592D01*
X149125111Y-132639107D02*
X149125112Y-124931481D01*
X131275112Y-122333405D02*
G75*
G03*
X129775112Y-124931481I1500009J-2598082D01*
G01*
X129775113Y-132639107D02*
G75*
G03*
X131275112Y-135237182I2999971J-16D01*
G01*
X140950110Y-118479593D02*
G75*
G03*
X137950112Y-118479594I-1499998J-2598076D01*
G01*
X137950114Y-139090995D02*
G75*
G03*
X140950112Y-139090994I1499998J2598076D01*
G01*
X149125123Y-124931481D02*
G75*
G03*
X147625112Y-122333405I-3000011J-13D01*
G01*
X147625113Y-135237187D02*
G75*
G03*
X149125111Y-132639107I-1500051J2598103D01*
G01*
%TO.C,S33*%
X264575345Y-87692397D02*
X264575345Y-95400023D01*
X266075344Y-97998099D02*
X272750345Y-101851912D01*
X272750344Y-81240508D02*
X266075344Y-85094321D01*
X275750344Y-101851912D02*
X282425343Y-97998099D01*
X282425344Y-85094321D02*
X275750343Y-81240508D01*
X283925343Y-95400023D02*
X283925344Y-87692397D01*
X266075344Y-85094321D02*
G75*
G03*
X264575344Y-87692397I1500009J-2598082D01*
G01*
X264575345Y-95400023D02*
G75*
G03*
X266075344Y-97998098I2999971J-16D01*
G01*
X275750342Y-81240509D02*
G75*
G03*
X272750344Y-81240510I-1499998J-2598076D01*
G01*
X272750346Y-101851911D02*
G75*
G03*
X275750344Y-101851910I1499998J2598076D01*
G01*
X283925355Y-87692397D02*
G75*
G03*
X282425344Y-85094321I-3000011J-13D01*
G01*
X282425345Y-97998103D02*
G75*
G03*
X283925343Y-95400023I-1500051J2598103D01*
G01*
%TO.C,S1*%
X65275113Y-87692481D02*
X65275113Y-95400107D01*
X66775112Y-97998183D02*
X73450113Y-101851996D01*
X73450112Y-81240592D02*
X66775112Y-85094405D01*
X76450112Y-101851996D02*
X83125111Y-97998183D01*
X83125112Y-85094405D02*
X76450111Y-81240592D01*
X84625111Y-95400107D02*
X84625112Y-87692481D01*
X66775112Y-85094405D02*
G75*
G03*
X65275112Y-87692481I1500009J-2598082D01*
G01*
X65275113Y-95400107D02*
G75*
G03*
X66775112Y-97998182I2999971J-16D01*
G01*
X76450110Y-81240593D02*
G75*
G03*
X73450112Y-81240594I-1499998J-2598076D01*
G01*
X73450114Y-101851995D02*
G75*
G03*
X76450112Y-101851994I1499998J2598076D01*
G01*
X84625123Y-87692481D02*
G75*
G03*
X83125112Y-85094405I-3000011J-13D01*
G01*
X83125113Y-97998187D02*
G75*
G03*
X84625111Y-95400107I-1500051J2598103D01*
G01*
%TO.C,S22*%
X140775113Y-143551081D02*
X140775113Y-151258707D01*
X142275112Y-153856783D02*
X148950113Y-157710596D01*
X148950112Y-137099192D02*
X142275112Y-140953005D01*
X151950112Y-157710596D02*
X158625111Y-153856783D01*
X158625112Y-140953005D02*
X151950111Y-137099192D01*
X160125111Y-151258707D02*
X160125112Y-143551081D01*
X142275112Y-140953005D02*
G75*
G03*
X140775112Y-143551081I1500009J-2598082D01*
G01*
X140775113Y-151258707D02*
G75*
G03*
X142275112Y-153856782I2999971J-16D01*
G01*
X151950110Y-137099193D02*
G75*
G03*
X148950112Y-137099194I-1499998J-2598076D01*
G01*
X148950114Y-157710595D02*
G75*
G03*
X151950112Y-157710594I1499998J2598076D01*
G01*
X160125123Y-143551081D02*
G75*
G03*
X158625112Y-140953005I-3000011J-13D01*
G01*
X158625113Y-153856787D02*
G75*
G03*
X160125111Y-151258707I-1500051J2598103D01*
G01*
%TO.C,S11*%
X162275113Y-106311981D02*
X162275113Y-114019607D01*
X163775112Y-116617683D02*
X170450113Y-120471496D01*
X170450112Y-99860092D02*
X163775112Y-103713905D01*
X173450112Y-120471496D02*
X180125111Y-116617683D01*
X180125112Y-103713905D02*
X173450111Y-99860092D01*
X181625111Y-114019607D02*
X181625112Y-106311981D01*
X163775112Y-103713905D02*
G75*
G03*
X162275112Y-106311981I1500009J-2598082D01*
G01*
X162275113Y-114019607D02*
G75*
G03*
X163775112Y-116617682I2999971J-16D01*
G01*
X173450110Y-99860093D02*
G75*
G03*
X170450112Y-99860094I-1499998J-2598076D01*
G01*
X170450114Y-120471495D02*
G75*
G03*
X173450112Y-120471494I1499998J2598076D01*
G01*
X181625123Y-106311981D02*
G75*
G03*
X180125112Y-103713905I-3000011J-13D01*
G01*
X180125113Y-116617687D02*
G75*
G03*
X181625111Y-114019607I-1500051J2598103D01*
G01*
%TO.C,S13*%
X65525113Y-124931481D02*
X65525113Y-132639107D01*
X67025112Y-135237183D02*
X73700113Y-139090996D01*
X73700112Y-118479592D02*
X67025112Y-122333405D01*
X76700112Y-139090996D02*
X83375111Y-135237183D01*
X83375112Y-122333405D02*
X76700111Y-118479592D01*
X84875111Y-132639107D02*
X84875112Y-124931481D01*
X67025112Y-122333405D02*
G75*
G03*
X65525112Y-124931481I1500009J-2598082D01*
G01*
X65525113Y-132639107D02*
G75*
G03*
X67025112Y-135237182I2999971J-16D01*
G01*
X76700110Y-118479593D02*
G75*
G03*
X73700112Y-118479594I-1499998J-2598076D01*
G01*
X73700114Y-139090995D02*
G75*
G03*
X76700112Y-139090994I1499998J2598076D01*
G01*
X84875123Y-124931481D02*
G75*
G03*
X83375112Y-122333405I-3000011J-13D01*
G01*
X83375113Y-135237187D02*
G75*
G03*
X84875111Y-132639107I-1500051J2598103D01*
G01*
%TO.C,S25*%
X108525113Y-162170581D02*
X108525113Y-169878207D01*
X110025112Y-172476283D02*
X116700113Y-176330096D01*
X116700112Y-155718692D02*
X110025112Y-159572505D01*
X119700112Y-176330096D02*
X126375111Y-172476283D01*
X126375112Y-159572505D02*
X119700111Y-155718692D01*
X127875111Y-169878207D02*
X127875112Y-162170581D01*
X110025112Y-159572505D02*
G75*
G03*
X108525112Y-162170581I1500009J-2598082D01*
G01*
X108525113Y-169878207D02*
G75*
G03*
X110025112Y-172476282I2999971J-16D01*
G01*
X119700110Y-155718693D02*
G75*
G03*
X116700112Y-155718694I-1499998J-2598076D01*
G01*
X116700114Y-176330095D02*
G75*
G03*
X119700112Y-176330094I1499998J2598076D01*
G01*
X127875123Y-162170581D02*
G75*
G03*
X126375112Y-159572505I-3000011J-13D01*
G01*
X126375113Y-172476287D02*
G75*
G03*
X127875111Y-169878207I-1500051J2598103D01*
G01*
%TO.C,S43*%
X221575345Y-124931493D02*
X221575345Y-132639119D01*
X223075344Y-135237195D02*
X229750345Y-139091008D01*
X229750344Y-118479604D02*
X223075344Y-122333417D01*
X232750344Y-139091008D02*
X239425343Y-135237195D01*
X239425344Y-122333417D02*
X232750343Y-118479604D01*
X240925343Y-132639119D02*
X240925344Y-124931493D01*
X223075344Y-122333417D02*
G75*
G03*
X221575344Y-124931493I1500009J-2598082D01*
G01*
X221575345Y-132639119D02*
G75*
G03*
X223075344Y-135237194I2999971J-16D01*
G01*
X232750342Y-118479605D02*
G75*
G03*
X229750344Y-118479606I-1499998J-2598076D01*
G01*
X229750346Y-139091007D02*
G75*
G03*
X232750344Y-139091006I1499998J2598076D01*
G01*
X240925355Y-124931493D02*
G75*
G03*
X239425344Y-122333417I-3000011J-13D01*
G01*
X239425345Y-135237199D02*
G75*
G03*
X240925343Y-132639119I-1500051J2598103D01*
G01*
%TO.C,S3*%
X108275113Y-87692481D02*
X108275113Y-95400107D01*
X109775112Y-97998183D02*
X116450113Y-101851996D01*
X116450112Y-81240592D02*
X109775112Y-85094405D01*
X119450112Y-101851996D02*
X126125111Y-97998183D01*
X126125112Y-85094405D02*
X119450111Y-81240592D01*
X127625111Y-95400107D02*
X127625112Y-87692481D01*
X109775112Y-85094405D02*
G75*
G03*
X108275112Y-87692481I1500009J-2598082D01*
G01*
X108275113Y-95400107D02*
G75*
G03*
X109775112Y-97998182I2999971J-16D01*
G01*
X119450110Y-81240593D02*
G75*
G03*
X116450112Y-81240594I-1499998J-2598076D01*
G01*
X116450114Y-101851995D02*
G75*
G03*
X119450112Y-101851994I1499998J2598076D01*
G01*
X127625123Y-87692481D02*
G75*
G03*
X126125112Y-85094405I-3000011J-13D01*
G01*
X126125113Y-97998187D02*
G75*
G03*
X127625111Y-95400107I-1500051J2598103D01*
G01*
%TO.C,S51*%
X253700345Y-143551041D02*
X253700345Y-151258667D01*
X255200344Y-153856743D02*
X261875345Y-157710556D01*
X261875344Y-137099152D02*
X255200344Y-140952965D01*
X264875344Y-157710556D02*
X271550343Y-153856743D01*
X271550344Y-140952965D02*
X264875343Y-137099152D01*
X273050343Y-151258667D02*
X273050344Y-143551041D01*
X255200344Y-140952965D02*
G75*
G03*
X253700344Y-143551041I1500009J-2598082D01*
G01*
X253700345Y-151258667D02*
G75*
G03*
X255200344Y-153856742I2999971J-16D01*
G01*
X264875342Y-137099153D02*
G75*
G03*
X261875344Y-137099154I-1499998J-2598076D01*
G01*
X261875346Y-157710555D02*
G75*
G03*
X264875344Y-157710554I1499998J2598076D01*
G01*
X273050355Y-143551041D02*
G75*
G03*
X271550344Y-140952965I-3000011J-13D01*
G01*
X271550345Y-153856747D02*
G75*
G03*
X273050343Y-151258667I-1500051J2598103D01*
G01*
%TO.C,S9*%
X119275113Y-106311981D02*
X119275113Y-114019607D01*
X120775112Y-116617683D02*
X127450113Y-120471496D01*
X127450112Y-99860092D02*
X120775112Y-103713905D01*
X130450112Y-120471496D02*
X137125111Y-116617683D01*
X137125112Y-103713905D02*
X130450111Y-99860092D01*
X138625111Y-114019607D02*
X138625112Y-106311981D01*
X120775112Y-103713905D02*
G75*
G03*
X119275112Y-106311981I1500009J-2598082D01*
G01*
X119275113Y-114019607D02*
G75*
G03*
X120775112Y-116617682I2999971J-16D01*
G01*
X130450110Y-99860093D02*
G75*
G03*
X127450112Y-99860094I-1499998J-2598076D01*
G01*
X127450114Y-120471495D02*
G75*
G03*
X130450112Y-120471494I1499998J2598076D01*
G01*
X138625123Y-106311981D02*
G75*
G03*
X137125112Y-103713905I-3000011J-13D01*
G01*
X137125113Y-116617687D02*
G75*
G03*
X138625111Y-114019607I-1500051J2598103D01*
G01*
%TO.C,S41*%
X296825345Y-106311945D02*
X296825345Y-114019571D01*
X298325344Y-116617647D02*
X305000345Y-120471460D01*
X305000344Y-99860056D02*
X298325344Y-103713869D01*
X308000344Y-120471460D02*
X314675343Y-116617647D01*
X314675344Y-103713869D02*
X308000343Y-99860056D01*
X316175343Y-114019571D02*
X316175344Y-106311945D01*
X298325344Y-103713869D02*
G75*
G03*
X296825344Y-106311945I1500009J-2598082D01*
G01*
X296825345Y-114019571D02*
G75*
G03*
X298325344Y-116617646I2999971J-16D01*
G01*
X308000342Y-99860057D02*
G75*
G03*
X305000344Y-99860058I-1499998J-2598076D01*
G01*
X305000346Y-120471459D02*
G75*
G03*
X308000344Y-120471458I1499998J2598076D01*
G01*
X316175355Y-106311945D02*
G75*
G03*
X314675344Y-103713869I-3000011J-13D01*
G01*
X314675345Y-116617651D02*
G75*
G03*
X316175343Y-114019571I-1500051J2598103D01*
G01*
%TO.C,S52*%
X275075345Y-143551041D02*
X275075345Y-151258667D01*
X276575344Y-153856743D02*
X283250345Y-157710556D01*
X283250344Y-137099152D02*
X276575344Y-140952965D01*
X286250344Y-157710556D02*
X292925343Y-153856743D01*
X292925344Y-140952965D02*
X286250343Y-137099152D01*
X294425343Y-151258667D02*
X294425344Y-143551041D01*
X276575344Y-140952965D02*
G75*
G03*
X275075344Y-143551041I1500009J-2598082D01*
G01*
X275075345Y-151258667D02*
G75*
G03*
X276575344Y-153856742I2999971J-16D01*
G01*
X286250342Y-137099153D02*
G75*
G03*
X283250344Y-137099154I-1499998J-2598076D01*
G01*
X283250346Y-157710555D02*
G75*
G03*
X286250344Y-157710554I1499998J2598076D01*
G01*
X294425355Y-143551041D02*
G75*
G03*
X292925344Y-140952965I-3000011J-13D01*
G01*
X292925345Y-153856747D02*
G75*
G03*
X294425343Y-151258667I-1500051J2598103D01*
G01*
%TO.C,S20*%
X97775113Y-143551081D02*
X97775113Y-151258707D01*
X99275112Y-153856783D02*
X105950113Y-157710596D01*
X105950112Y-137099192D02*
X99275112Y-140953005D01*
X108950112Y-157710596D02*
X115625111Y-153856783D01*
X115625112Y-140953005D02*
X108950111Y-137099192D01*
X117125111Y-151258707D02*
X117125112Y-143551081D01*
X99275112Y-140953005D02*
G75*
G03*
X97775112Y-143551081I1500009J-2598082D01*
G01*
X97775113Y-151258707D02*
G75*
G03*
X99275112Y-153856782I2999971J-16D01*
G01*
X108950110Y-137099193D02*
G75*
G03*
X105950112Y-137099194I-1499998J-2598076D01*
G01*
X105950114Y-157710595D02*
G75*
G03*
X108950112Y-157710594I1499998J2598076D01*
G01*
X117125123Y-143551081D02*
G75*
G03*
X115625112Y-140953005I-3000011J-13D01*
G01*
X115625113Y-153856787D02*
G75*
G03*
X117125111Y-151258707I-1500051J2598103D01*
G01*
%TO.C,S26*%
X130025113Y-162170581D02*
X130025113Y-169878207D01*
X131525112Y-172476283D02*
X138200113Y-176330096D01*
X138200112Y-155718692D02*
X131525112Y-159572505D01*
X141200112Y-176330096D02*
X147875111Y-172476283D01*
X147875112Y-159572505D02*
X141200111Y-155718692D01*
X149375111Y-169878207D02*
X149375112Y-162170581D01*
X131525112Y-159572505D02*
G75*
G03*
X130025112Y-162170581I1500009J-2598082D01*
G01*
X130025113Y-169878207D02*
G75*
G03*
X131525112Y-172476282I2999971J-16D01*
G01*
X141200110Y-155718693D02*
G75*
G03*
X138200112Y-155718694I-1499998J-2598076D01*
G01*
X138200114Y-176330095D02*
G75*
G03*
X141200112Y-176330094I1499998J2598076D01*
G01*
X149375123Y-162170581D02*
G75*
G03*
X147875112Y-159572505I-3000011J-13D01*
G01*
X147875113Y-172476287D02*
G75*
G03*
X149375111Y-169878207I-1500051J2598103D01*
G01*
%TO.C,S5*%
X151525113Y-87692481D02*
X151525113Y-95400107D01*
X153025112Y-97998183D02*
X159700113Y-101851996D01*
X159700112Y-81240592D02*
X153025112Y-85094405D01*
X162700112Y-101851996D02*
X169375111Y-97998183D01*
X169375112Y-85094405D02*
X162700111Y-81240592D01*
X170875111Y-95400107D02*
X170875112Y-87692481D01*
X153025112Y-85094405D02*
G75*
G03*
X151525112Y-87692481I1500009J-2598082D01*
G01*
X151525113Y-95400107D02*
G75*
G03*
X153025112Y-97998182I2999971J-16D01*
G01*
X162700110Y-81240593D02*
G75*
G03*
X159700112Y-81240594I-1499998J-2598076D01*
G01*
X159700114Y-101851995D02*
G75*
G03*
X162700112Y-101851994I1499998J2598076D01*
G01*
X170875123Y-87692481D02*
G75*
G03*
X169375112Y-85094405I-3000011J-13D01*
G01*
X169375113Y-97998187D02*
G75*
G03*
X170875111Y-95400107I-1500051J2598103D01*
G01*
%TO.C,S12*%
X183775113Y-106311981D02*
X183775113Y-114019607D01*
X185275112Y-116617683D02*
X191950113Y-120471496D01*
X191950112Y-99860092D02*
X185275112Y-103713905D01*
X194950112Y-120471496D02*
X201625111Y-116617683D01*
X201625112Y-103713905D02*
X194950111Y-99860092D01*
X203125111Y-114019607D02*
X203125112Y-106311981D01*
X185275112Y-103713905D02*
G75*
G03*
X183775112Y-106311981I1500009J-2598082D01*
G01*
X183775113Y-114019607D02*
G75*
G03*
X185275112Y-116617682I2999971J-16D01*
G01*
X194950110Y-99860093D02*
G75*
G03*
X191950112Y-99860094I-1499998J-2598076D01*
G01*
X191950114Y-120471495D02*
G75*
G03*
X194950112Y-120471494I1499998J2598076D01*
G01*
X203125123Y-106311981D02*
G75*
G03*
X201625112Y-103713905I-3000011J-13D01*
G01*
X201625113Y-116617687D02*
G75*
G03*
X203125111Y-114019607I-1500051J2598103D01*
G01*
%TO.C,S45*%
X264575345Y-124931493D02*
X264575345Y-132639119D01*
X266075344Y-135237195D02*
X272750345Y-139091008D01*
X272750344Y-118479604D02*
X266075344Y-122333417D01*
X275750344Y-139091008D02*
X282425343Y-135237195D01*
X282425344Y-122333417D02*
X275750343Y-118479604D01*
X283925343Y-132639119D02*
X283925344Y-124931493D01*
X266075344Y-122333417D02*
G75*
G03*
X264575344Y-124931493I1500009J-2598082D01*
G01*
X264575345Y-132639119D02*
G75*
G03*
X266075344Y-135237194I2999971J-16D01*
G01*
X275750342Y-118479605D02*
G75*
G03*
X272750344Y-118479606I-1499998J-2598076D01*
G01*
X272750346Y-139091007D02*
G75*
G03*
X275750344Y-139091006I1499998J2598076D01*
G01*
X283925355Y-124931493D02*
G75*
G03*
X282425344Y-122333417I-3000011J-13D01*
G01*
X282425345Y-135237199D02*
G75*
G03*
X283925343Y-132639119I-1500051J2598103D01*
G01*
%TO.C,S40*%
X275325345Y-106311945D02*
X275325345Y-114019571D01*
X276825344Y-116617647D02*
X283500345Y-120471460D01*
X283500344Y-99860056D02*
X276825344Y-103713869D01*
X286500344Y-120471460D02*
X293175343Y-116617647D01*
X293175344Y-103713869D02*
X286500343Y-99860056D01*
X294675343Y-114019571D02*
X294675344Y-106311945D01*
X276825344Y-103713869D02*
G75*
G03*
X275325344Y-106311945I1500009J-2598082D01*
G01*
X275325345Y-114019571D02*
G75*
G03*
X276825344Y-116617646I2999971J-16D01*
G01*
X286500342Y-99860057D02*
G75*
G03*
X283500344Y-99860058I-1499998J-2598076D01*
G01*
X283500346Y-120471459D02*
G75*
G03*
X286500344Y-120471458I1499998J2598076D01*
G01*
X294675355Y-106311945D02*
G75*
G03*
X293175344Y-103713869I-3000011J-13D01*
G01*
X293175345Y-116617651D02*
G75*
G03*
X294675343Y-114019571I-1500051J2598103D01*
G01*
%TO.C,S57*%
X221575345Y-162170589D02*
X221575345Y-169878215D01*
X223075344Y-172476291D02*
X229750345Y-176330104D01*
X229750344Y-155718700D02*
X223075344Y-159572513D01*
X232750344Y-176330104D02*
X239425343Y-172476291D01*
X239425344Y-159572513D02*
X232750343Y-155718700D01*
X240925343Y-169878215D02*
X240925344Y-162170589D01*
X223075344Y-159572513D02*
G75*
G03*
X221575344Y-162170589I1500009J-2598082D01*
G01*
X221575345Y-169878215D02*
G75*
G03*
X223075344Y-172476290I2999971J-16D01*
G01*
X232750342Y-155718701D02*
G75*
G03*
X229750344Y-155718702I-1499998J-2598076D01*
G01*
X229750346Y-176330103D02*
G75*
G03*
X232750344Y-176330102I1499998J2598076D01*
G01*
X240925355Y-162170589D02*
G75*
G03*
X239425344Y-159572513I-3000011J-13D01*
G01*
X239425345Y-172476295D02*
G75*
G03*
X240925343Y-169878215I-1500051J2598103D01*
G01*
%TO.C,S59*%
X264575345Y-162170589D02*
X264575345Y-169878215D01*
X266075344Y-172476291D02*
X272750345Y-176330104D01*
X272750344Y-155718700D02*
X266075344Y-159572513D01*
X275750344Y-176330104D02*
X282425343Y-172476291D01*
X282425344Y-159572513D02*
X275750343Y-155718700D01*
X283925343Y-169878215D02*
X283925344Y-162170589D01*
X266075344Y-159572513D02*
G75*
G03*
X264575344Y-162170589I1500009J-2598082D01*
G01*
X264575345Y-169878215D02*
G75*
G03*
X266075344Y-172476290I2999971J-16D01*
G01*
X275750342Y-155718701D02*
G75*
G03*
X272750344Y-155718702I-1499998J-2598076D01*
G01*
X272750346Y-176330103D02*
G75*
G03*
X275750344Y-176330102I1499998J2598076D01*
G01*
X283925355Y-162170589D02*
G75*
G03*
X282425344Y-159572513I-3000011J-13D01*
G01*
X282425345Y-172476295D02*
G75*
G03*
X283925343Y-169878215I-1500051J2598103D01*
G01*
%TO.C,S56*%
X210575345Y-180790137D02*
X210575345Y-188497763D01*
X212075344Y-191095839D02*
X218750345Y-194949652D01*
X218750344Y-174338248D02*
X212075344Y-178192061D01*
X221750344Y-194949652D02*
X228425343Y-191095839D01*
X228425344Y-178192061D02*
X221750343Y-174338248D01*
X229925343Y-188497763D02*
X229925344Y-180790137D01*
X212075344Y-178192061D02*
G75*
G03*
X210575344Y-180790137I1500009J-2598082D01*
G01*
X210575345Y-188497763D02*
G75*
G03*
X212075344Y-191095838I2999971J-16D01*
G01*
X221750342Y-174338249D02*
G75*
G03*
X218750344Y-174338250I-1499998J-2598076D01*
G01*
X218750346Y-194949651D02*
G75*
G03*
X221750344Y-194949650I1499998J2598076D01*
G01*
X229925355Y-180790137D02*
G75*
G03*
X228425344Y-178192061I-3000011J-13D01*
G01*
X228425345Y-191095843D02*
G75*
G03*
X229925343Y-188497763I-1500051J2598103D01*
G01*
%TO.C,S42*%
X318325345Y-106311945D02*
X318325345Y-114019571D01*
X319825344Y-116617647D02*
X326500345Y-120471460D01*
X326500344Y-99860056D02*
X319825344Y-103713869D01*
X329500344Y-120471460D02*
X336175343Y-116617647D01*
X336175344Y-103713869D02*
X329500343Y-99860056D01*
X337675343Y-114019571D02*
X337675344Y-106311945D01*
X319825344Y-103713869D02*
G75*
G03*
X318325344Y-106311945I1500009J-2598082D01*
G01*
X318325345Y-114019571D02*
G75*
G03*
X319825344Y-116617646I2999971J-16D01*
G01*
X329500342Y-99860057D02*
G75*
G03*
X326500344Y-99860058I-1499998J-2598076D01*
G01*
X326500346Y-120471459D02*
G75*
G03*
X329500344Y-120471458I1499998J2598076D01*
G01*
X337675355Y-106311945D02*
G75*
G03*
X336175344Y-103713869I-3000011J-13D01*
G01*
X336175345Y-116617651D02*
G75*
G03*
X337675343Y-114019571I-1500051J2598103D01*
G01*
%TO.C,S18*%
X173025113Y-124931481D02*
X173025113Y-132639107D01*
X174525112Y-135237183D02*
X181200113Y-139090996D01*
X181200112Y-118479592D02*
X174525112Y-122333405D01*
X184200112Y-139090996D02*
X190875111Y-135237183D01*
X190875112Y-122333405D02*
X184200111Y-118479592D01*
X192375111Y-132639107D02*
X192375112Y-124931481D01*
X174525112Y-122333405D02*
G75*
G03*
X173025112Y-124931481I1500009J-2598082D01*
G01*
X173025113Y-132639107D02*
G75*
G03*
X174525112Y-135237182I2999971J-16D01*
G01*
X184200110Y-118479593D02*
G75*
G03*
X181200112Y-118479594I-1499998J-2598076D01*
G01*
X181200114Y-139090995D02*
G75*
G03*
X184200112Y-139090994I1499998J2598076D01*
G01*
X192375123Y-124931481D02*
G75*
G03*
X190875112Y-122333405I-3000011J-13D01*
G01*
X190875113Y-135237187D02*
G75*
G03*
X192375111Y-132639107I-1500051J2598103D01*
G01*
%TO.C,S48*%
X329075345Y-124931493D02*
X329075345Y-132639119D01*
X330575344Y-135237195D02*
X337250345Y-139091008D01*
X337250344Y-118479604D02*
X330575344Y-122333417D01*
X340250344Y-139091008D02*
X346925343Y-135237195D01*
X346925344Y-122333417D02*
X340250343Y-118479604D01*
X348425343Y-132639119D02*
X348425344Y-124931493D01*
X330575344Y-122333417D02*
G75*
G03*
X329075344Y-124931493I1500009J-2598082D01*
G01*
X329075345Y-132639119D02*
G75*
G03*
X330575344Y-135237194I2999971J-16D01*
G01*
X340250342Y-118479605D02*
G75*
G03*
X337250344Y-118479606I-1499998J-2598076D01*
G01*
X337250346Y-139091007D02*
G75*
G03*
X340250344Y-139091006I1499998J2598076D01*
G01*
X348425355Y-124931493D02*
G75*
G03*
X346925344Y-122333417I-3000011J-13D01*
G01*
X346925345Y-135237199D02*
G75*
G03*
X348425343Y-132639119I-1500051J2598103D01*
G01*
%TO.C,S28*%
X173025113Y-162170581D02*
X173025113Y-169878207D01*
X174525112Y-172476283D02*
X181200113Y-176330096D01*
X181200112Y-155718692D02*
X174525112Y-159572505D01*
X184200112Y-176330096D02*
X190875111Y-172476283D01*
X190875112Y-159572505D02*
X184200111Y-155718692D01*
X192375111Y-169878207D02*
X192375112Y-162170581D01*
X174525112Y-159572505D02*
G75*
G03*
X173025112Y-162170581I1500009J-2598082D01*
G01*
X173025113Y-169878207D02*
G75*
G03*
X174525112Y-172476282I2999971J-16D01*
G01*
X184200110Y-155718693D02*
G75*
G03*
X181200112Y-155718694I-1499998J-2598076D01*
G01*
X181200114Y-176330095D02*
G75*
G03*
X184200112Y-176330094I1499998J2598076D01*
G01*
X192375123Y-162170581D02*
G75*
G03*
X190875112Y-159572505I-3000011J-13D01*
G01*
X190875113Y-172476287D02*
G75*
G03*
X192375111Y-169878207I-1500051J2598103D01*
G01*
%TO.C,S15*%
X108525113Y-124931481D02*
X108525113Y-132639107D01*
X110025112Y-135237183D02*
X116700113Y-139090996D01*
X116700112Y-118479592D02*
X110025112Y-122333405D01*
X119700112Y-139090996D02*
X126375111Y-135237183D01*
X126375112Y-122333405D02*
X119700111Y-118479592D01*
X127875111Y-132639107D02*
X127875112Y-124931481D01*
X110025112Y-122333405D02*
G75*
G03*
X108525112Y-124931481I1500009J-2598082D01*
G01*
X108525113Y-132639107D02*
G75*
G03*
X110025112Y-135237182I2999971J-16D01*
G01*
X119700110Y-118479593D02*
G75*
G03*
X116700112Y-118479594I-1499998J-2598076D01*
G01*
X116700114Y-139090995D02*
G75*
G03*
X119700112Y-139090994I1499998J2598076D01*
G01*
X127875123Y-124931481D02*
G75*
G03*
X126375112Y-122333405I-3000011J-13D01*
G01*
X126375113Y-135237187D02*
G75*
G03*
X127875111Y-132639107I-1500051J2598103D01*
G01*
%TO.C,S30*%
X173025113Y-199409681D02*
X173025113Y-207117307D01*
X174525112Y-209715383D02*
X181200113Y-213569196D01*
X181200112Y-192957792D02*
X174525112Y-196811605D01*
X184200112Y-213569196D02*
X190875111Y-209715383D01*
X190875112Y-196811605D02*
X184200111Y-192957792D01*
X192375111Y-207117307D02*
X192375112Y-199409681D01*
X174525112Y-196811605D02*
G75*
G03*
X173025112Y-199409681I1500009J-2598082D01*
G01*
X173025113Y-207117307D02*
G75*
G03*
X174525112Y-209715382I2999971J-16D01*
G01*
X184200110Y-192957793D02*
G75*
G03*
X181200112Y-192957794I-1499998J-2598076D01*
G01*
X181200114Y-213569195D02*
G75*
G03*
X184200112Y-213569194I1499998J2598076D01*
G01*
X192375123Y-199409681D02*
G75*
G03*
X190875112Y-196811605I-3000011J-13D01*
G01*
X190875113Y-209715387D02*
G75*
G03*
X192375111Y-207117307I-1500051J2598103D01*
G01*
%TO.C,S44*%
X243075345Y-124931493D02*
X243075345Y-132639119D01*
X244575344Y-135237195D02*
X251250345Y-139091008D01*
X251250344Y-118479604D02*
X244575344Y-122333417D01*
X254250344Y-139091008D02*
X260925343Y-135237195D01*
X260925344Y-122333417D02*
X254250343Y-118479604D01*
X262425343Y-132639119D02*
X262425344Y-124931493D01*
X244575344Y-122333417D02*
G75*
G03*
X243075344Y-124931493I1500009J-2598082D01*
G01*
X243075345Y-132639119D02*
G75*
G03*
X244575344Y-135237194I2999971J-16D01*
G01*
X254250342Y-118479605D02*
G75*
G03*
X251250344Y-118479606I-1499998J-2598076D01*
G01*
X251250346Y-139091007D02*
G75*
G03*
X254250344Y-139091006I1499998J2598076D01*
G01*
X262425355Y-124931493D02*
G75*
G03*
X260925344Y-122333417I-3000011J-13D01*
G01*
X260925345Y-135237199D02*
G75*
G03*
X262425343Y-132639119I-1500051J2598103D01*
G01*
%TO.C,S21*%
X119275113Y-143551081D02*
X119275113Y-151258707D01*
X120775112Y-153856783D02*
X127450113Y-157710596D01*
X127450112Y-137099192D02*
X120775112Y-140953005D01*
X130450112Y-157710596D02*
X137125111Y-153856783D01*
X137125112Y-140953005D02*
X130450111Y-137099192D01*
X138625111Y-151258707D02*
X138625112Y-143551081D01*
X120775112Y-140953005D02*
G75*
G03*
X119275112Y-143551081I1500009J-2598082D01*
G01*
X119275113Y-151258707D02*
G75*
G03*
X120775112Y-153856782I2999971J-16D01*
G01*
X130450110Y-137099193D02*
G75*
G03*
X127450112Y-137099194I-1499998J-2598076D01*
G01*
X127450114Y-157710595D02*
G75*
G03*
X130450112Y-157710594I1499998J2598076D01*
G01*
X138625123Y-143551081D02*
G75*
G03*
X137125112Y-140953005I-3000011J-13D01*
G01*
X137125113Y-153856787D02*
G75*
G03*
X138625111Y-151258707I-1500051J2598103D01*
G01*
%TO.C,S7*%
X76275113Y-106311981D02*
X76275113Y-114019607D01*
X77775112Y-116617683D02*
X84450113Y-120471496D01*
X84450112Y-99860092D02*
X77775112Y-103713905D01*
X87450112Y-120471496D02*
X94125111Y-116617683D01*
X94125112Y-103713905D02*
X87450111Y-99860092D01*
X95625111Y-114019607D02*
X95625112Y-106311981D01*
X77775112Y-103713905D02*
G75*
G03*
X76275112Y-106311981I1500009J-2598082D01*
G01*
X76275113Y-114019607D02*
G75*
G03*
X77775112Y-116617682I2999971J-16D01*
G01*
X87450110Y-99860093D02*
G75*
G03*
X84450112Y-99860094I-1499998J-2598076D01*
G01*
X84450114Y-120471495D02*
G75*
G03*
X87450112Y-120471494I1499998J2598076D01*
G01*
X95625123Y-106311981D02*
G75*
G03*
X94125112Y-103713905I-3000011J-13D01*
G01*
X94125113Y-116617687D02*
G75*
G03*
X95625111Y-114019607I-1500051J2598103D01*
G01*
%TO.C,S10*%
X140775113Y-106311981D02*
X140775113Y-114019607D01*
X142275112Y-116617683D02*
X148950113Y-120471496D01*
X148950112Y-99860092D02*
X142275112Y-103713905D01*
X151950112Y-120471496D02*
X158625111Y-116617683D01*
X158625112Y-103713905D02*
X151950111Y-99860092D01*
X160125111Y-114019607D02*
X160125112Y-106311981D01*
X142275112Y-103713905D02*
G75*
G03*
X140775112Y-106311981I1500009J-2598082D01*
G01*
X140775113Y-114019607D02*
G75*
G03*
X142275112Y-116617682I2999971J-16D01*
G01*
X151950110Y-99860093D02*
G75*
G03*
X148950112Y-99860094I-1499998J-2598076D01*
G01*
X148950114Y-120471495D02*
G75*
G03*
X151950112Y-120471494I1499998J2598076D01*
G01*
X160125123Y-106311981D02*
G75*
G03*
X158625112Y-103713905I-3000011J-13D01*
G01*
X158625113Y-116617687D02*
G75*
G03*
X160125111Y-114019607I-1500051J2598103D01*
G01*
%TO.C,S32*%
X243075345Y-87692397D02*
X243075345Y-95400023D01*
X244575344Y-97998099D02*
X251250345Y-101851912D01*
X251250344Y-81240508D02*
X244575344Y-85094321D01*
X254250344Y-101851912D02*
X260925343Y-97998099D01*
X260925344Y-85094321D02*
X254250343Y-81240508D01*
X262425343Y-95400023D02*
X262425344Y-87692397D01*
X244575344Y-85094321D02*
G75*
G03*
X243075344Y-87692397I1500009J-2598082D01*
G01*
X243075345Y-95400023D02*
G75*
G03*
X244575344Y-97998098I2999971J-16D01*
G01*
X254250342Y-81240509D02*
G75*
G03*
X251250344Y-81240510I-1499998J-2598076D01*
G01*
X251250346Y-101851911D02*
G75*
G03*
X254250344Y-101851910I1499998J2598076D01*
G01*
X262425355Y-87692397D02*
G75*
G03*
X260925344Y-85094321I-3000011J-13D01*
G01*
X260925345Y-97998103D02*
G75*
G03*
X262425343Y-95400023I-1500051J2598103D01*
G01*
%TO.C,S27*%
X151275113Y-162170581D02*
X151275113Y-169878207D01*
X152775112Y-172476283D02*
X159450113Y-176330096D01*
X159450112Y-155718692D02*
X152775112Y-159572505D01*
X162450112Y-176330096D02*
X169125111Y-172476283D01*
X169125112Y-159572505D02*
X162450111Y-155718692D01*
X170625111Y-169878207D02*
X170625112Y-162170581D01*
X152775112Y-159572505D02*
G75*
G03*
X151275112Y-162170581I1500009J-2598082D01*
G01*
X151275113Y-169878207D02*
G75*
G03*
X152775112Y-172476282I2999971J-16D01*
G01*
X162450110Y-155718693D02*
G75*
G03*
X159450112Y-155718694I-1499998J-2598076D01*
G01*
X159450114Y-176330095D02*
G75*
G03*
X162450112Y-176330094I1499998J2598076D01*
G01*
X170625123Y-162170581D02*
G75*
G03*
X169125112Y-159572505I-3000011J-13D01*
G01*
X169125113Y-172476287D02*
G75*
G03*
X170625111Y-169878207I-1500051J2598103D01*
G01*
%TO.C,S2*%
X86775113Y-87692481D02*
X86775113Y-95400107D01*
X88275112Y-97998183D02*
X94950113Y-101851996D01*
X94950112Y-81240592D02*
X88275112Y-85094405D01*
X97950112Y-101851996D02*
X104625111Y-97998183D01*
X104625112Y-85094405D02*
X97950111Y-81240592D01*
X106125111Y-95400107D02*
X106125112Y-87692481D01*
X88275112Y-85094405D02*
G75*
G03*
X86775112Y-87692481I1500009J-2598082D01*
G01*
X86775113Y-95400107D02*
G75*
G03*
X88275112Y-97998182I2999971J-16D01*
G01*
X97950110Y-81240593D02*
G75*
G03*
X94950112Y-81240594I-1499998J-2598076D01*
G01*
X94950114Y-101851995D02*
G75*
G03*
X97950112Y-101851994I1499998J2598076D01*
G01*
X106125123Y-87692481D02*
G75*
G03*
X104625112Y-85094405I-3000011J-13D01*
G01*
X104625113Y-97998187D02*
G75*
G03*
X106125111Y-95400107I-1500051J2598103D01*
G01*
%TO.C,S55*%
X221450345Y-199409685D02*
X221450345Y-207117311D01*
X222950344Y-209715387D02*
X229625345Y-213569200D01*
X229625344Y-192957796D02*
X222950344Y-196811609D01*
X232625344Y-213569200D02*
X239300343Y-209715387D01*
X239300344Y-196811609D02*
X232625343Y-192957796D01*
X240800343Y-207117311D02*
X240800344Y-199409685D01*
X222950344Y-196811609D02*
G75*
G03*
X221450344Y-199409685I1500009J-2598082D01*
G01*
X221450345Y-207117311D02*
G75*
G03*
X222950344Y-209715386I2999971J-16D01*
G01*
X232625342Y-192957797D02*
G75*
G03*
X229625344Y-192957798I-1499998J-2598076D01*
G01*
X229625346Y-213569199D02*
G75*
G03*
X232625344Y-213569198I1499998J2598076D01*
G01*
X240800355Y-199409685D02*
G75*
G03*
X239300344Y-196811609I-3000011J-13D01*
G01*
X239300345Y-209715391D02*
G75*
G03*
X240800343Y-207117311I-1500051J2598103D01*
G01*
%TO.C,S58*%
X243075345Y-162170589D02*
X243075345Y-169878215D01*
X244575344Y-172476291D02*
X251250345Y-176330104D01*
X251250344Y-155718700D02*
X244575344Y-159572513D01*
X254250344Y-176330104D02*
X260925343Y-172476291D01*
X260925344Y-159572513D02*
X254250343Y-155718700D01*
X262425343Y-169878215D02*
X262425344Y-162170589D01*
X244575344Y-159572513D02*
G75*
G03*
X243075344Y-162170589I1500009J-2598082D01*
G01*
X243075345Y-169878215D02*
G75*
G03*
X244575344Y-172476290I2999971J-16D01*
G01*
X254250342Y-155718701D02*
G75*
G03*
X251250344Y-155718702I-1499998J-2598076D01*
G01*
X251250346Y-176330103D02*
G75*
G03*
X254250344Y-176330102I1499998J2598076D01*
G01*
X262425355Y-162170589D02*
G75*
G03*
X260925344Y-159572513I-3000011J-13D01*
G01*
X260925345Y-172476295D02*
G75*
G03*
X262425343Y-169878215I-1500051J2598103D01*
G01*
%TO.C,S49*%
X210825345Y-143551041D02*
X210825345Y-151258667D01*
X212325344Y-153856743D02*
X219000345Y-157710556D01*
X219000344Y-137099152D02*
X212325344Y-140952965D01*
X222000344Y-157710556D02*
X228675343Y-153856743D01*
X228675344Y-140952965D02*
X222000343Y-137099152D01*
X230175343Y-151258667D02*
X230175344Y-143551041D01*
X212325344Y-140952965D02*
G75*
G03*
X210825344Y-143551041I1500009J-2598082D01*
G01*
X210825345Y-151258667D02*
G75*
G03*
X212325344Y-153856742I2999971J-16D01*
G01*
X222000342Y-137099153D02*
G75*
G03*
X219000344Y-137099154I-1499998J-2598076D01*
G01*
X219000346Y-157710555D02*
G75*
G03*
X222000344Y-157710554I1499998J2598076D01*
G01*
X230175355Y-143551041D02*
G75*
G03*
X228675344Y-140952965I-3000011J-13D01*
G01*
X228675345Y-153856747D02*
G75*
G03*
X230175343Y-151258667I-1500051J2598103D01*
G01*
%TO.C,S8*%
X97525113Y-106311981D02*
X97525113Y-114019607D01*
X99025112Y-116617683D02*
X105700113Y-120471496D01*
X105700112Y-99860092D02*
X99025112Y-103713905D01*
X108700112Y-120471496D02*
X115375111Y-116617683D01*
X115375112Y-103713905D02*
X108700111Y-99860092D01*
X116875111Y-114019607D02*
X116875112Y-106311981D01*
X99025112Y-103713905D02*
G75*
G03*
X97525112Y-106311981I1500009J-2598082D01*
G01*
X97525113Y-114019607D02*
G75*
G03*
X99025112Y-116617682I2999971J-16D01*
G01*
X108700110Y-99860093D02*
G75*
G03*
X105700112Y-99860094I-1499998J-2598076D01*
G01*
X105700114Y-120471495D02*
G75*
G03*
X108700112Y-120471494I1499998J2598076D01*
G01*
X116875123Y-106311981D02*
G75*
G03*
X115375112Y-103713905I-3000011J-13D01*
G01*
X115375113Y-116617687D02*
G75*
G03*
X116875111Y-114019607I-1500051J2598103D01*
G01*
%TD*%
D12*
X71825112Y-91553894D03*
X114825112Y-91553894D03*
X158075112Y-91803894D03*
X168825112Y-110303894D03*
X72075112Y-128803894D03*
X115075112Y-129053894D03*
X158075112Y-129053894D03*
X82825112Y-147553894D03*
X125825112Y-147553894D03*
X168825112Y-147303894D03*
X115075112Y-166053894D03*
X157825112Y-166303894D03*
X190325112Y-184553894D03*
X82825112Y-110303894D03*
X147325112Y-110303894D03*
X93325112Y-91553894D03*
X136575112Y-91803894D03*
X179325112Y-91553894D03*
X104075112Y-110303894D03*
X125825112Y-110303894D03*
X190325112Y-110303894D03*
X93575112Y-129053894D03*
X136325112Y-128803894D03*
X179575112Y-128803894D03*
X104325112Y-147553894D03*
X147325112Y-147553894D03*
X190325112Y-147303894D03*
X136575112Y-166053894D03*
X179575112Y-166053894D03*
X179575112Y-203303894D03*
X77825112Y-102053894D03*
X81825112Y-132553894D03*
X84575112Y-157303894D03*
X87075112Y-157303894D03*
X89575112Y-157303894D03*
X348031800Y-127233660D03*
X228080070Y-91661795D03*
X249580070Y-91661795D03*
X270980070Y-91561795D03*
X292580070Y-91661795D03*
X313880070Y-91661795D03*
X335680070Y-91761795D03*
X334646904Y-153611370D03*
X217380070Y-110261795D03*
X238780070Y-110161795D03*
X260380070Y-110061795D03*
X281880070Y-110261795D03*
X303280070Y-109961795D03*
X324780070Y-110061795D03*
X296977616Y-175342582D03*
X228080070Y-128661795D03*
X249680070Y-128861795D03*
X271080070Y-128761795D03*
X292680070Y-128661795D03*
X314080070Y-128861795D03*
X335480070Y-128661795D03*
X295961410Y-175334190D03*
X217280070Y-147361795D03*
X238780070Y-147261795D03*
X260380070Y-147261795D03*
X281680070Y-147461795D03*
X303280070Y-147361795D03*
X324780070Y-147461795D03*
X245906648Y-170679300D03*
X227980070Y-203161795D03*
X217080070Y-184661795D03*
X228080070Y-165961795D03*
X249580070Y-165961795D03*
X271080070Y-165961795D03*
X292580070Y-165861795D03*
X204075312Y-145924850D03*
X204075312Y-146664850D03*
X204075312Y-147404850D03*
X204075312Y-148144850D03*
X204075312Y-148884850D03*
X206875312Y-147404850D03*
X209675312Y-146294850D03*
X209675312Y-147034850D03*
X209675312Y-147774850D03*
X209675312Y-148514850D03*
X241875712Y-134991870D03*
X327875840Y-97752750D03*
X171950112Y-184562866D03*
X285211714Y-97752750D03*
X338625856Y-203263590D03*
X171950112Y-98059382D03*
X75871987Y-165943282D03*
X241875712Y-184644030D03*
X242211650Y-97752750D03*
X128950112Y-98059382D03*
X338625856Y-166024470D03*
X85950112Y-98059382D03*
X327875840Y-134991870D03*
X75871987Y-203182450D03*
X128950112Y-135686458D03*
X171950112Y-135686458D03*
X285211714Y-134991870D03*
X85950112Y-135686458D03*
X166450112Y-147404894D03*
X171950112Y-141504894D03*
X171950112Y-147404894D03*
X176950112Y-143704894D03*
X177450112Y-147404894D03*
X322500344Y-147404854D03*
X328000344Y-141504854D03*
X328000344Y-147404854D03*
X333000344Y-143704854D03*
X333500344Y-147404854D03*
X187950112Y-184643994D03*
X193450112Y-178743994D03*
X193450112Y-184643994D03*
X198450112Y-180943994D03*
X198950112Y-184643994D03*
X215000344Y-110165758D03*
X220500344Y-104265758D03*
X220500344Y-110165758D03*
X225500344Y-106465758D03*
X226000344Y-110165758D03*
X258000344Y-110165758D03*
X263500344Y-104265758D03*
X263500344Y-110165758D03*
X268500344Y-106465758D03*
X269000344Y-110165758D03*
X333250344Y-91546210D03*
X338750344Y-85646210D03*
X338750344Y-91546210D03*
X343750344Y-87846210D03*
X344250344Y-91546210D03*
X236500344Y-110165758D03*
X242000344Y-104265758D03*
X242000344Y-110165758D03*
X247000344Y-106465758D03*
X247500344Y-110165758D03*
X290250344Y-91546210D03*
X295750344Y-85646210D03*
X295750344Y-91546210D03*
X300750344Y-87846210D03*
X301250344Y-91546210D03*
X236500344Y-147404854D03*
X242000344Y-141504854D03*
X242000344Y-147404854D03*
X247000344Y-143704854D03*
X247500344Y-147404854D03*
X311750344Y-128785306D03*
X317250344Y-122885306D03*
X317250344Y-128785306D03*
X322250344Y-125085306D03*
X322750344Y-128785306D03*
X80450112Y-147404894D03*
X85950112Y-141504894D03*
X85950112Y-147404894D03*
X90950112Y-143704894D03*
X91450112Y-147404894D03*
X290250344Y-166024402D03*
X295750344Y-160124402D03*
X295750344Y-166024402D03*
X300750344Y-162324402D03*
X301250344Y-166024402D03*
X176950112Y-91546294D03*
X182450112Y-85646294D03*
X182450112Y-91546294D03*
X187450112Y-87846294D03*
X187950112Y-91546294D03*
X134200112Y-91546294D03*
X139700112Y-85646294D03*
X139700112Y-91546294D03*
X144700112Y-87846294D03*
X145200112Y-91546294D03*
X155700112Y-128785294D03*
X161200112Y-122885294D03*
X161200112Y-128785294D03*
X166200112Y-125085294D03*
X166700112Y-128785294D03*
X187950112Y-147404894D03*
X193450112Y-141504894D03*
X193450112Y-147404894D03*
X198450112Y-143704894D03*
X198950112Y-147404894D03*
X225750344Y-91546210D03*
X231250344Y-85646210D03*
X231250344Y-91546210D03*
X236250344Y-87846210D03*
X236750344Y-91546210D03*
X301000344Y-147404854D03*
X306500344Y-141504854D03*
X306500344Y-147404854D03*
X311500344Y-143704854D03*
X312000344Y-147404854D03*
X290250344Y-128785306D03*
X295750344Y-122885306D03*
X295750344Y-128785306D03*
X300750344Y-125085306D03*
X301250344Y-128785306D03*
X311625344Y-91546210D03*
X317125344Y-85646210D03*
X317125344Y-91546210D03*
X322125344Y-87846210D03*
X322625344Y-91546210D03*
X91200112Y-128785294D03*
X96700112Y-122885294D03*
X96700112Y-128785294D03*
X101700112Y-125085294D03*
X102200112Y-128785294D03*
X133950112Y-128785294D03*
X139450112Y-122885294D03*
X139450112Y-128785294D03*
X144450112Y-125085294D03*
X144950112Y-128785294D03*
X268750344Y-91546210D03*
X274250344Y-85646210D03*
X274250344Y-91546210D03*
X279250344Y-87846210D03*
X279750344Y-91546210D03*
X69450112Y-91546294D03*
X74950112Y-85646294D03*
X74950112Y-91546294D03*
X79950112Y-87846294D03*
X80450112Y-91546294D03*
X144950112Y-147404894D03*
X150450112Y-141504894D03*
X150450112Y-147404894D03*
X155450112Y-143704894D03*
X155950112Y-147404894D03*
X166450112Y-110165794D03*
X171950112Y-104265794D03*
X171950112Y-110165794D03*
X176950112Y-106465794D03*
X177450112Y-110165794D03*
X69700112Y-128785294D03*
X75200112Y-122885294D03*
X75200112Y-128785294D03*
X80200112Y-125085294D03*
X80700112Y-128785294D03*
X112700112Y-166024394D03*
X118200112Y-160124394D03*
X118200112Y-166024394D03*
X123200112Y-162324394D03*
X123700112Y-166024394D03*
X225750344Y-128785306D03*
X231250344Y-122885306D03*
X231250344Y-128785306D03*
X236250344Y-125085306D03*
X236750344Y-128785306D03*
X112450112Y-91546294D03*
X117950112Y-85646294D03*
X117950112Y-91546294D03*
X122950112Y-87846294D03*
X123450112Y-91546294D03*
X257875344Y-147404854D03*
X263375344Y-141504854D03*
X263375344Y-147404854D03*
X268375344Y-143704854D03*
X268875344Y-147404854D03*
X123450112Y-110165794D03*
X128950112Y-104265794D03*
X128950112Y-110165794D03*
X133950112Y-106465794D03*
X134450112Y-110165794D03*
X301000344Y-110165758D03*
X306500344Y-104265758D03*
X306500344Y-110165758D03*
X311500344Y-106465758D03*
X312000344Y-110165758D03*
X279250344Y-147404854D03*
X284750344Y-141504854D03*
X284750344Y-147404854D03*
X289750344Y-143704854D03*
X290250344Y-147404854D03*
X101950112Y-147404894D03*
X107450112Y-141504894D03*
X107450112Y-147404894D03*
X112450112Y-143704894D03*
X112950112Y-147404894D03*
X134200112Y-166024394D03*
X139700112Y-160124394D03*
X139700112Y-166024394D03*
X144700112Y-162324394D03*
X145200112Y-166024394D03*
X155700112Y-91546294D03*
X161200112Y-85646294D03*
X161200112Y-91546294D03*
X166200112Y-87846294D03*
X166700112Y-91546294D03*
X187950112Y-110165794D03*
X193450112Y-104265794D03*
X193450112Y-110165794D03*
X198450112Y-106465794D03*
X198950112Y-110165794D03*
X268750344Y-128785306D03*
X274250344Y-122885306D03*
X274250344Y-128785306D03*
X279250344Y-125085306D03*
X279750344Y-128785306D03*
X279500344Y-110165758D03*
X285000344Y-104265758D03*
X285000344Y-110165758D03*
X290000344Y-106465758D03*
X290500344Y-110165758D03*
X225750344Y-166024402D03*
X231250344Y-160124402D03*
X231250344Y-166024402D03*
X236250344Y-162324402D03*
X236750344Y-166024402D03*
X268750344Y-166024402D03*
X274250344Y-160124402D03*
X274250344Y-166024402D03*
X279250344Y-162324402D03*
X279750344Y-166024402D03*
X214750344Y-184643950D03*
X220250344Y-178743950D03*
X220250344Y-184643950D03*
X225250344Y-180943950D03*
X225750344Y-184643950D03*
X322500344Y-110165758D03*
X328000344Y-104265758D03*
X328000344Y-110165758D03*
X333000344Y-106465758D03*
X333500344Y-110165758D03*
X177200112Y-128785294D03*
X182700112Y-122885294D03*
X182700112Y-128785294D03*
X187700112Y-125085294D03*
X188200112Y-128785294D03*
X333250344Y-128785306D03*
X338750344Y-122885306D03*
X338750344Y-128785306D03*
X343750344Y-125085306D03*
X344250344Y-128785306D03*
X177200112Y-166024394D03*
X182700112Y-160124394D03*
X182700112Y-166024394D03*
X187700112Y-162324394D03*
X188200112Y-166024394D03*
X112700112Y-128785294D03*
X118200112Y-122885294D03*
X118200112Y-128785294D03*
X123200112Y-125085294D03*
X123700112Y-128785294D03*
X177200112Y-203263494D03*
X182700112Y-197363494D03*
X182700112Y-203263494D03*
X187700112Y-199563494D03*
X188200112Y-203263494D03*
X247250344Y-128785306D03*
X252750344Y-122885306D03*
X252750344Y-128785306D03*
X257750344Y-125085306D03*
X258250344Y-128785306D03*
X123450112Y-147404894D03*
X128950112Y-141504894D03*
X128950112Y-147404894D03*
X133950112Y-143704894D03*
X134450112Y-147404894D03*
X80450112Y-110165794D03*
X85950112Y-104265794D03*
X85950112Y-110165794D03*
X90950112Y-106465794D03*
X91450112Y-110165794D03*
X144950112Y-110165794D03*
X150450112Y-104265794D03*
X150450112Y-110165794D03*
X155450112Y-106465794D03*
X155950112Y-110165794D03*
X247250344Y-91546210D03*
X252750344Y-85646210D03*
X252750344Y-91546210D03*
X257750344Y-87846210D03*
X258250344Y-91546210D03*
X155450112Y-166024394D03*
X160950112Y-160124394D03*
X160950112Y-166024394D03*
X165950112Y-162324394D03*
X166450112Y-166024394D03*
X90950112Y-91546294D03*
X96450112Y-85646294D03*
X96450112Y-91546294D03*
X101450112Y-87846294D03*
X101950112Y-91546294D03*
X225625344Y-203263498D03*
X231125344Y-197363498D03*
X231125344Y-203263498D03*
X236125344Y-199563498D03*
X236625344Y-203263498D03*
X247250344Y-166024402D03*
X252750344Y-160124402D03*
X252750344Y-166024402D03*
X257750344Y-162324402D03*
X258250344Y-166024402D03*
X215000344Y-147404854D03*
X220500344Y-141504854D03*
X220500344Y-147404854D03*
X225500344Y-143704854D03*
X226000344Y-147404854D03*
X101700112Y-110165794D03*
X107200112Y-104265794D03*
X107200112Y-110165794D03*
X112200112Y-106465794D03*
X112700112Y-110165794D03*
M02*
