%TF.GenerationSoftware,KiCad,Pcbnew,7.0.9*%
%TF.CreationDate,2023-12-23T01:36:17+05:30*%
%TF.ProjectId,HiveKB,48697665-4b42-42e6-9b69-6361645f7063,rev?*%
%TF.SameCoordinates,Original*%
%TF.FileFunction,Copper,L1,Top*%
%TF.FilePolarity,Positive*%
%FSLAX46Y46*%
G04 Gerber Fmt 4.6, Leading zero omitted, Abs format (unit mm)*
G04 Created by KiCad (PCBNEW 7.0.9) date 2023-12-23 01:36:17*
%MOMM*%
%LPD*%
G01*
G04 APERTURE LIST*
G04 Aperture macros list*
%AMRoundRect*
0 Rectangle with rounded corners*
0 $1 Rounding radius*
0 $2 $3 $4 $5 $6 $7 $8 $9 X,Y pos of 4 corners*
0 Add a 4 corners polygon primitive as box body*
4,1,4,$2,$3,$4,$5,$6,$7,$8,$9,$2,$3,0*
0 Add four circle primitives for the rounded corners*
1,1,$1+$1,$2,$3*
1,1,$1+$1,$4,$5*
1,1,$1+$1,$6,$7*
1,1,$1+$1,$8,$9*
0 Add four rect primitives between the rounded corners*
20,1,$1+$1,$2,$3,$4,$5,0*
20,1,$1+$1,$4,$5,$6,$7,0*
20,1,$1+$1,$6,$7,$8,$9,0*
20,1,$1+$1,$8,$9,$2,$3,0*%
G04 Aperture macros list end*
%TA.AperFunction,SMDPad,CuDef*%
%ADD10RoundRect,0.225000X0.225000X0.375000X-0.225000X0.375000X-0.225000X-0.375000X0.225000X-0.375000X0*%
%TD*%
%TA.AperFunction,ComponentPad*%
%ADD11C,4.700000*%
%TD*%
%TA.AperFunction,ViaPad*%
%ADD12C,0.800000*%
%TD*%
%TA.AperFunction,Conductor*%
%ADD13C,0.250000*%
%TD*%
%ADD14C,0.350000*%
G04 APERTURE END LIST*
D10*
%TO.P,D36,1,K*%
%TO.N,ROW1_R*%
X340400344Y-96546210D03*
%TO.P,D36,2,A*%
%TO.N,Net-(D36-A)*%
X337100344Y-96546210D03*
%TD*%
%TO.P,D5,1,K*%
%TO.N,ROW1_L*%
X162850112Y-96546294D03*
%TO.P,D5,2,A*%
%TO.N,Net-(D5-A)*%
X159550112Y-96546294D03*
%TD*%
%TO.P,D52,1,K*%
%TO.N,ROW4_R*%
X286400344Y-152404854D03*
%TO.P,D52,2,A*%
%TO.N,Net-(D52-A)*%
X283100344Y-152404854D03*
%TD*%
%TO.P,D37,1,K*%
%TO.N,ROW2_R*%
X222150344Y-115165758D03*
%TO.P,D37,2,A*%
%TO.N,Net-(D37-A)*%
X218850344Y-115165758D03*
%TD*%
%TO.P,D46,1,K*%
%TO.N,ROW3_R*%
X297400344Y-133785306D03*
%TO.P,D46,2,A*%
%TO.N,Net-(D46-A)*%
X294100344Y-133785306D03*
%TD*%
%TO.P,D44,1,K*%
%TO.N,ROW3_R*%
X254400344Y-133785306D03*
%TO.P,D44,2,A*%
%TO.N,Net-(D44-A)*%
X251100344Y-133785306D03*
%TD*%
%TO.P,D3,1,K*%
%TO.N,ROW1_L*%
X119600112Y-96546294D03*
%TO.P,D3,2,A*%
%TO.N,Net-(D3-A)*%
X116300112Y-96546294D03*
%TD*%
%TO.P,D53,1,K*%
%TO.N,ROW4_R*%
X308150344Y-152404854D03*
%TO.P,D53,2,A*%
%TO.N,Net-(D53-A)*%
X304850344Y-152404854D03*
%TD*%
%TO.P,D55,1,K*%
%TO.N,ROW5_R*%
X232775344Y-208263498D03*
%TO.P,D55,2,A*%
%TO.N,Net-(D55-A)*%
X229475344Y-208263498D03*
%TD*%
D11*
%TO.P,,1*%
%TO.N,N/C*%
X241875712Y-134991870D03*
%TD*%
%TO.P,,1*%
%TO.N,N/C*%
X327875840Y-97752750D03*
%TD*%
D10*
%TO.P,D23,1,K*%
%TO.N,ROW4_L*%
X173600112Y-152404894D03*
%TO.P,D23,2,A*%
%TO.N,Net-(D23-A)*%
X170300112Y-152404894D03*
%TD*%
%TO.P,D6,1,K*%
%TO.N,ROW1_L*%
X184100112Y-96546294D03*
%TO.P,D6,2,A*%
%TO.N,Net-(D6-A)*%
X180800112Y-96546294D03*
%TD*%
%TO.P,D1,1,K*%
%TO.N,ROW1_L*%
X76600112Y-96546294D03*
%TO.P,D1,2,A*%
%TO.N,Net-(D1-A)*%
X73300112Y-96546294D03*
%TD*%
%TO.P,D25,1,K*%
%TO.N,ROW5_L*%
X119850112Y-171024394D03*
%TO.P,D25,2,A*%
%TO.N,Net-(D25-A)*%
X116550112Y-171024394D03*
%TD*%
D11*
%TO.P,,1*%
%TO.N,N/C*%
X171950112Y-184562866D03*
%TD*%
D10*
%TO.P,D42,1,K*%
%TO.N,ROW2_R*%
X329650344Y-115165758D03*
%TO.P,D42,2,A*%
%TO.N,Net-(D42-A)*%
X326350344Y-115165758D03*
%TD*%
D11*
%TO.P,,1*%
%TO.N,N/C*%
X285211714Y-97752750D03*
%TD*%
%TO.P,,1*%
%TO.N,N/C*%
X338625856Y-203263590D03*
%TD*%
D10*
%TO.P,D58,1,K*%
%TO.N,ROW5_R*%
X254400344Y-171024402D03*
%TO.P,D58,2,A*%
%TO.N,Net-(D58-A)*%
X251100344Y-171024402D03*
%TD*%
%TO.P,D60,1,K*%
%TO.N,ROW5_R*%
X297400344Y-171024402D03*
%TO.P,D60,2,A*%
%TO.N,Net-(D60-A)*%
X294100344Y-171024402D03*
%TD*%
D11*
%TO.P,,1*%
%TO.N,N/C*%
X171950112Y-98059382D03*
%TD*%
D10*
%TO.P,D34,1,K*%
%TO.N,ROW1_R*%
X297400344Y-96546210D03*
%TO.P,D34,2,A*%
%TO.N,Net-(D34-A)*%
X294100344Y-96546210D03*
%TD*%
%TO.P,D41,1,K*%
%TO.N,ROW2_R*%
X308150344Y-115165758D03*
%TO.P,D41,2,A*%
%TO.N,Net-(D41-A)*%
X304850344Y-115165758D03*
%TD*%
%TO.P,D18,1,K*%
%TO.N,ROW3_L*%
X184350112Y-133785294D03*
%TO.P,D18,2,A*%
%TO.N,Net-(D18-A)*%
X181050112Y-133785294D03*
%TD*%
%TO.P,D4,1,K*%
%TO.N,ROW1_L*%
X141350112Y-96546294D03*
%TO.P,D4,2,A*%
%TO.N,Net-(D4-A)*%
X138050112Y-96546294D03*
%TD*%
%TO.P,D40,1,K*%
%TO.N,ROW2_R*%
X286650344Y-115165758D03*
%TO.P,D40,2,A*%
%TO.N,Net-(D40-A)*%
X283350344Y-115165758D03*
%TD*%
%TO.P,D9,1,K*%
%TO.N,ROW2_L*%
X130600112Y-115165794D03*
%TO.P,D9,2,A*%
%TO.N,Net-(D9-A)*%
X127300112Y-115165794D03*
%TD*%
%TO.P,D33,1,K*%
%TO.N,ROW1_R*%
X275900344Y-96546210D03*
%TO.P,D33,2,A*%
%TO.N,Net-(D33-A)*%
X272600344Y-96546210D03*
%TD*%
%TO.P,D28,1,K*%
%TO.N,ROW5_L*%
X184350112Y-171024394D03*
%TO.P,D28,2,A*%
%TO.N,Net-(D28-A)*%
X181050112Y-171024394D03*
%TD*%
%TO.P,D20,1,K*%
%TO.N,ROW4_L*%
X109100112Y-152404894D03*
%TO.P,D20,2,A*%
%TO.N,Net-(D20-A)*%
X105800112Y-152404894D03*
%TD*%
D11*
%TO.P,,1*%
%TO.N,N/C*%
X75871987Y-165943282D03*
%TD*%
%TO.P,,1*%
%TO.N,N/C*%
X241875712Y-184644030D03*
%TD*%
D10*
%TO.P,D54,1,K*%
%TO.N,ROW4_R*%
X329650344Y-152404854D03*
%TO.P,D54,2,A*%
%TO.N,Net-(D54-A)*%
X326350344Y-152404854D03*
%TD*%
%TO.P,D50,1,K*%
%TO.N,ROW4_R*%
X243650344Y-152404854D03*
%TO.P,D50,2,A*%
%TO.N,Net-(D50-A)*%
X240350344Y-152404854D03*
%TD*%
%TO.P,D10,1,K*%
%TO.N,ROW2_L*%
X152100112Y-115165794D03*
%TO.P,D10,2,A*%
%TO.N,Net-(D10-A)*%
X148800112Y-115165794D03*
%TD*%
%TO.P,D7,1,K*%
%TO.N,ROW2_L*%
X87600112Y-115165794D03*
%TO.P,D7,2,A*%
%TO.N,Net-(D7-A)*%
X84300112Y-115165794D03*
%TD*%
%TO.P,D2,1,K*%
%TO.N,ROW1_L*%
X98100112Y-96546294D03*
%TO.P,D2,2,A*%
%TO.N,Net-(D2-A)*%
X94800112Y-96546294D03*
%TD*%
%TO.P,D26,1,K*%
%TO.N,ROW5_L*%
X141350112Y-171024394D03*
%TO.P,D26,2,A*%
%TO.N,Net-(D26-A)*%
X138050112Y-171024394D03*
%TD*%
%TO.P,D49,1,K*%
%TO.N,ROW4_R*%
X222150344Y-152404854D03*
%TO.P,D49,2,A*%
%TO.N,Net-(D49-A)*%
X218850344Y-152404854D03*
%TD*%
%TO.P,D38,1,K*%
%TO.N,ROW2_R*%
X243650344Y-115165758D03*
%TO.P,D38,2,A*%
%TO.N,Net-(D38-A)*%
X240350344Y-115165758D03*
%TD*%
%TO.P,D19,1,K*%
%TO.N,ROW4_L*%
X87600112Y-152404894D03*
%TO.P,D19,2,A*%
%TO.N,Net-(D19-A)*%
X84300112Y-152404894D03*
%TD*%
D11*
%TO.P,,1*%
%TO.N,N/C*%
X242211650Y-97752750D03*
%TD*%
D10*
%TO.P,D12,1,K*%
%TO.N,ROW2_L*%
X195100112Y-115165794D03*
%TO.P,D12,2,A*%
%TO.N,Net-(D12-A)*%
X191800112Y-115165794D03*
%TD*%
%TO.P,D17,1,K*%
%TO.N,ROW3_L*%
X162850112Y-133785294D03*
%TO.P,D17,2,A*%
%TO.N,Net-(D17-A)*%
X159550112Y-133785294D03*
%TD*%
%TO.P,D39,1,K*%
%TO.N,ROW2_R*%
X265150344Y-115165758D03*
%TO.P,D39,2,A*%
%TO.N,Net-(D39-A)*%
X261850344Y-115165758D03*
%TD*%
%TO.P,D16,1,K*%
%TO.N,ROW3_L*%
X141100112Y-133785294D03*
%TO.P,D16,2,A*%
%TO.N,Net-(D16-A)*%
X137800112Y-133785294D03*
%TD*%
D11*
%TO.P,,1*%
%TO.N,N/C*%
X128950112Y-98059382D03*
%TD*%
%TO.P,,1*%
%TO.N,N/C*%
X338625856Y-166024470D03*
%TD*%
D10*
%TO.P,D22,1,K*%
%TO.N,ROW4_L*%
X152100112Y-152404894D03*
%TO.P,D22,2,A*%
%TO.N,Net-(D22-A)*%
X148800112Y-152404894D03*
%TD*%
%TO.P,D11,1,K*%
%TO.N,ROW2_L*%
X173600112Y-115165794D03*
%TO.P,D11,2,A*%
%TO.N,Net-(D11-A)*%
X170300112Y-115165794D03*
%TD*%
%TO.P,D57,1,K*%
%TO.N,ROW5_R*%
X232900344Y-171024402D03*
%TO.P,D57,2,A*%
%TO.N,Net-(D57-A)*%
X229600344Y-171024402D03*
%TD*%
%TO.P,D32,1,K*%
%TO.N,ROW1_R*%
X254400344Y-96546210D03*
%TO.P,D32,2,A*%
%TO.N,Net-(D32-A)*%
X251100344Y-96546210D03*
%TD*%
D11*
%TO.P,,1*%
%TO.N,N/C*%
X85950112Y-98059382D03*
%TD*%
%TO.P,,1*%
%TO.N,N/C*%
X327875840Y-134991870D03*
%TD*%
D10*
%TO.P,D35,1,K*%
%TO.N,ROW1_R*%
X318775344Y-96546210D03*
%TO.P,D35,2,A*%
%TO.N,Net-(D35-A)*%
X315475344Y-96546210D03*
%TD*%
%TO.P,D48,1,K*%
%TO.N,ROW3_R*%
X340400344Y-133785306D03*
%TO.P,D48,2,A*%
%TO.N,Net-(D48-A)*%
X337100344Y-133785306D03*
%TD*%
%TO.P,D24,1,K*%
%TO.N,ROW4_L*%
X195100112Y-152404894D03*
%TO.P,D24,2,A*%
%TO.N,Net-(D24-A)*%
X191800112Y-152404894D03*
%TD*%
%TO.P,D45,1,K*%
%TO.N,ROW3_R*%
X275900344Y-133785306D03*
%TO.P,D45,2,A*%
%TO.N,Net-(D45-A)*%
X272600344Y-133785306D03*
%TD*%
%TO.P,D29,1,K*%
%TO.N,ROW5_L*%
X195100112Y-189643994D03*
%TO.P,D29,2,A*%
%TO.N,Net-(D29-A)*%
X191800112Y-189643994D03*
%TD*%
%TO.P,D47,1,K*%
%TO.N,ROW3_R*%
X318900344Y-133785306D03*
%TO.P,D47,2,A*%
%TO.N,Net-(D47-A)*%
X315600344Y-133785306D03*
%TD*%
%TO.P,D59,1,K*%
%TO.N,ROW5_R*%
X275900344Y-171024402D03*
%TO.P,D59,2,A*%
%TO.N,Net-(D59-A)*%
X272600344Y-171024402D03*
%TD*%
%TO.P,D13,1,K*%
%TO.N,ROW3_L*%
X76850112Y-133785294D03*
%TO.P,D13,2,A*%
%TO.N,Net-(D13-A)*%
X73550112Y-133785294D03*
%TD*%
%TO.P,D56,1,K*%
%TO.N,ROW5_R*%
X221900344Y-189643950D03*
%TO.P,D56,2,A*%
%TO.N,Net-(D56-A)*%
X218600344Y-189643950D03*
%TD*%
%TO.P,D43,1,K*%
%TO.N,ROW3_R*%
X232900344Y-133785306D03*
%TO.P,D43,2,A*%
%TO.N,Net-(D43-A)*%
X229600344Y-133785306D03*
%TD*%
%TO.P,D31,1,K*%
%TO.N,ROW1_R*%
X232900344Y-96546210D03*
%TO.P,D31,2,A*%
%TO.N,Net-(D31-A)*%
X229600344Y-96546210D03*
%TD*%
D11*
%TO.P,,1*%
%TO.N,N/C*%
X75871987Y-203182450D03*
%TD*%
D10*
%TO.P,D30,1,K*%
%TO.N,ROW5_L*%
X184350112Y-208263494D03*
%TO.P,D30,2,A*%
%TO.N,Net-(D30-A)*%
X181050112Y-208263494D03*
%TD*%
%TO.P,D21,1,K*%
%TO.N,ROW4_L*%
X130600112Y-152404894D03*
%TO.P,D21,2,A*%
%TO.N,Net-(D21-A)*%
X127300112Y-152404894D03*
%TD*%
%TO.P,D15,1,K*%
%TO.N,ROW3_L*%
X119850112Y-133785294D03*
%TO.P,D15,2,A*%
%TO.N,Net-(D15-A)*%
X116550112Y-133785294D03*
%TD*%
D11*
%TO.P,,1*%
%TO.N,N/C*%
X128950112Y-135686458D03*
%TD*%
%TO.P,,1*%
%TO.N,N/C*%
X171950112Y-135686458D03*
%TD*%
%TO.P,,1*%
%TO.N,N/C*%
X285211714Y-134991870D03*
%TD*%
D10*
%TO.P,D51,1,K*%
%TO.N,ROW4_R*%
X265025344Y-152404854D03*
%TO.P,D51,2,A*%
%TO.N,Net-(D51-A)*%
X261725344Y-152404854D03*
%TD*%
%TO.P,D14,1,K*%
%TO.N,ROW3_L*%
X98350112Y-133785294D03*
%TO.P,D14,2,A*%
%TO.N,Net-(D14-A)*%
X95050112Y-133785294D03*
%TD*%
%TO.P,D8,1,K*%
%TO.N,ROW2_L*%
X108850112Y-115165794D03*
%TO.P,D8,2,A*%
%TO.N,Net-(D8-A)*%
X105550112Y-115165794D03*
%TD*%
%TO.P,D27,1,K*%
%TO.N,ROW5_L*%
X162600112Y-171024394D03*
%TO.P,D27,2,A*%
%TO.N,Net-(D27-A)*%
X159300112Y-171024394D03*
%TD*%
D11*
%TO.P,,1*%
%TO.N,N/C*%
X85950112Y-135686458D03*
%TD*%
D12*
%TO.N,Net-(D1-A)*%
X71825112Y-91553894D03*
%TO.N,Net-(D3-A)*%
X114825112Y-91553894D03*
%TO.N,Net-(D5-A)*%
X158075112Y-91803894D03*
%TO.N,Net-(D11-A)*%
X168825112Y-110303894D03*
%TO.N,Net-(D13-A)*%
X72075112Y-128803894D03*
%TO.N,Net-(D15-A)*%
X115075112Y-129053894D03*
%TO.N,Net-(D17-A)*%
X158075112Y-129053894D03*
%TO.N,Net-(D19-A)*%
X82825112Y-147553894D03*
%TO.N,Net-(D21-A)*%
X125825112Y-147553894D03*
%TO.N,Net-(D23-A)*%
X168825112Y-147303894D03*
%TO.N,Net-(D25-A)*%
X115075112Y-166053894D03*
%TO.N,Net-(D27-A)*%
X157825112Y-166303894D03*
%TO.N,Net-(D29-A)*%
X190325112Y-184553894D03*
%TO.N,Net-(D7-A)*%
X82825112Y-110303894D03*
%TO.N,Net-(D10-A)*%
X147325112Y-110303894D03*
%TO.N,Net-(D2-A)*%
X93325112Y-91553894D03*
%TO.N,Net-(D4-A)*%
X136575112Y-91803894D03*
%TO.N,Net-(D6-A)*%
X179325112Y-91553894D03*
%TO.N,Net-(D8-A)*%
X104075112Y-110303894D03*
%TO.N,Net-(D9-A)*%
X125825112Y-110303894D03*
%TO.N,Net-(D12-A)*%
X190325112Y-110303894D03*
%TO.N,Net-(D14-A)*%
X93575112Y-129053894D03*
%TO.N,Net-(D16-A)*%
X136325112Y-128803894D03*
%TO.N,Net-(D18-A)*%
X179575112Y-128803894D03*
%TO.N,Net-(D20-A)*%
X104325112Y-147553894D03*
%TO.N,Net-(D22-A)*%
X147325112Y-147553894D03*
%TO.N,Net-(D24-A)*%
X190325112Y-147303894D03*
%TO.N,Net-(D26-A)*%
X136575112Y-166053894D03*
%TO.N,Net-(D28-A)*%
X179575112Y-166053894D03*
%TO.N,Net-(D30-A)*%
X179575112Y-203303894D03*
%TO.N,ROW1_L*%
X77825112Y-102053894D03*
%TO.N,ROW2_L*%
X81825112Y-132553894D03*
%TO.N,ROW3_L*%
X84575112Y-157303894D03*
%TO.N,ROW4_L*%
X87075112Y-157303894D03*
%TO.N,ROW5_L*%
X89575112Y-157303894D03*
%TO.N,ROW1_R*%
X348031800Y-127233660D03*
%TO.N,Net-(D31-A)*%
X228080070Y-91661795D03*
%TO.N,Net-(D32-A)*%
X249580070Y-91661795D03*
%TO.N,Net-(D33-A)*%
X270980070Y-91561795D03*
%TO.N,Net-(D34-A)*%
X292580070Y-91661795D03*
%TO.N,Net-(D35-A)*%
X313880070Y-91661795D03*
%TO.N,Net-(D36-A)*%
X335680070Y-91761795D03*
%TO.N,ROW2_R*%
X334646904Y-153611370D03*
%TO.N,Net-(D37-A)*%
X217380070Y-110261795D03*
%TO.N,Net-(D38-A)*%
X238780070Y-110161795D03*
%TO.N,Net-(D39-A)*%
X260380070Y-110061795D03*
%TO.N,Net-(D40-A)*%
X281880070Y-110261795D03*
%TO.N,Net-(D41-A)*%
X303280070Y-109961795D03*
%TO.N,Net-(D42-A)*%
X324780070Y-110061795D03*
%TO.N,ROW3_R*%
X296977616Y-175342582D03*
%TO.N,Net-(D43-A)*%
X228080070Y-128661795D03*
%TO.N,Net-(D44-A)*%
X249680070Y-128861795D03*
%TO.N,Net-(D45-A)*%
X271080070Y-128761795D03*
%TO.N,Net-(D46-A)*%
X292680070Y-128661795D03*
%TO.N,Net-(D47-A)*%
X314080070Y-128861795D03*
%TO.N,Net-(D48-A)*%
X335480070Y-128661795D03*
%TO.N,ROW4_R*%
X295961410Y-175334190D03*
%TO.N,Net-(D49-A)*%
X217280070Y-147361795D03*
%TO.N,Net-(D50-A)*%
X238780070Y-147261795D03*
%TO.N,Net-(D51-A)*%
X260380070Y-147261795D03*
%TO.N,Net-(D52-A)*%
X281680070Y-147461795D03*
%TO.N,Net-(D53-A)*%
X303280070Y-147361795D03*
%TO.N,Net-(D54-A)*%
X324780070Y-147461795D03*
%TO.N,ROW5_R*%
X245906648Y-170679300D03*
%TO.N,Net-(D55-A)*%
X227980070Y-203161795D03*
%TO.N,Net-(D56-A)*%
X217080070Y-184661795D03*
%TO.N,Net-(D57-A)*%
X228080070Y-165961795D03*
%TO.N,Net-(D58-A)*%
X249580070Y-165961795D03*
%TO.N,Net-(D59-A)*%
X271080070Y-165961795D03*
%TO.N,Net-(D60-A)*%
X292580070Y-165861795D03*
%TD*%
D13*
%TO.N,Net-(D1-A)*%
X71825112Y-95071294D02*
X73300112Y-96546294D01*
X71825112Y-91553894D02*
X71825112Y-95071294D01*
%TO.N,Net-(D3-A)*%
X114825112Y-91553894D02*
X114825112Y-95071294D01*
X114825112Y-95071294D02*
X116300112Y-96546294D01*
%TO.N,Net-(D5-A)*%
X158075112Y-91803894D02*
X158075112Y-95071294D01*
X158075112Y-95071294D02*
X159550112Y-96546294D01*
%TO.N,Net-(D11-A)*%
X168825112Y-110303894D02*
X168825112Y-113690794D01*
X168825112Y-113690794D02*
X170300112Y-115165794D01*
%TO.N,Net-(D13-A)*%
X72075112Y-128803894D02*
X72075112Y-132310294D01*
X72075112Y-132310294D02*
X73550112Y-133785294D01*
%TO.N,Net-(D15-A)*%
X115075112Y-129053894D02*
X115075112Y-132310294D01*
X115075112Y-132310294D02*
X116550112Y-133785294D01*
%TO.N,Net-(D17-A)*%
X158075112Y-132310294D02*
X159550112Y-133785294D01*
X158075112Y-129053894D02*
X158075112Y-132310294D01*
%TO.N,Net-(D19-A)*%
X82825112Y-147553894D02*
X82825112Y-150929894D01*
X82825112Y-150929894D02*
X84300112Y-152404894D01*
%TO.N,Net-(D21-A)*%
X125825112Y-147553894D02*
X125825112Y-150929894D01*
X125825112Y-150929894D02*
X127300112Y-152404894D01*
%TO.N,Net-(D23-A)*%
X168825112Y-150929894D02*
X170300112Y-152404894D01*
X168825112Y-147303894D02*
X168825112Y-150929894D01*
%TO.N,Net-(D25-A)*%
X115075112Y-169549394D02*
X116550112Y-171024394D01*
X115075112Y-166053894D02*
X115075112Y-169549394D01*
%TO.N,Net-(D27-A)*%
X157825112Y-169549394D02*
X159300112Y-171024394D01*
X157825112Y-166303894D02*
X157825112Y-169549394D01*
%TO.N,Net-(D29-A)*%
X190325112Y-184553894D02*
X190325112Y-188168994D01*
X190325112Y-188168994D02*
X191800112Y-189643994D01*
%TO.N,Net-(D7-A)*%
X82825112Y-113690794D02*
X84300112Y-115165794D01*
X82825112Y-110303894D02*
X82825112Y-113690794D01*
%TO.N,Net-(D10-A)*%
X147325112Y-113690794D02*
X148800112Y-115165794D01*
X147325112Y-110303894D02*
X147325112Y-113690794D01*
%TO.N,Net-(D2-A)*%
X93325112Y-91553894D02*
X93325112Y-95071294D01*
X93325112Y-95071294D02*
X94800112Y-96546294D01*
%TO.N,Net-(D4-A)*%
X136575112Y-95071294D02*
X138050112Y-96546294D01*
X136575112Y-91803894D02*
X136575112Y-95071294D01*
%TO.N,Net-(D6-A)*%
X179325112Y-91553894D02*
X179325112Y-95071294D01*
X179325112Y-95071294D02*
X180800112Y-96546294D01*
%TO.N,Net-(D8-A)*%
X104075112Y-110303894D02*
X104075112Y-113690794D01*
X104075112Y-113690794D02*
X105550112Y-115165794D01*
%TO.N,Net-(D9-A)*%
X125825112Y-113690794D02*
X127300112Y-115165794D01*
X125825112Y-110303894D02*
X125825112Y-113690794D01*
%TO.N,Net-(D12-A)*%
X190325112Y-110303894D02*
X190325112Y-113690794D01*
X190325112Y-113690794D02*
X191800112Y-115165794D01*
%TO.N,Net-(D14-A)*%
X93575112Y-129053894D02*
X93575112Y-132310294D01*
X93575112Y-132310294D02*
X95050112Y-133785294D01*
%TO.N,Net-(D16-A)*%
X136325112Y-132310294D02*
X137800112Y-133785294D01*
X136325112Y-128803894D02*
X136325112Y-132310294D01*
%TO.N,Net-(D18-A)*%
X179575112Y-128803894D02*
X179575112Y-132310294D01*
X179575112Y-132310294D02*
X181050112Y-133785294D01*
%TO.N,Net-(D20-A)*%
X104325112Y-150929894D02*
X105800112Y-152404894D01*
X104325112Y-147553894D02*
X104325112Y-150929894D01*
%TO.N,Net-(D22-A)*%
X147325112Y-147553894D02*
X147325112Y-150929894D01*
X147325112Y-150929894D02*
X148800112Y-152404894D01*
%TO.N,Net-(D24-A)*%
X190325112Y-147303894D02*
X190325112Y-150929894D01*
X190325112Y-150929894D02*
X191800112Y-152404894D01*
%TO.N,Net-(D26-A)*%
X136575112Y-169549394D02*
X138050112Y-171024394D01*
X136575112Y-166053894D02*
X136575112Y-169549394D01*
%TO.N,Net-(D28-A)*%
X179575112Y-166053894D02*
X179575112Y-169549394D01*
X179575112Y-169549394D02*
X181050112Y-171024394D01*
%TO.N,Net-(D30-A)*%
X179575112Y-203303894D02*
X179575112Y-206788494D01*
X179575112Y-206788494D02*
X181050112Y-208263494D01*
%TO.N,ROW1_L*%
X77825112Y-102053894D02*
X77825112Y-97471294D01*
X114983760Y-101162646D02*
X119600112Y-96546294D01*
X179483760Y-101162646D02*
X184100112Y-96546294D01*
X162850112Y-96546294D02*
X167466464Y-101162646D01*
X77525112Y-97471294D02*
X77825112Y-97471294D01*
X93483760Y-101162646D02*
X98100112Y-96546294D01*
X136733760Y-101162646D02*
X141350112Y-96546294D01*
X158233760Y-101162646D02*
X162850112Y-96546294D01*
X98100112Y-96546294D02*
X102716464Y-101162646D01*
X77825112Y-97471294D02*
X81516464Y-101162646D01*
X141350112Y-96546294D02*
X145966464Y-101162646D01*
X145966464Y-101162646D02*
X158233760Y-101162646D01*
X124216464Y-101162646D02*
X136733760Y-101162646D01*
X76600112Y-96546294D02*
X77525112Y-97471294D01*
X167466464Y-101162646D02*
X179483760Y-101162646D01*
X102716464Y-101162646D02*
X114983760Y-101162646D01*
X119600112Y-96546294D02*
X124216464Y-101162646D01*
X81516464Y-101162646D02*
X93483760Y-101162646D01*
%TO.N,ROW2_L*%
X147871584Y-119394322D02*
X152100112Y-115165794D01*
X108850112Y-115165794D02*
X113078640Y-119394322D01*
X134828640Y-119394322D02*
X147871584Y-119394322D01*
X81825112Y-132553894D02*
X88825112Y-125553894D01*
X92128640Y-119394322D02*
X104621584Y-119394322D01*
X130600112Y-115165794D02*
X134828640Y-119394322D01*
X126371584Y-119394322D02*
X130600112Y-115165794D01*
X169371584Y-119394322D02*
X173600112Y-115165794D01*
X88825112Y-125553894D02*
X88825112Y-116090794D01*
X156328640Y-119394322D02*
X169371584Y-119394322D01*
X88525112Y-116090794D02*
X88825112Y-116090794D01*
X190871584Y-119394322D02*
X195100112Y-115165794D01*
X177828640Y-119394322D02*
X190871584Y-119394322D01*
X88825112Y-116090794D02*
X92128640Y-119394322D01*
X152100112Y-115165794D02*
X156328640Y-119394322D01*
X87600112Y-115165794D02*
X88525112Y-116090794D01*
X173600112Y-115165794D02*
X177828640Y-119394322D01*
X104621584Y-119394322D02*
X108850112Y-115165794D01*
X113078640Y-119394322D02*
X126371584Y-119394322D01*
%TO.N,ROW3_L*%
X93345684Y-138789722D02*
X98350112Y-133785294D01*
X98350112Y-133785294D02*
X103354540Y-138789722D01*
X84634218Y-138789722D02*
X93345684Y-138789722D01*
X103354540Y-138789722D02*
X114845684Y-138789722D01*
X76850112Y-133785294D02*
X77775112Y-134710294D01*
X124854540Y-138789722D02*
X136095684Y-138789722D01*
X179345684Y-138789722D02*
X184350112Y-133785294D01*
X80575112Y-134710294D02*
X80575112Y-134730616D01*
X146104540Y-138789722D02*
X141100112Y-133785294D01*
X162850112Y-133785294D02*
X167854540Y-138789722D01*
X136095684Y-138789722D02*
X141100112Y-133785294D01*
X79075112Y-151803894D02*
X79075112Y-136126675D01*
X84575112Y-157303894D02*
X79075112Y-151803894D01*
X114845684Y-138789722D02*
X119850112Y-133785294D01*
X157845684Y-138789722D02*
X146104540Y-138789722D01*
X79075112Y-136126675D02*
X80491493Y-134710294D01*
X162850112Y-133785294D02*
X157845684Y-138789722D01*
X80575112Y-134730616D02*
X84634218Y-138789722D01*
X80491493Y-134710294D02*
X80575112Y-134710294D01*
X119850112Y-133785294D02*
X124854540Y-138789722D01*
X77775112Y-134710294D02*
X80575112Y-134710294D01*
X167854540Y-138789722D02*
X179345684Y-138789722D01*
%TO.N,ROW4_L*%
X175501260Y-154306042D02*
X193198964Y-154306042D01*
X88525112Y-153329894D02*
X89439168Y-154243950D01*
X89439168Y-154243950D02*
X93478914Y-154243950D01*
X109100112Y-152404894D02*
X110939168Y-154243950D01*
X100059487Y-154243950D02*
X107261056Y-154243950D01*
X123213656Y-154306042D02*
X128698964Y-154306042D01*
X154001260Y-154306042D02*
X171698964Y-154306042D01*
X173600112Y-152404894D02*
X175501260Y-154306042D01*
X88525112Y-155853894D02*
X88525112Y-153329894D01*
X130600112Y-152404894D02*
X132501260Y-154306042D01*
X87600112Y-152404894D02*
X88525112Y-153329894D01*
X128698964Y-154306042D02*
X130600112Y-152404894D01*
X193198964Y-154306042D02*
X195100112Y-152404894D01*
X171698964Y-154306042D02*
X173600112Y-152404894D01*
X132501260Y-154306042D02*
X150198964Y-154306042D01*
X150198964Y-154306042D02*
X152100112Y-152404894D01*
X95356362Y-152366502D02*
X98182039Y-152366502D01*
X152100112Y-152404894D02*
X154001260Y-154306042D01*
X107261056Y-154243950D02*
X109100112Y-152404894D01*
X123151564Y-154243950D02*
X123213656Y-154306042D01*
X87075112Y-157303894D02*
X88525112Y-155853894D01*
X110939168Y-154243950D02*
X123151564Y-154243950D01*
X98182039Y-152366502D02*
X100059487Y-154243950D01*
X93478914Y-154243950D02*
X95356362Y-152366502D01*
%TO.N,ROW5_L*%
X89575112Y-154693950D02*
X93665310Y-154693950D01*
X153809487Y-172925626D02*
X160698880Y-172925626D01*
X139448880Y-172925626D02*
X141350112Y-171024394D01*
X149106362Y-170986086D02*
X151869947Y-170986086D01*
X89575112Y-157303894D02*
X89575112Y-154693950D01*
X170336323Y-170598178D02*
X172982039Y-170598178D01*
X183425112Y-171949394D02*
X184350112Y-171024394D01*
X195684087Y-189643994D02*
X195100112Y-189643994D01*
X132309487Y-172925626D02*
X139448880Y-172925626D01*
X191358402Y-202770604D02*
X185865512Y-208263494D01*
X168008875Y-172925626D02*
X170336323Y-170598178D01*
X147166822Y-172925626D02*
X149106362Y-170986086D01*
X160698880Y-172925626D02*
X162600112Y-171024394D01*
X125950789Y-172925626D02*
X128278237Y-170598178D01*
X97995643Y-152816502D02*
X99873091Y-154693950D01*
X183425112Y-183999828D02*
X191358402Y-191933118D01*
X175309487Y-172925626D02*
X182448880Y-172925626D01*
X164501344Y-172925626D02*
X168008875Y-172925626D01*
X122965168Y-154693950D02*
X129075112Y-160803894D01*
X191358402Y-191933118D02*
X191358402Y-202770604D01*
X182448880Y-172925626D02*
X183425112Y-171949394D01*
X183425112Y-171949394D02*
X183425112Y-183999828D01*
X99873091Y-154693950D02*
X122965168Y-154693950D01*
X185865512Y-208263494D02*
X184350112Y-208263494D01*
X129075112Y-170598178D02*
X129982039Y-170598178D01*
X129075112Y-160803894D02*
X129075112Y-170598178D01*
X128278237Y-170598178D02*
X129075112Y-170598178D01*
X121751344Y-172925626D02*
X125590737Y-172925626D01*
X95542758Y-152816502D02*
X97995643Y-152816502D01*
X191358402Y-191933118D02*
X196809487Y-191933118D01*
X141350112Y-171024394D02*
X143251344Y-172925626D01*
X151869947Y-170986086D02*
X153809487Y-172925626D01*
X172982039Y-170598178D02*
X175309487Y-172925626D01*
X129982039Y-170598178D02*
X132309487Y-172925626D01*
X125590737Y-172925626D02*
X125950789Y-172925626D01*
X143251344Y-172925626D02*
X147166822Y-172925626D01*
X196809487Y-191933118D02*
X196809487Y-190769394D01*
X162600112Y-171024394D02*
X164501344Y-172925626D01*
X119850112Y-171024394D02*
X121751344Y-172925626D01*
X196809487Y-190769394D02*
X195684087Y-189643994D01*
X93665310Y-154693950D02*
X95542758Y-152816502D01*
%TO.N,ROW1_R*%
X258915929Y-101061795D02*
X271384759Y-101061795D01*
X342400672Y-121027140D02*
X335884759Y-114511227D01*
X275900344Y-96546210D02*
X280415929Y-101061795D01*
X292884759Y-101061795D02*
X297400344Y-96546210D01*
X335884759Y-101061795D02*
X340400344Y-96546210D01*
X345680234Y-121027140D02*
X342400672Y-121027140D01*
X314259759Y-101061795D02*
X318775344Y-96546210D01*
X348031800Y-123378706D02*
X345680234Y-121027140D01*
X301915929Y-101061795D02*
X314259759Y-101061795D01*
X297400344Y-96546210D02*
X301915929Y-101061795D01*
X254400344Y-96546210D02*
X258915929Y-101061795D01*
X348031800Y-127233660D02*
X348031800Y-123378706D01*
X318775344Y-96546210D02*
X323290929Y-101061795D01*
X335884759Y-114511227D02*
X335884759Y-101061795D01*
X271384759Y-101061795D02*
X275900344Y-96546210D01*
X323290929Y-101061795D02*
X335884759Y-101061795D01*
X232900344Y-96546210D02*
X237315929Y-100961795D01*
X237315929Y-100961795D02*
X249984759Y-100961795D01*
X280415929Y-101061795D02*
X292884759Y-101061795D01*
X249984759Y-100961795D02*
X254400344Y-96546210D01*
%TO.N,Net-(D31-A)*%
X228080070Y-95025936D02*
X229600344Y-96546210D01*
X228080070Y-91661795D02*
X228080070Y-95025936D01*
%TO.N,Net-(D32-A)*%
X249580070Y-91661795D02*
X249580070Y-95025936D01*
X249580070Y-95025936D02*
X251100344Y-96546210D01*
%TO.N,Net-(D33-A)*%
X270980070Y-91561795D02*
X270980070Y-94925936D01*
X270980070Y-94925936D02*
X272600344Y-96546210D01*
%TO.N,Net-(D34-A)*%
X292580070Y-95025936D02*
X294100344Y-96546210D01*
X292580070Y-91661795D02*
X292580070Y-95025936D01*
%TO.N,Net-(D35-A)*%
X313880070Y-91661795D02*
X313880070Y-94950936D01*
X313880070Y-94950936D02*
X315475344Y-96546210D01*
%TO.N,Net-(D36-A)*%
X335680070Y-91761795D02*
X335680070Y-95125936D01*
X335680070Y-95125936D02*
X337100344Y-96546210D01*
%TO.N,ROW2_R*%
X326054307Y-118761795D02*
X329650344Y-115165758D01*
X335938032Y-152320242D02*
X334646904Y-153611370D01*
X347023986Y-130448314D02*
X335938032Y-141534268D01*
X335902894Y-115165758D02*
X342214276Y-121477140D01*
X240054307Y-118761795D02*
X243650344Y-115165758D01*
X308150344Y-115165758D02*
X311746381Y-118761795D01*
X344914542Y-121477140D02*
X347023986Y-123586584D01*
X311746381Y-118761795D02*
X326054307Y-118761795D01*
X286650344Y-115165758D02*
X290146381Y-118661795D01*
X290146381Y-118661795D02*
X304654307Y-118661795D01*
X225746381Y-118761795D02*
X240054307Y-118761795D01*
X268646381Y-118661795D02*
X283154307Y-118661795D01*
X283154307Y-118661795D02*
X286650344Y-115165758D01*
X243650344Y-115165758D02*
X247246381Y-118761795D01*
X222150344Y-115165758D02*
X225746381Y-118761795D01*
X347023986Y-123586584D02*
X347023986Y-130448314D01*
X342214276Y-121477140D02*
X344914542Y-121477140D01*
X247246381Y-118761795D02*
X261554307Y-118761795D01*
X265150344Y-115165758D02*
X268646381Y-118661795D01*
X304654307Y-118661795D02*
X308150344Y-115165758D01*
X261554307Y-118761795D02*
X265150344Y-115165758D01*
X329650344Y-115165758D02*
X335902894Y-115165758D01*
X335938032Y-141534268D02*
X335938032Y-152320242D01*
%TO.N,Net-(D37-A)*%
X217380070Y-113695484D02*
X218850344Y-115165758D01*
X217380070Y-110261795D02*
X217380070Y-113695484D01*
%TO.N,Net-(D38-A)*%
X238780070Y-113595484D02*
X240350344Y-115165758D01*
X238780070Y-110161795D02*
X238780070Y-113595484D01*
%TO.N,Net-(D39-A)*%
X260380070Y-113695484D02*
X261850344Y-115165758D01*
X260380070Y-110061795D02*
X260380070Y-113695484D01*
%TO.N,Net-(D40-A)*%
X281880070Y-110261795D02*
X281880070Y-113695484D01*
X281880070Y-113695484D02*
X283350344Y-115165758D01*
%TO.N,Net-(D41-A)*%
X303280070Y-109961795D02*
X303280070Y-113595484D01*
X303280070Y-113595484D02*
X304850344Y-115165758D01*
%TO.N,Net-(D42-A)*%
X324780070Y-110061795D02*
X324780070Y-113595484D01*
X324780070Y-113595484D02*
X326350344Y-115165758D01*
%TO.N,ROW3_R*%
X250323855Y-137861795D02*
X254400344Y-133785306D01*
X296977616Y-175342582D02*
X304809860Y-167510338D01*
X275900344Y-133785306D02*
X280076833Y-137961795D01*
X254400344Y-133785306D02*
X258576833Y-137961795D01*
X328127455Y-155311795D02*
X330563024Y-152876226D01*
X304809860Y-155511795D02*
X309850071Y-155511795D01*
X293223855Y-137961795D02*
X297400344Y-133785306D01*
X271723855Y-137961795D02*
X275900344Y-133785306D01*
X236976833Y-137861795D02*
X250323855Y-137861795D01*
X304809860Y-167510338D02*
X304809860Y-155511795D01*
X280076833Y-137961795D02*
X293223855Y-137961795D01*
X324316235Y-155311795D02*
X328127455Y-155311795D01*
X301576833Y-137961795D02*
X314723855Y-137961795D01*
X314403756Y-150958110D02*
X319962550Y-150958110D01*
X318900344Y-133785306D02*
X323076833Y-137961795D01*
X330563024Y-137961795D02*
X336223855Y-137961795D01*
X297400344Y-133785306D02*
X301576833Y-137961795D01*
X330563024Y-152876226D02*
X330563024Y-137961795D01*
X323076833Y-137961795D02*
X330563024Y-137961795D01*
X336223855Y-137961795D02*
X340400344Y-133785306D01*
X319962550Y-150958110D02*
X324316235Y-155311795D01*
X314723855Y-137961795D02*
X318900344Y-133785306D01*
X309850071Y-155511795D02*
X314403756Y-150958110D01*
X258576833Y-137961795D02*
X271723855Y-137961795D01*
X232900344Y-133785306D02*
X236976833Y-137861795D01*
%TO.N,Net-(D43-A)*%
X228080070Y-128661795D02*
X228080070Y-132265032D01*
X228080070Y-132265032D02*
X229600344Y-133785306D01*
%TO.N,Net-(D44-A)*%
X249680070Y-128861795D02*
X249680070Y-132365032D01*
X249680070Y-132365032D02*
X251100344Y-133785306D01*
%TO.N,Net-(D45-A)*%
X271080070Y-132265032D02*
X272600344Y-133785306D01*
X271080070Y-128761795D02*
X271080070Y-132265032D01*
%TO.N,Net-(D46-A)*%
X292680070Y-128661795D02*
X292680070Y-132365032D01*
X292680070Y-132365032D02*
X294100344Y-133785306D01*
%TO.N,Net-(D47-A)*%
X314080070Y-128861795D02*
X314080070Y-132265032D01*
X314080070Y-132265032D02*
X315600344Y-133785306D01*
%TO.N,Net-(D48-A)*%
X335480070Y-132165032D02*
X337100344Y-133785306D01*
X335480070Y-128661795D02*
X335480070Y-132165032D01*
%TO.N,ROW4_R*%
X320148946Y-150508110D02*
X324502631Y-154861795D01*
X305493403Y-155061795D02*
X308150344Y-152404854D01*
X246107285Y-154861795D02*
X262568403Y-154861795D01*
X243650344Y-152404854D02*
X246107285Y-154861795D01*
X295961410Y-175334190D02*
X304359860Y-166935740D01*
X304359860Y-155061795D02*
X305493403Y-155061795D01*
X241193403Y-154861795D02*
X243650344Y-152404854D01*
X304359860Y-166935740D02*
X304359860Y-155061795D01*
X327193403Y-154861795D02*
X329650344Y-152404854D01*
X312320616Y-152404854D02*
X314217360Y-150508110D01*
X324502631Y-154861795D02*
X327193403Y-154861795D01*
X222150344Y-152404854D02*
X224607285Y-154861795D01*
X289057285Y-155061795D02*
X304359860Y-155061795D01*
X262568403Y-154861795D02*
X265025344Y-152404854D01*
X265025344Y-152404854D02*
X267582285Y-154961795D01*
X224607285Y-154861795D02*
X241193403Y-154861795D01*
X283843403Y-154961795D02*
X286400344Y-152404854D01*
X314217360Y-150508110D02*
X320148946Y-150508110D01*
X267582285Y-154961795D02*
X283843403Y-154961795D01*
X286400344Y-152404854D02*
X289057285Y-155061795D01*
X308150344Y-152404854D02*
X312320616Y-152404854D01*
%TO.N,Net-(D49-A)*%
X217280070Y-150834580D02*
X218850344Y-152404854D01*
X217280070Y-147361795D02*
X217280070Y-150834580D01*
%TO.N,Net-(D50-A)*%
X238780070Y-150834580D02*
X240350344Y-152404854D01*
X238780070Y-147261795D02*
X238780070Y-150834580D01*
%TO.N,Net-(D51-A)*%
X260380070Y-151059580D02*
X261725344Y-152404854D01*
X260380070Y-147261795D02*
X260380070Y-151059580D01*
%TO.N,Net-(D52-A)*%
X281680070Y-150984580D02*
X283100344Y-152404854D01*
X281680070Y-147461795D02*
X281680070Y-150984580D01*
%TO.N,Net-(D53-A)*%
X303280070Y-147361795D02*
X303280070Y-150834580D01*
X303280070Y-150834580D02*
X304850344Y-152404854D01*
%TO.N,Net-(D54-A)*%
X324780070Y-147461795D02*
X324780070Y-150834580D01*
X324780070Y-150834580D02*
X326350344Y-152404854D01*
%TO.N,ROW5_R*%
X256837737Y-173461795D02*
X258980070Y-173461795D01*
X248789143Y-173561795D02*
X248930090Y-173561795D01*
X227380070Y-210361795D02*
X221900344Y-204882069D01*
X264680070Y-170461795D02*
X267680070Y-173461795D01*
X281280070Y-173461795D02*
X283717463Y-171024402D01*
X258980070Y-173461795D02*
X261980070Y-170461795D01*
X232900344Y-171024402D02*
X235258903Y-173382962D01*
X216280070Y-191861795D02*
X212380070Y-187961795D01*
X248930090Y-173561795D02*
X251862951Y-173561795D01*
X232775344Y-208263498D02*
X230677047Y-210361795D01*
X287742677Y-171024402D02*
X290180070Y-173461795D01*
X212380070Y-180161795D02*
X217180070Y-175361795D01*
X246580070Y-173561795D02*
X248930090Y-173561795D01*
X230677047Y-210361795D02*
X227380070Y-210361795D01*
X275900344Y-171024402D02*
X276042677Y-171024402D01*
X235258903Y-173382962D02*
X235437737Y-173561795D01*
X267680070Y-173461795D02*
X273462951Y-173461795D01*
X276042677Y-171024402D02*
X278480070Y-173461795D01*
X219682499Y-191861795D02*
X216280070Y-191861795D01*
X235258903Y-173382962D02*
X235080070Y-173561795D01*
X251862951Y-173561795D02*
X254400344Y-171024402D01*
X221900344Y-189643950D02*
X219682499Y-191861795D01*
X243480070Y-170461795D02*
X246580070Y-173561795D01*
X222580070Y-175361795D02*
X224380070Y-173561795D01*
X237580070Y-173561795D02*
X240680070Y-170461795D01*
X217180070Y-175361795D02*
X222580070Y-175361795D01*
X240680070Y-170461795D02*
X243480070Y-170461795D01*
X290180070Y-173461795D02*
X294962951Y-173461795D01*
X261980070Y-170461795D02*
X264680070Y-170461795D01*
X283717463Y-171024402D02*
X287742677Y-171024402D01*
X278480070Y-173461795D02*
X281280070Y-173461795D01*
X273462951Y-173461795D02*
X275900344Y-171024402D01*
X221900344Y-204882069D02*
X221900344Y-189643950D01*
X245906648Y-170679300D02*
X248789143Y-173561795D01*
X254400344Y-171024402D02*
X256837737Y-173461795D01*
X235437737Y-173561795D02*
X237580070Y-173561795D01*
X235080070Y-173561795D02*
X224380070Y-173561795D01*
X294962951Y-173461795D02*
X297400344Y-171024402D01*
X212380070Y-187961795D02*
X212380070Y-180161795D01*
%TO.N,Net-(D55-A)*%
X227980070Y-206768224D02*
X229475344Y-208263498D01*
X227980070Y-203161795D02*
X227980070Y-206768224D01*
%TO.N,Net-(D56-A)*%
X217080070Y-184661795D02*
X217080070Y-188123676D01*
X217080070Y-188123676D02*
X218600344Y-189643950D01*
%TO.N,Net-(D57-A)*%
X228080070Y-169504128D02*
X229600344Y-171024402D01*
X228080070Y-165961795D02*
X228080070Y-169504128D01*
%TO.N,Net-(D58-A)*%
X249580070Y-169504128D02*
X251100344Y-171024402D01*
X249580070Y-165961795D02*
X249580070Y-169504128D01*
%TO.N,Net-(D59-A)*%
X271080070Y-169504128D02*
X272600344Y-171024402D01*
X271080070Y-165961795D02*
X271080070Y-169504128D01*
%TO.N,Net-(D60-A)*%
X292580070Y-169504128D02*
X294100344Y-171024402D01*
X292580070Y-165861795D02*
X292580070Y-169504128D01*
%TD*%
D14*
X71825112Y-91553894D03*
X114825112Y-91553894D03*
X158075112Y-91803894D03*
X168825112Y-110303894D03*
X72075112Y-128803894D03*
X115075112Y-129053894D03*
X158075112Y-129053894D03*
X82825112Y-147553894D03*
X125825112Y-147553894D03*
X168825112Y-147303894D03*
X115075112Y-166053894D03*
X157825112Y-166303894D03*
X190325112Y-184553894D03*
X82825112Y-110303894D03*
X147325112Y-110303894D03*
X93325112Y-91553894D03*
X136575112Y-91803894D03*
X179325112Y-91553894D03*
X104075112Y-110303894D03*
X125825112Y-110303894D03*
X190325112Y-110303894D03*
X93575112Y-129053894D03*
X136325112Y-128803894D03*
X179575112Y-128803894D03*
X104325112Y-147553894D03*
X147325112Y-147553894D03*
X190325112Y-147303894D03*
X136575112Y-166053894D03*
X179575112Y-166053894D03*
X179575112Y-203303894D03*
X77825112Y-102053894D03*
X81825112Y-132553894D03*
X84575112Y-157303894D03*
X87075112Y-157303894D03*
X89575112Y-157303894D03*
X348031800Y-127233660D03*
X228080070Y-91661795D03*
X249580070Y-91661795D03*
X270980070Y-91561795D03*
X292580070Y-91661795D03*
X313880070Y-91661795D03*
X335680070Y-91761795D03*
X334646904Y-153611370D03*
X217380070Y-110261795D03*
X238780070Y-110161795D03*
X260380070Y-110061795D03*
X281880070Y-110261795D03*
X303280070Y-109961795D03*
X324780070Y-110061795D03*
X296977616Y-175342582D03*
X228080070Y-128661795D03*
X249680070Y-128861795D03*
X271080070Y-128761795D03*
X292680070Y-128661795D03*
X314080070Y-128861795D03*
X335480070Y-128661795D03*
X295961410Y-175334190D03*
X217280070Y-147361795D03*
X238780070Y-147261795D03*
X260380070Y-147261795D03*
X281680070Y-147461795D03*
X303280070Y-147361795D03*
X324780070Y-147461795D03*
X245906648Y-170679300D03*
X227980070Y-203161795D03*
X217080070Y-184661795D03*
X228080070Y-165961795D03*
X249580070Y-165961795D03*
X271080070Y-165961795D03*
X292580070Y-165861795D03*
X204075312Y-145924850D03*
X204075312Y-146664850D03*
X204075312Y-147404850D03*
X204075312Y-148144850D03*
X204075312Y-148884850D03*
X206875312Y-147404850D03*
X209675312Y-146294850D03*
X209675312Y-147034850D03*
X209675312Y-147774850D03*
X209675312Y-148514850D03*
X241875712Y-134991870D03*
X327875840Y-97752750D03*
X171950112Y-184562866D03*
X285211714Y-97752750D03*
X338625856Y-203263590D03*
X171950112Y-98059382D03*
X75871987Y-165943282D03*
X241875712Y-184644030D03*
X242211650Y-97752750D03*
X128950112Y-98059382D03*
X338625856Y-166024470D03*
X85950112Y-98059382D03*
X327875840Y-134991870D03*
X75871987Y-203182450D03*
X128950112Y-135686458D03*
X171950112Y-135686458D03*
X285211714Y-134991870D03*
X85950112Y-135686458D03*
X166450112Y-147404894D03*
X171950112Y-141504894D03*
X171950112Y-147404894D03*
X176950112Y-143704894D03*
X177450112Y-147404894D03*
X322500344Y-147404854D03*
X328000344Y-141504854D03*
X328000344Y-147404854D03*
X333000344Y-143704854D03*
X333500344Y-147404854D03*
X187950112Y-184643994D03*
X193450112Y-178743994D03*
X193450112Y-184643994D03*
X198450112Y-180943994D03*
X198950112Y-184643994D03*
X215000344Y-110165758D03*
X220500344Y-104265758D03*
X220500344Y-110165758D03*
X225500344Y-106465758D03*
X226000344Y-110165758D03*
X258000344Y-110165758D03*
X263500344Y-104265758D03*
X263500344Y-110165758D03*
X268500344Y-106465758D03*
X269000344Y-110165758D03*
X333250344Y-91546210D03*
X338750344Y-85646210D03*
X338750344Y-91546210D03*
X343750344Y-87846210D03*
X344250344Y-91546210D03*
X236500344Y-110165758D03*
X242000344Y-104265758D03*
X242000344Y-110165758D03*
X247000344Y-106465758D03*
X247500344Y-110165758D03*
X290250344Y-91546210D03*
X295750344Y-85646210D03*
X295750344Y-91546210D03*
X300750344Y-87846210D03*
X301250344Y-91546210D03*
X236500344Y-147404854D03*
X242000344Y-141504854D03*
X242000344Y-147404854D03*
X247000344Y-143704854D03*
X247500344Y-147404854D03*
X311750344Y-128785306D03*
X317250344Y-122885306D03*
X317250344Y-128785306D03*
X322250344Y-125085306D03*
X322750344Y-128785306D03*
X80450112Y-147404894D03*
X85950112Y-141504894D03*
X85950112Y-147404894D03*
X90950112Y-143704894D03*
X91450112Y-147404894D03*
X290250344Y-166024402D03*
X295750344Y-160124402D03*
X295750344Y-166024402D03*
X300750344Y-162324402D03*
X301250344Y-166024402D03*
X176950112Y-91546294D03*
X182450112Y-85646294D03*
X182450112Y-91546294D03*
X187450112Y-87846294D03*
X187950112Y-91546294D03*
X134200112Y-91546294D03*
X139700112Y-85646294D03*
X139700112Y-91546294D03*
X144700112Y-87846294D03*
X145200112Y-91546294D03*
X155700112Y-128785294D03*
X161200112Y-122885294D03*
X161200112Y-128785294D03*
X166200112Y-125085294D03*
X166700112Y-128785294D03*
X187950112Y-147404894D03*
X193450112Y-141504894D03*
X193450112Y-147404894D03*
X198450112Y-143704894D03*
X198950112Y-147404894D03*
X225750344Y-91546210D03*
X231250344Y-85646210D03*
X231250344Y-91546210D03*
X236250344Y-87846210D03*
X236750344Y-91546210D03*
X301000344Y-147404854D03*
X306500344Y-141504854D03*
X306500344Y-147404854D03*
X311500344Y-143704854D03*
X312000344Y-147404854D03*
X290250344Y-128785306D03*
X295750344Y-122885306D03*
X295750344Y-128785306D03*
X300750344Y-125085306D03*
X301250344Y-128785306D03*
X311625344Y-91546210D03*
X317125344Y-85646210D03*
X317125344Y-91546210D03*
X322125344Y-87846210D03*
X322625344Y-91546210D03*
X91200112Y-128785294D03*
X96700112Y-122885294D03*
X96700112Y-128785294D03*
X101700112Y-125085294D03*
X102200112Y-128785294D03*
X133950112Y-128785294D03*
X139450112Y-122885294D03*
X139450112Y-128785294D03*
X144450112Y-125085294D03*
X144950112Y-128785294D03*
X268750344Y-91546210D03*
X274250344Y-85646210D03*
X274250344Y-91546210D03*
X279250344Y-87846210D03*
X279750344Y-91546210D03*
X69450112Y-91546294D03*
X74950112Y-85646294D03*
X74950112Y-91546294D03*
X79950112Y-87846294D03*
X80450112Y-91546294D03*
X144950112Y-147404894D03*
X150450112Y-141504894D03*
X150450112Y-147404894D03*
X155450112Y-143704894D03*
X155950112Y-147404894D03*
X166450112Y-110165794D03*
X171950112Y-104265794D03*
X171950112Y-110165794D03*
X176950112Y-106465794D03*
X177450112Y-110165794D03*
X69700112Y-128785294D03*
X75200112Y-122885294D03*
X75200112Y-128785294D03*
X80200112Y-125085294D03*
X80700112Y-128785294D03*
X112700112Y-166024394D03*
X118200112Y-160124394D03*
X118200112Y-166024394D03*
X123200112Y-162324394D03*
X123700112Y-166024394D03*
X225750344Y-128785306D03*
X231250344Y-122885306D03*
X231250344Y-128785306D03*
X236250344Y-125085306D03*
X236750344Y-128785306D03*
X112450112Y-91546294D03*
X117950112Y-85646294D03*
X117950112Y-91546294D03*
X122950112Y-87846294D03*
X123450112Y-91546294D03*
X257875344Y-147404854D03*
X263375344Y-141504854D03*
X263375344Y-147404854D03*
X268375344Y-143704854D03*
X268875344Y-147404854D03*
X123450112Y-110165794D03*
X128950112Y-104265794D03*
X128950112Y-110165794D03*
X133950112Y-106465794D03*
X134450112Y-110165794D03*
X301000344Y-110165758D03*
X306500344Y-104265758D03*
X306500344Y-110165758D03*
X311500344Y-106465758D03*
X312000344Y-110165758D03*
X279250344Y-147404854D03*
X284750344Y-141504854D03*
X284750344Y-147404854D03*
X289750344Y-143704854D03*
X290250344Y-147404854D03*
X101950112Y-147404894D03*
X107450112Y-141504894D03*
X107450112Y-147404894D03*
X112450112Y-143704894D03*
X112950112Y-147404894D03*
X134200112Y-166024394D03*
X139700112Y-160124394D03*
X139700112Y-166024394D03*
X144700112Y-162324394D03*
X145200112Y-166024394D03*
X155700112Y-91546294D03*
X161200112Y-85646294D03*
X161200112Y-91546294D03*
X166200112Y-87846294D03*
X166700112Y-91546294D03*
X187950112Y-110165794D03*
X193450112Y-104265794D03*
X193450112Y-110165794D03*
X198450112Y-106465794D03*
X198950112Y-110165794D03*
X268750344Y-128785306D03*
X274250344Y-122885306D03*
X274250344Y-128785306D03*
X279250344Y-125085306D03*
X279750344Y-128785306D03*
X279500344Y-110165758D03*
X285000344Y-104265758D03*
X285000344Y-110165758D03*
X290000344Y-106465758D03*
X290500344Y-110165758D03*
X225750344Y-166024402D03*
X231250344Y-160124402D03*
X231250344Y-166024402D03*
X236250344Y-162324402D03*
X236750344Y-166024402D03*
X268750344Y-166024402D03*
X274250344Y-160124402D03*
X274250344Y-166024402D03*
X279250344Y-162324402D03*
X279750344Y-166024402D03*
X214750344Y-184643950D03*
X220250344Y-178743950D03*
X220250344Y-184643950D03*
X225250344Y-180943950D03*
X225750344Y-184643950D03*
X322500344Y-110165758D03*
X328000344Y-104265758D03*
X328000344Y-110165758D03*
X333000344Y-106465758D03*
X333500344Y-110165758D03*
X177200112Y-128785294D03*
X182700112Y-122885294D03*
X182700112Y-128785294D03*
X187700112Y-125085294D03*
X188200112Y-128785294D03*
X333250344Y-128785306D03*
X338750344Y-122885306D03*
X338750344Y-128785306D03*
X343750344Y-125085306D03*
X344250344Y-128785306D03*
X177200112Y-166024394D03*
X182700112Y-160124394D03*
X182700112Y-166024394D03*
X187700112Y-162324394D03*
X188200112Y-166024394D03*
X112700112Y-128785294D03*
X118200112Y-122885294D03*
X118200112Y-128785294D03*
X123200112Y-125085294D03*
X123700112Y-128785294D03*
X177200112Y-203263494D03*
X182700112Y-197363494D03*
X182700112Y-203263494D03*
X187700112Y-199563494D03*
X188200112Y-203263494D03*
X247250344Y-128785306D03*
X252750344Y-122885306D03*
X252750344Y-128785306D03*
X257750344Y-125085306D03*
X258250344Y-128785306D03*
X123450112Y-147404894D03*
X128950112Y-141504894D03*
X128950112Y-147404894D03*
X133950112Y-143704894D03*
X134450112Y-147404894D03*
X80450112Y-110165794D03*
X85950112Y-104265794D03*
X85950112Y-110165794D03*
X90950112Y-106465794D03*
X91450112Y-110165794D03*
X144950112Y-110165794D03*
X150450112Y-104265794D03*
X150450112Y-110165794D03*
X155450112Y-106465794D03*
X155950112Y-110165794D03*
X247250344Y-91546210D03*
X252750344Y-85646210D03*
X252750344Y-91546210D03*
X257750344Y-87846210D03*
X258250344Y-91546210D03*
X155450112Y-166024394D03*
X160950112Y-160124394D03*
X160950112Y-166024394D03*
X165950112Y-162324394D03*
X166450112Y-166024394D03*
X90950112Y-91546294D03*
X96450112Y-85646294D03*
X96450112Y-91546294D03*
X101450112Y-87846294D03*
X101950112Y-91546294D03*
X225625344Y-203263498D03*
X231125344Y-197363498D03*
X231125344Y-203263498D03*
X236125344Y-199563498D03*
X236625344Y-203263498D03*
X247250344Y-166024402D03*
X252750344Y-160124402D03*
X252750344Y-166024402D03*
X257750344Y-162324402D03*
X258250344Y-166024402D03*
X215000344Y-147404854D03*
X220500344Y-141504854D03*
X220500344Y-147404854D03*
X225500344Y-143704854D03*
X226000344Y-147404854D03*
X101700112Y-110165794D03*
X107200112Y-104265794D03*
X107200112Y-110165794D03*
X112200112Y-106465794D03*
X112700112Y-110165794D03*
M02*
