M48
METRIC,TZ
T1C0.400
T2C0.750
T3C1.016
T4C3.800
%
G90
G05
T1
X44344Y-155163
X53750Y-32750
X53750Y-51000
X53750Y-70000
X53750Y-88250
X55250Y-136500
X56489Y-140511
X56526Y-132533
X56750Y-54250
X56900Y-91363
X61779Y-136522
X62778Y-136551
X63777Y-136530
X64500Y-69500
X64500Y-106750
X66711Y-136519
X67736Y-136519
X68760Y-136519
X69785Y-136519
X70828Y-136537
X71870Y-136555
X72895Y-136555
X73893Y-136500
X75250Y-32750
X75250Y-51000
X75250Y-70000
X75250Y-88250
X86000Y-51250
X86000Y-69500
X86000Y-88500
X86000Y-107000
X96750Y-32750
X96750Y-51000
X96750Y-70000
X96750Y-88250
X96750Y-107250
X96750Y-125500
X100000Y-54250
X100000Y-91500
X107500Y-69750
X107500Y-106750
X118250Y-32750
X118250Y-51000
X118250Y-70000
X118250Y-88250
X118250Y-107250
X118250Y-125500
X129000Y-51250
X129000Y-69750
X129000Y-88500
X129000Y-106750
X139750Y-32750
X139750Y-51000
X139750Y-70000
X139750Y-88250
X139750Y-107250
X139750Y-125250
X142750Y-54250
X143000Y-91500
X150500Y-69750
X150500Y-107000
X161250Y-32750
X161250Y-51000
X161250Y-70000
X161250Y-88250
X161250Y-107250
X161250Y-125250
X161250Y-144500
X161250Y-162750
X172000Y-51250
X172000Y-69750
X172000Y-88500
X172000Y-106750
X172000Y-125750
X172000Y-144000
T2
X79111Y-135574
X79111Y-137574
T3
X56264Y-135273
X56264Y-137813
X58804Y-135273
X58804Y-137813
X62614Y-132098
X62614Y-140988
X64519Y-132098
X64519Y-140988
X74044Y-130828
X74044Y-132733
X74044Y-140353
X74044Y-142258
T4
X53750Y-117924
X53750Y-155163
X64500Y-49652
X64500Y-86891
X107500Y-49652
X107500Y-86891
X150500Y-49652
X150500Y-86891
X150500Y-136543
T0
M30
