M48
METRIC,TZ
T1C0.750
T2C0.900
T3C1.900
T4C3.000
T5C3.500
%
G90
G05
T1
X43672Y-117924
X46422Y-117924
T2
X45022Y-153663
X45022Y-156663
T3
X48125Y-43446
X48250Y-80685
X59000Y-62065
X59000Y-99304
X59125Y-43446
X59250Y-80685
X69750Y-43446
X69750Y-80685
X70000Y-62065
X70000Y-99304
X80500Y-62065
X80500Y-99304
X80750Y-43446
X80750Y-80685
X91250Y-43446
X91250Y-80685
X91250Y-117924
X91500Y-62065
X91500Y-99304
X102000Y-62065
X102000Y-99304
X102250Y-43446
X102250Y-80685
X102250Y-117924
X112750Y-43446
X112750Y-80685
X112750Y-117924
X113000Y-62065
X113000Y-99304
X123500Y-62065
X123500Y-99304
X123750Y-43446
X123750Y-80685
X123750Y-117924
X134250Y-43446
X134250Y-80685
X134250Y-117924
X134500Y-62065
X134500Y-99304
X145000Y-62065
X145000Y-99304
X145250Y-43446
X145250Y-80685
X145250Y-117924
X155750Y-43446
X155750Y-80685
X155750Y-117924
X155750Y-155163
X156000Y-62065
X156000Y-99304
X166500Y-62065
X166500Y-99304
X166500Y-136543
X166750Y-43446
X166750Y-80685
X166750Y-117924
X166750Y-155163
X177500Y-62065
X177500Y-99304
X177500Y-136543
T4
X48625Y-39746
X48750Y-76985
X53625Y-37546
X53750Y-74785
X58625Y-39746
X58750Y-76985
X59500Y-58365
X59500Y-95604
X64500Y-56165
X64500Y-93404
X69500Y-58365
X69500Y-95604
X70250Y-39746
X70250Y-76985
X75250Y-37546
X75250Y-74785
X80250Y-39746
X80250Y-76985
X81000Y-58365
X81000Y-95604
X86000Y-56165
X86000Y-93404
X91000Y-58365
X91000Y-95604
X91750Y-39746
X91750Y-76985
X91750Y-114224
X96750Y-37546
X96750Y-74785
X96750Y-112024
X101750Y-39746
X101750Y-76985
X101750Y-114224
X102500Y-58365
X102500Y-95604
X107500Y-56165
X107500Y-93404
X112500Y-58365
X112500Y-95604
X113250Y-39746
X113250Y-76985
X113250Y-114224
X118250Y-37546
X118250Y-74785
X118250Y-112024
X123250Y-39746
X123250Y-76985
X123250Y-114224
X124000Y-58365
X124000Y-95604
X129000Y-56165
X129000Y-93404
X134000Y-58365
X134000Y-95604
X134750Y-39746
X134750Y-76985
X134750Y-114224
X139750Y-37546
X139750Y-74785
X139750Y-112024
X144750Y-39746
X144750Y-76985
X144750Y-114224
X145500Y-58365
X145500Y-95604
X150500Y-56165
X150500Y-93404
X155500Y-58365
X155500Y-95604
X156250Y-39746
X156250Y-76985
X156250Y-114224
X156250Y-151463
X161250Y-37546
X161250Y-74785
X161250Y-112024
X161250Y-149263
X166250Y-39746
X166250Y-76985
X166250Y-114224
X166250Y-151463
X167000Y-58365
X167000Y-95604
X167000Y-132843
X172000Y-56165
X172000Y-93404
X172000Y-130643
X177000Y-58365
X177000Y-95604
X177000Y-132843
T5
X53625Y-43446
X53750Y-80685
X64500Y-62065
X64500Y-99304
X75250Y-43446
X75250Y-80685
X86000Y-62065
X86000Y-99304
X96750Y-43446
X96750Y-80685
X96750Y-117924
X107500Y-62065
X107500Y-99304
X118250Y-43446
X118250Y-80685
X118250Y-117924
X129000Y-62065
X129000Y-99304
X139750Y-43446
X139750Y-80685
X139750Y-117924
X150500Y-62065
X150500Y-99304
X161250Y-43446
X161250Y-80685
X161250Y-117924
X161250Y-155163
X172000Y-62065
X172000Y-99304
X172000Y-136543
T0
M30
