%TF.GenerationSoftware,KiCad,Pcbnew,7.0.9*%
%TF.CreationDate,2024-02-04T22:05:17+05:30*%
%TF.ProjectId,Reversible Keyboard,52657665-7273-4696-926c-65204b657962,rev?*%
%TF.SameCoordinates,Original*%
%TF.FileFunction,Profile,NP*%
%FSLAX46Y46*%
G04 Gerber Fmt 4.6, Leading zero omitted, Abs format (unit mm)*
G04 Created by KiCad (PCBNEW 7.0.9) date 2024-02-04 22:05:17*
%MOMM*%
%LPD*%
G01*
G04 APERTURE LIST*
%TA.AperFunction,Profile*%
%ADD10C,0.100000*%
%TD*%
%TA.AperFunction,Profile*%
%ADD11C,0.120000*%
%TD*%
G04 APERTURE END LIST*
D10*
X129000000Y-37239120D02*
X139750000Y-31032600D01*
X86000000Y-37239120D02*
X96750000Y-31032600D01*
X161250000Y-167576040D02*
X150500000Y-161369520D01*
X53750000Y-167576040D02*
X43000000Y-161369520D01*
X43000000Y-161369520D02*
X43000000Y-148956480D01*
X172000000Y-86891280D02*
X182750000Y-93097800D01*
X182750000Y-55858680D02*
X182750000Y-68271720D01*
X172000000Y-111717360D02*
X172000000Y-124130400D01*
X43000000Y-37239120D02*
X53750000Y-31032600D01*
X53750000Y-142749960D02*
X53750000Y-130336920D01*
X118250000Y-167576040D02*
X107500000Y-161369520D01*
X150500000Y-37239120D02*
X161250000Y-31032600D01*
X53750000Y-55858680D02*
X43000000Y-49652160D01*
X172000000Y-37239120D02*
X172000000Y-49652160D01*
X43000000Y-148956480D02*
X53750000Y-142749960D01*
X172000000Y-148956480D02*
X172000000Y-161369520D01*
X96750000Y-167576040D02*
X86000000Y-161369520D01*
X161250000Y-31032600D02*
X172000000Y-37239120D01*
X172000000Y-74478240D02*
X172000000Y-86891280D01*
X182750000Y-105510840D02*
X172000000Y-111717360D01*
X53750000Y-31032600D02*
X64500000Y-37239120D01*
X182750000Y-68271720D02*
X172000000Y-74478240D01*
X107500000Y-37239120D02*
X118250000Y-31032600D01*
X64500000Y-161369520D02*
X53750000Y-167576040D01*
X129000000Y-161369520D02*
X118250000Y-167576040D01*
X43000000Y-111717360D02*
X53750000Y-105510840D01*
X172000000Y-49652160D02*
X182750000Y-55858680D01*
X43000000Y-49652160D02*
X43000000Y-37239120D01*
X75250000Y-31032600D02*
X86000000Y-37239120D01*
X86000000Y-161369520D02*
X75250000Y-167576040D01*
X43000000Y-86891280D02*
X43000000Y-74478240D01*
X107500000Y-161369520D02*
X96750000Y-167576040D01*
X139750000Y-31032600D02*
X150500000Y-37239120D01*
X53750000Y-105510840D02*
X53750000Y-93097800D01*
X43000000Y-124130400D02*
X43000000Y-111717360D01*
X139750000Y-167576040D02*
X129000000Y-161369520D01*
X53750000Y-93097800D02*
X43000000Y-86891280D01*
X172000000Y-161369520D02*
X161250000Y-167576040D01*
X172000000Y-124130400D02*
X182750000Y-130336920D01*
X53750000Y-130336920D02*
X43000000Y-124130400D01*
X64500000Y-37239120D02*
X75250000Y-31032600D01*
X150500000Y-161369520D02*
X139750000Y-167576040D01*
X182750000Y-142749960D02*
X172000000Y-148956480D01*
X43000000Y-74478240D02*
X53750000Y-68271720D01*
X75250000Y-167576040D02*
X64500000Y-161369520D01*
X53750000Y-68271720D02*
X53750000Y-55858680D01*
X182750000Y-130336920D02*
X182750000Y-142749960D01*
X118250000Y-31032600D02*
X129000000Y-37239120D01*
X182750000Y-93097800D02*
X182750000Y-105510840D01*
X96750000Y-31032600D02*
X107500000Y-37239120D01*
D11*
%TO.C,U2*%
X64087234Y-141242440D02*
X63045834Y-141242440D01*
X62360034Y-140556640D02*
X62360034Y-138956440D01*
X64773034Y-138956440D02*
X64773034Y-140556640D01*
X62741034Y-138575440D02*
X64392034Y-138575440D01*
X73612234Y-132987440D02*
X72012034Y-132986940D01*
X71631034Y-132605940D02*
X71631034Y-130954940D01*
X74298034Y-131260240D02*
X74298034Y-132301640D01*
X72012034Y-130573940D02*
X73612234Y-130574440D01*
X64773034Y-140556640D02*
G75*
G03*
X64087234Y-141242440I-247753J-438047D01*
G01*
X63045834Y-141242440D02*
G75*
G03*
X62360034Y-140556640I-438047J247753D01*
G01*
X62741034Y-138575440D02*
G75*
G03*
X62360034Y-138956440I-1J-380999D01*
G01*
X64773034Y-138956440D02*
G75*
G03*
X64392034Y-138575440I-380999J1D01*
G01*
X74298034Y-132301640D02*
G75*
G03*
X73612234Y-132987440I-247750J-438050D01*
G01*
X71631034Y-132605940D02*
G75*
G03*
X72012034Y-132986940I381000J0D01*
G01*
X73612234Y-130574440D02*
G75*
G03*
X74298034Y-131260240I438050J-247750D01*
G01*
X72012034Y-130573940D02*
G75*
G03*
X71631034Y-130954940I0J-381000D01*
G01*
%TO.C,U1*%
X64087234Y-131844440D02*
X63045834Y-131844440D01*
X62360034Y-132530240D02*
X62360034Y-134130440D01*
X64773034Y-134130440D02*
X64773034Y-132530240D01*
X62741034Y-134511440D02*
X64392034Y-134511440D01*
X58372234Y-135019440D02*
X56695834Y-135019440D01*
X59058034Y-135705240D02*
X59058034Y-137381640D01*
X56010034Y-135705240D02*
X56010034Y-137381640D01*
X58372234Y-138067440D02*
X56695834Y-138067440D01*
X73612234Y-140099440D02*
X72012034Y-140099940D01*
X71631034Y-140480940D02*
X71631034Y-142131940D01*
X74298034Y-141826640D02*
X74298034Y-140785240D01*
X72012034Y-142512940D02*
X73612234Y-142512440D01*
X62360034Y-132530240D02*
G75*
G03*
X63045834Y-131844440I247753J438047D01*
G01*
X64087234Y-131844440D02*
G75*
G03*
X64773034Y-132530240I438047J-247753D01*
G01*
X64392034Y-134511440D02*
G75*
G03*
X64773034Y-134130440I1J380999D01*
G01*
X62360034Y-134130440D02*
G75*
G03*
X62741034Y-134511440I380999J-1D01*
G01*
X56010034Y-135705240D02*
G75*
G03*
X56695834Y-135019440I247753J438047D01*
G01*
X58372234Y-135019440D02*
G75*
G03*
X59058034Y-135705240I438047J-247753D01*
G01*
X56695834Y-138067440D02*
G75*
G03*
X56010034Y-137381640I-438050J247750D01*
G01*
X59058034Y-137381640D02*
G75*
G03*
X58372234Y-138067440I-247750J-438050D01*
G01*
X72012034Y-140099940D02*
G75*
G03*
X71631034Y-140480940I0J-381000D01*
G01*
X73612234Y-140099440D02*
G75*
G03*
X74298034Y-140785240I438050J-247750D01*
G01*
X74298034Y-141826640D02*
G75*
G03*
X73612234Y-142512440I-247800J-438000D01*
G01*
X71631034Y-142131940D02*
G75*
G03*
X72012034Y-142512940I381000J0D01*
G01*
%TD*%
M02*
