M48
; DRILL file {KiCad 7.0.9} date Sun Feb  4 22:05:17 2024
; FORMAT={-:-/ absolute / metric / decimal}
; #@! TF.CreationDate,2024-02-04T22:05:17+05:30
; #@! TF.GenerationSoftware,Kicad,Pcbnew,7.0.9
; #@! TF.FileFunction,Plated,1,2,PTH
FMAT,2
METRIC
; #@! TA.AperFunction,Plated,PTH,ViaDrill
T1C0.400
; #@! TA.AperFunction,Plated,PTH,ComponentDrill
T2C0.750
; #@! TA.AperFunction,Plated,PTH,ComponentDrill
T3C1.016
; #@! TA.AperFunction,Plated,PTH,ComponentDrill
T4C3.800
%
G90
G05
T1
X44.344Y-155.163
X53.75Y-32.75
X53.75Y-51.0
X53.75Y-70.0
X53.75Y-88.25
X55.25Y-136.5
X56.489Y-140.511
X56.526Y-132.533
X56.75Y-54.25
X56.899Y-91.363
X61.779Y-136.522
X62.778Y-136.551
X63.777Y-136.53
X64.5Y-69.5
X64.5Y-106.75
X66.711Y-136.519
X67.736Y-136.519
X68.76Y-136.519
X69.785Y-136.519
X70.828Y-136.537
X71.87Y-136.555
X72.895Y-136.555
X73.893Y-136.5
X75.25Y-32.75
X75.25Y-51.0
X75.25Y-70.0
X75.25Y-88.25
X86.0Y-51.25
X86.0Y-69.5
X86.0Y-88.5
X86.0Y-107.0
X96.75Y-32.75
X96.75Y-51.0
X96.75Y-70.0
X96.75Y-88.25
X96.75Y-107.25
X96.75Y-125.5
X100.0Y-54.25
X100.0Y-91.5
X107.5Y-69.75
X107.5Y-106.75
X118.25Y-32.75
X118.25Y-51.0
X118.25Y-70.0
X118.25Y-88.25
X118.25Y-107.25
X118.25Y-125.5
X129.0Y-51.25
X129.0Y-69.75
X129.0Y-88.5
X129.0Y-106.75
X139.75Y-32.75
X139.75Y-51.0
X139.75Y-70.0
X139.75Y-88.25
X139.75Y-107.25
X139.75Y-125.25
X142.75Y-54.25
X143.0Y-91.5
X150.5Y-69.75
X150.5Y-107.0
X161.25Y-32.75
X161.25Y-51.0
X161.25Y-70.0
X161.25Y-88.25
X161.25Y-107.25
X161.25Y-125.25
X161.25Y-144.5
X161.25Y-162.75
X172.0Y-51.25
X172.0Y-69.75
X172.0Y-88.5
X172.0Y-106.75
X172.0Y-125.75
X172.0Y-144.0
T2
X79.111Y-135.574
X79.111Y-137.574
T3
X56.264Y-135.273
X56.264Y-137.813
X58.804Y-135.273
X58.804Y-137.813
X62.614Y-132.098
X62.614Y-140.988
X64.519Y-132.098
X64.519Y-140.988
X74.044Y-130.828
X74.044Y-132.733
X74.044Y-140.353
X74.044Y-142.258
T4
X53.75Y-117.924
X53.75Y-155.163
X64.5Y-49.652
X64.5Y-86.891
X107.5Y-49.652
X107.5Y-86.891
X150.5Y-49.652
X150.5Y-86.891
X150.5Y-136.543
T0
M30
