M48
; DRILL file {KiCad 7.0.9} date Sun Feb  4 22:05:17 2024
; FORMAT={-:-/ absolute / metric / decimal}
; #@! TF.CreationDate,2024-02-04T22:05:17+05:30
; #@! TF.GenerationSoftware,Kicad,Pcbnew,7.0.9
; #@! TF.FileFunction,NonPlated,1,2,NPTH
FMAT,2
METRIC
; #@! TA.AperFunction,NonPlated,NPTH,ComponentDrill
T1C0.750
; #@! TA.AperFunction,NonPlated,NPTH,ComponentDrill
T2C0.900
; #@! TA.AperFunction,NonPlated,NPTH,ComponentDrill
T3C1.900
; #@! TA.AperFunction,NonPlated,NPTH,ComponentDrill
T4C3.000
; #@! TA.AperFunction,NonPlated,NPTH,ComponentDrill
T5C3.500
%
G90
G05
T1
X43.672Y-117.924
X46.422Y-117.924
T2
X45.022Y-153.663
X45.022Y-156.663
T3
X48.125Y-43.446
X48.25Y-80.685
X59.0Y-62.065
X59.0Y-99.304
X59.125Y-43.446
X59.25Y-80.685
X69.75Y-43.446
X69.75Y-80.685
X70.0Y-62.065
X70.0Y-99.304
X80.5Y-62.065
X80.5Y-99.304
X80.75Y-43.446
X80.75Y-80.685
X91.25Y-43.446
X91.25Y-80.685
X91.25Y-117.924
X91.5Y-62.065
X91.5Y-99.304
X102.0Y-62.065
X102.0Y-99.304
X102.25Y-43.446
X102.25Y-80.685
X102.25Y-117.924
X112.75Y-43.446
X112.75Y-80.685
X112.75Y-117.924
X113.0Y-62.065
X113.0Y-99.304
X123.5Y-62.065
X123.5Y-99.304
X123.75Y-43.446
X123.75Y-80.685
X123.75Y-117.924
X134.25Y-43.446
X134.25Y-80.685
X134.25Y-117.924
X134.5Y-62.065
X134.5Y-99.304
X145.0Y-62.065
X145.0Y-99.304
X145.25Y-43.446
X145.25Y-80.685
X145.25Y-117.924
X155.75Y-43.446
X155.75Y-80.685
X155.75Y-117.924
X155.75Y-155.163
X156.0Y-62.065
X156.0Y-99.304
X166.5Y-62.065
X166.5Y-99.304
X166.5Y-136.543
X166.75Y-43.446
X166.75Y-80.685
X166.75Y-117.924
X166.75Y-155.163
X177.5Y-62.065
X177.5Y-99.304
X177.5Y-136.543
T4
X48.625Y-39.746
X48.75Y-76.985
X53.625Y-37.546
X53.75Y-74.785
X58.625Y-39.746
X58.75Y-76.985
X59.5Y-58.365
X59.5Y-95.604
X64.5Y-56.165
X64.5Y-93.404
X69.5Y-58.365
X69.5Y-95.604
X70.25Y-39.746
X70.25Y-76.985
X75.25Y-37.546
X75.25Y-74.785
X80.25Y-39.746
X80.25Y-76.985
X81.0Y-58.365
X81.0Y-95.604
X86.0Y-56.165
X86.0Y-93.404
X91.0Y-58.365
X91.0Y-95.604
X91.75Y-39.746
X91.75Y-76.985
X91.75Y-114.224
X96.75Y-37.546
X96.75Y-74.785
X96.75Y-112.024
X101.75Y-39.746
X101.75Y-76.985
X101.75Y-114.224
X102.5Y-58.365
X102.5Y-95.604
X107.5Y-56.165
X107.5Y-93.404
X112.5Y-58.365
X112.5Y-95.604
X113.25Y-39.746
X113.25Y-76.985
X113.25Y-114.224
X118.25Y-37.546
X118.25Y-74.785
X118.25Y-112.024
X123.25Y-39.746
X123.25Y-76.985
X123.25Y-114.224
X124.0Y-58.365
X124.0Y-95.604
X129.0Y-56.165
X129.0Y-93.404
X134.0Y-58.365
X134.0Y-95.604
X134.75Y-39.746
X134.75Y-76.985
X134.75Y-114.224
X139.75Y-37.546
X139.75Y-74.785
X139.75Y-112.024
X144.75Y-39.746
X144.75Y-76.985
X144.75Y-114.224
X145.5Y-58.365
X145.5Y-95.604
X150.5Y-56.165
X150.5Y-93.404
X155.5Y-58.365
X155.5Y-95.604
X156.25Y-39.746
X156.25Y-76.985
X156.25Y-114.224
X156.25Y-151.463
X161.25Y-37.546
X161.25Y-74.785
X161.25Y-112.024
X161.25Y-149.263
X166.25Y-39.746
X166.25Y-76.985
X166.25Y-114.224
X166.25Y-151.463
X167.0Y-58.365
X167.0Y-95.604
X167.0Y-132.843
X172.0Y-56.165
X172.0Y-93.404
X172.0Y-130.643
X177.0Y-58.365
X177.0Y-95.604
X177.0Y-132.843
T5
X53.625Y-43.446
X53.75Y-80.685
X64.5Y-62.065
X64.5Y-99.304
X75.25Y-43.446
X75.25Y-80.685
X86.0Y-62.065
X86.0Y-99.304
X96.75Y-43.446
X96.75Y-80.685
X96.75Y-117.924
X107.5Y-62.065
X107.5Y-99.304
X118.25Y-43.446
X118.25Y-80.685
X118.25Y-117.924
X129.0Y-62.065
X129.0Y-99.304
X139.75Y-43.446
X139.75Y-80.685
X139.75Y-117.924
X150.5Y-62.065
X150.5Y-99.304
X161.25Y-43.446
X161.25Y-80.685
X161.25Y-117.924
X161.25Y-155.163
X172.0Y-62.065
X172.0Y-99.304
X172.0Y-136.543
T0
M30
