%TF.GenerationSoftware,KiCad,Pcbnew,7.0.9*%
%TF.CreationDate,2024-02-04T22:05:17+05:30*%
%TF.ProjectId,Reversible Keyboard,52657665-7273-4696-926c-65204b657962,rev?*%
%TF.SameCoordinates,Original*%
%TF.FileFunction,Soldermask,Bot*%
%TF.FilePolarity,Negative*%
%FSLAX46Y46*%
G04 Gerber Fmt 4.6, Leading zero omitted, Abs format (unit mm)*
G04 Created by KiCad (PCBNEW 7.0.9) date 2024-02-04 22:05:17*
%MOMM*%
%LPD*%
G01*
G04 APERTURE LIST*
G04 Aperture macros list*
%AMRoundRect*
0 Rectangle with rounded corners*
0 $1 Rounding radius*
0 $2 $3 $4 $5 $6 $7 $8 $9 X,Y pos of 4 corners*
0 Add a 4 corners polygon primitive as box body*
4,1,4,$2,$3,$4,$5,$6,$7,$8,$9,$2,$3,0*
0 Add four circle primitives for the rounded corners*
1,1,$1+$1,$2,$3*
1,1,$1+$1,$4,$5*
1,1,$1+$1,$6,$7*
1,1,$1+$1,$8,$9*
0 Add four rect primitives between the rounded corners*
20,1,$1+$1,$2,$3,$4,$5,0*
20,1,$1+$1,$4,$5,$6,$7,0*
20,1,$1+$1,$6,$7,$8,$9,0*
20,1,$1+$1,$8,$9,$2,$3,0*%
G04 Aperture macros list end*
%ADD10RoundRect,0.250000X0.625000X-0.350000X0.625000X0.350000X-0.625000X0.350000X-0.625000X-0.350000X0*%
%ADD11O,1.750000X1.200000*%
%ADD12C,3.000000*%
%ADD13R,2.600000X2.600000*%
%ADD14C,6.200000*%
%ADD15C,1.397000*%
%ADD16RoundRect,0.225000X-0.225000X-0.375000X0.225000X-0.375000X0.225000X0.375000X-0.225000X0.375000X0*%
%ADD17O,1.800000X2.750000*%
%ADD18C,0.750000*%
%ADD19R,1.000000X1.550000*%
%ADD20R,0.800000X1.000000*%
%ADD21C,0.900000*%
%ADD22R,1.500000X0.700000*%
G04 APERTURE END LIST*
D10*
%TO.C,BT1*%
X79111058Y-137573846D03*
D11*
X79111058Y-135573846D03*
%TD*%
D12*
%TO.C,S26*%
X123250000Y-114223880D03*
X118250000Y-112023880D03*
X113250000Y-114223880D03*
D13*
X126550000Y-114223880D03*
X114950000Y-112023880D03*
%TD*%
D12*
%TO.C,S3*%
X101750000Y-39745640D03*
X96750000Y-37545640D03*
X91750000Y-39745640D03*
D13*
X105050000Y-39745640D03*
X93450000Y-37545640D03*
%TD*%
D12*
%TO.C,S22*%
X134000000Y-95604320D03*
X129000000Y-93404320D03*
X124000000Y-95604320D03*
D13*
X137300000Y-95604320D03*
X125700000Y-93404320D03*
%TD*%
D12*
%TO.C,S10*%
X134000000Y-58365200D03*
X129000000Y-56165200D03*
X124000000Y-58365200D03*
D13*
X137300000Y-58365200D03*
X125700000Y-56165200D03*
%TD*%
D12*
%TO.C,S24*%
X177000000Y-95604320D03*
X172000000Y-93404320D03*
X167000000Y-95604320D03*
D13*
X180300000Y-95604320D03*
X168700000Y-93404320D03*
%TD*%
D14*
%TO.C,H6*%
X150500224Y-86891280D03*
%TD*%
D12*
%TO.C,S29*%
X177000000Y-132843440D03*
X172000000Y-130643440D03*
X167000000Y-132843440D03*
D13*
X180300000Y-132843440D03*
X168700000Y-130643440D03*
%TD*%
D12*
%TO.C,S17*%
X144750000Y-76984760D03*
X139750000Y-74784760D03*
X134750000Y-76984760D03*
D13*
X148050000Y-76984760D03*
X136450000Y-74784760D03*
%TD*%
D12*
%TO.C,S18*%
X166250000Y-76984760D03*
X161250000Y-74784760D03*
X156250000Y-76984760D03*
D13*
X169550000Y-76984760D03*
X157950000Y-74784760D03*
%TD*%
D14*
%TO.C,H1*%
X64500096Y-49652160D03*
%TD*%
D12*
%TO.C,S14*%
X80250000Y-76984760D03*
X75250000Y-74784760D03*
X70250000Y-76984760D03*
D13*
X83550000Y-76984760D03*
X71950000Y-74784760D03*
%TD*%
D14*
%TO.C,H9*%
X150500224Y-136543440D03*
%TD*%
D12*
%TO.C,S23*%
X155500000Y-95604320D03*
X150500000Y-93404320D03*
X145500000Y-95604320D03*
D13*
X158800000Y-95604320D03*
X147200000Y-93404320D03*
%TD*%
D14*
%TO.C,H7*%
X53750080Y-117923880D03*
%TD*%
D12*
%TO.C,S11*%
X155500000Y-58365200D03*
X150500000Y-56165200D03*
X145500000Y-58365200D03*
D13*
X158800000Y-58365200D03*
X147200000Y-56165200D03*
%TD*%
D12*
%TO.C,S21*%
X112500000Y-95604320D03*
X107500000Y-93404320D03*
X102500000Y-95604320D03*
D13*
X115800000Y-95604320D03*
X104200000Y-93404320D03*
%TD*%
D12*
%TO.C,S19*%
X69500000Y-95604320D03*
X64500000Y-93404320D03*
X59500000Y-95604320D03*
D13*
X72800000Y-95604320D03*
X61200000Y-93404320D03*
%TD*%
D12*
%TO.C,S5*%
X144750000Y-39745640D03*
X139750000Y-37545640D03*
X134750000Y-39745640D03*
D13*
X148050000Y-39745640D03*
X136450000Y-37545640D03*
%TD*%
D14*
%TO.C,H5*%
X150500224Y-49652160D03*
%TD*%
D12*
%TO.C,S6*%
X166250000Y-39745640D03*
X161250000Y-37545640D03*
X156250000Y-39745640D03*
D13*
X169550000Y-39745640D03*
X157950000Y-37545640D03*
%TD*%
D12*
%TO.C,S9*%
X112500000Y-58365200D03*
X107500000Y-56165200D03*
X102500000Y-58365200D03*
D13*
X115800000Y-58365200D03*
X104200000Y-56165200D03*
%TD*%
D12*
%TO.C,S27*%
X144750000Y-114223880D03*
X139750000Y-112023880D03*
X134750000Y-114223880D03*
D13*
X148050000Y-114223880D03*
X136450000Y-112023880D03*
%TD*%
D12*
%TO.C,S28*%
X166250000Y-114223880D03*
X161250000Y-112023880D03*
X156250000Y-114223880D03*
D13*
X169550000Y-114223880D03*
X157950000Y-112023880D03*
%TD*%
D14*
%TO.C,H8*%
X53750080Y-155163000D03*
%TD*%
D12*
%TO.C,S30*%
X166250000Y-151463000D03*
X161250000Y-149263000D03*
X156250000Y-151463000D03*
D13*
X169550000Y-151463000D03*
X157950000Y-149263000D03*
%TD*%
D12*
%TO.C,S25*%
X101750000Y-114223880D03*
X96750000Y-112023880D03*
X91750000Y-114223880D03*
D13*
X105050000Y-114223880D03*
X93450000Y-112023880D03*
%TD*%
D12*
%TO.C,S20*%
X91000000Y-95604320D03*
X86000000Y-93404320D03*
X81000000Y-95604320D03*
D13*
X94300000Y-95604320D03*
X82700000Y-93404320D03*
%TD*%
D14*
%TO.C,H3*%
X107500160Y-49652160D03*
%TD*%
%TO.C,H2*%
X64500096Y-86891280D03*
%TD*%
D12*
%TO.C,S15*%
X101750000Y-76984760D03*
X96750000Y-74784760D03*
X91750000Y-76984760D03*
D13*
X105050000Y-76984760D03*
X93450000Y-74784760D03*
%TD*%
D12*
%TO.C,S12*%
X177000000Y-58365200D03*
X172000000Y-56165200D03*
X167000000Y-58365200D03*
D13*
X180300000Y-58365200D03*
X168700000Y-56165200D03*
%TD*%
D12*
%TO.C,S7*%
X69500000Y-58365200D03*
X64500000Y-56165200D03*
X59500000Y-58365200D03*
D13*
X72800000Y-58365200D03*
X61200000Y-56165200D03*
%TD*%
D14*
%TO.C,H4*%
X107500160Y-86891280D03*
%TD*%
D12*
%TO.C,S13*%
X58750000Y-76984760D03*
X53750000Y-74784760D03*
X48750000Y-76984760D03*
D13*
X62050000Y-76984760D03*
X50450000Y-74784760D03*
%TD*%
D12*
%TO.C,S2*%
X80250000Y-39745640D03*
X75250000Y-37545640D03*
X70250000Y-39745640D03*
D13*
X83550000Y-39745640D03*
X71950000Y-37545640D03*
%TD*%
D12*
%TO.C,S4*%
X123250000Y-39745640D03*
X118250000Y-37545640D03*
X113250000Y-39745640D03*
D13*
X126550000Y-39745640D03*
X114950000Y-37545640D03*
%TD*%
D15*
%TO.C,U2*%
X64519034Y-140988440D03*
X62614034Y-140988440D03*
X74044034Y-132733440D03*
X74044034Y-130828440D03*
%TD*%
D12*
%TO.C,S1*%
X58625000Y-39745640D03*
X53625000Y-37545640D03*
X48625000Y-39745640D03*
D13*
X61925000Y-39745640D03*
X50325000Y-37545640D03*
%TD*%
D12*
%TO.C,S8*%
X91000000Y-58365200D03*
X86000000Y-56165200D03*
X81000000Y-58365200D03*
D13*
X94300000Y-58365200D03*
X82700000Y-56165200D03*
%TD*%
D12*
%TO.C,S16*%
X123250000Y-76984760D03*
X118250000Y-74784760D03*
X113250000Y-76984760D03*
D13*
X126550000Y-76984760D03*
X114950000Y-74784760D03*
%TD*%
D16*
%TO.C,D56*%
X159600000Y-122923880D03*
X162900000Y-122923880D03*
%TD*%
%TO.C,D58*%
X170350000Y-141543440D03*
X173650000Y-141543440D03*
%TD*%
%TO.C,D16*%
X84350000Y-67065200D03*
X87650000Y-67065200D03*
%TD*%
%TO.C,D28*%
X73600000Y-85684760D03*
X76900000Y-85684760D03*
%TD*%
%TO.C,D38*%
X62850000Y-104304320D03*
X66150000Y-104304320D03*
%TD*%
%TO.C,D4*%
X73600000Y-48445640D03*
X76900000Y-48445640D03*
%TD*%
%TO.C,D44*%
X127350000Y-104304320D03*
X130650000Y-104304320D03*
%TD*%
D17*
%TO.C,U1*%
X57216034Y-128448480D03*
X59756034Y-128448480D03*
X62296034Y-128448480D03*
X64836034Y-128448480D03*
X67376034Y-128448480D03*
X69916034Y-128448480D03*
X72456034Y-128448480D03*
X72456034Y-144638400D03*
X69916034Y-144638400D03*
X67376034Y-144638400D03*
X64836034Y-144638400D03*
X62296034Y-144638400D03*
X59756034Y-144638400D03*
X57216034Y-144638400D03*
D15*
X56264034Y-135273440D03*
X56264034Y-137813440D03*
X58804034Y-135273440D03*
X58804034Y-137813440D03*
X64519034Y-132098440D03*
X62614034Y-132098440D03*
X74044034Y-140353440D03*
X74044034Y-142258440D03*
%TD*%
D16*
%TO.C,D2*%
X51975000Y-48445640D03*
X55275000Y-48445640D03*
%TD*%
D18*
%TO.C,SW2*%
X46421940Y-117923880D03*
X43671940Y-117923880D03*
D19*
X44196940Y-115298880D03*
X44196940Y-120548880D03*
X45896940Y-115298880D03*
X45896940Y-120548880D03*
%TD*%
D16*
%TO.C,D50*%
X95100000Y-122923880D03*
X98400000Y-122923880D03*
%TD*%
%TO.C,D18*%
X105850000Y-67065200D03*
X109150000Y-67065200D03*
%TD*%
%TO.C,D8*%
X116600000Y-48445640D03*
X119900000Y-48445640D03*
%TD*%
%TO.C,D24*%
X170350000Y-67065200D03*
X173650000Y-67065200D03*
%TD*%
%TO.C,D52*%
X116600000Y-122923880D03*
X119900000Y-122923880D03*
%TD*%
%TO.C,D40*%
X84350000Y-104304320D03*
X87650000Y-104304320D03*
%TD*%
%TO.C,D30*%
X95100000Y-85684760D03*
X98400000Y-85684760D03*
%TD*%
%TO.C,D36*%
X159600000Y-85684760D03*
X162900000Y-85684760D03*
%TD*%
D20*
%TO.C,SW4*%
X43921630Y-158813000D03*
X46131630Y-158813000D03*
D21*
X45021630Y-156663000D03*
X45021630Y-153663000D03*
D20*
X43921630Y-151513000D03*
X46131630Y-151513000D03*
D22*
X46781630Y-157413000D03*
X46781630Y-154413000D03*
X46781630Y-152913000D03*
%TD*%
D16*
%TO.C,D22*%
X148850000Y-67065200D03*
X152150000Y-67065200D03*
%TD*%
%TO.C,D60*%
X159600000Y-160163000D03*
X162900000Y-160163000D03*
%TD*%
%TO.C,D26*%
X52100000Y-85684760D03*
X55400000Y-85684760D03*
%TD*%
%TO.C,D10*%
X138100000Y-48445640D03*
X141400000Y-48445640D03*
%TD*%
%TO.C,D54*%
X138100000Y-122923880D03*
X141400000Y-122923880D03*
%TD*%
%TO.C,D46*%
X148850000Y-104304320D03*
X152150000Y-104304320D03*
%TD*%
%TO.C,D34*%
X138100000Y-85684760D03*
X141400000Y-85684760D03*
%TD*%
%TO.C,D14*%
X62850000Y-67065200D03*
X66150000Y-67065200D03*
%TD*%
%TO.C,D20*%
X127350000Y-67065200D03*
X130650000Y-67065200D03*
%TD*%
%TO.C,D32*%
X116600000Y-85684760D03*
X119900000Y-85684760D03*
%TD*%
%TO.C,D6*%
X95100000Y-48445640D03*
X98400000Y-48445640D03*
%TD*%
%TO.C,D12*%
X159600000Y-48445640D03*
X162900000Y-48445640D03*
%TD*%
%TO.C,D42*%
X105850000Y-104304320D03*
X109150000Y-104304320D03*
%TD*%
%TO.C,D48*%
X170350000Y-104304320D03*
X173650000Y-104304320D03*
%TD*%
M02*
