M48
; DRILL file {KiCad 7.0.9} date Sat Dec 23 01:36:17 2023
; FORMAT={-:-/ absolute / metric / decimal}
; #@! TF.CreationDate,2023-12-23T01:36:17+05:30
; #@! TF.GenerationSoftware,Kicad,Pcbnew,7.0.9
; #@! TF.FileFunction,NonPlated,1,2,NPTH
FMAT,2
METRIC
; #@! TA.AperFunction,NonPlated,NPTH,ComponentDrill
T1C0.500
; #@! TA.AperFunction,NonPlated,NPTH,ComponentDrill
T2C1.900
; #@! TA.AperFunction,NonPlated,NPTH,ComponentDrill
T3C2.400
; #@! TA.AperFunction,NonPlated,NPTH,ComponentDrill
T4C3.000
; #@! TA.AperFunction,NonPlated,NPTH,ComponentDrill
T5C3.500
%
G90
G05
T1
X204.075Y-145.925
X204.075Y-146.665
X204.075Y-147.405
X204.075Y-148.145
X204.075Y-148.885
X209.675Y-146.295
X209.675Y-147.035
X209.675Y-147.775
X209.675Y-148.515
T2
X69.45Y-91.546
X69.7Y-128.785
X80.45Y-91.546
X80.45Y-110.166
X80.45Y-147.405
X80.7Y-128.785
X90.95Y-91.546
X91.2Y-128.785
X91.45Y-110.166
X91.45Y-147.405
X101.7Y-110.166
X101.95Y-91.546
X101.95Y-147.405
X102.2Y-128.785
X112.45Y-91.546
X112.7Y-110.166
X112.7Y-128.785
X112.7Y-166.024
X112.95Y-147.405
X123.45Y-91.546
X123.45Y-110.166
X123.45Y-147.405
X123.7Y-128.785
X123.7Y-166.024
X133.95Y-128.785
X134.2Y-91.546
X134.2Y-166.024
X134.45Y-110.166
X134.45Y-147.405
X144.95Y-110.166
X144.95Y-128.785
X144.95Y-147.405
X145.2Y-91.546
X145.2Y-166.024
X155.45Y-166.024
X155.7Y-91.546
X155.7Y-128.785
X155.95Y-110.166
X155.95Y-147.405
X166.45Y-110.166
X166.45Y-147.405
X166.45Y-166.024
X166.7Y-91.546
X166.7Y-128.785
X176.95Y-91.546
X177.2Y-128.785
X177.2Y-166.024
X177.2Y-203.263
X177.45Y-110.166
X177.45Y-147.405
X187.95Y-91.546
X187.95Y-110.166
X187.95Y-147.405
X187.95Y-184.644
X188.2Y-128.785
X188.2Y-166.024
X188.2Y-203.263
X198.95Y-110.166
X198.95Y-147.405
X198.95Y-184.644
X214.75Y-184.644
X215.0Y-110.166
X215.0Y-147.405
X225.625Y-203.263
X225.75Y-91.546
X225.75Y-128.785
X225.75Y-166.024
X225.75Y-184.644
X226.0Y-110.166
X226.0Y-147.405
X236.5Y-110.166
X236.5Y-147.405
X236.625Y-203.263
X236.75Y-91.546
X236.75Y-128.785
X236.75Y-166.024
X247.25Y-91.546
X247.25Y-128.785
X247.25Y-166.024
X247.5Y-110.166
X247.5Y-147.405
X257.875Y-147.405
X258.0Y-110.166
X258.25Y-91.546
X258.25Y-128.785
X258.25Y-166.024
X268.75Y-91.546
X268.75Y-128.785
X268.75Y-166.024
X268.875Y-147.405
X269.0Y-110.166
X279.25Y-147.405
X279.5Y-110.166
X279.75Y-91.546
X279.75Y-128.785
X279.75Y-166.024
X290.25Y-91.546
X290.25Y-128.785
X290.25Y-147.405
X290.25Y-166.024
X290.5Y-110.166
X301.0Y-110.166
X301.0Y-147.405
X301.25Y-91.546
X301.25Y-128.785
X301.25Y-166.024
X311.625Y-91.546
X311.75Y-128.785
X312.0Y-110.166
X312.0Y-147.405
X322.5Y-110.166
X322.5Y-147.405
X322.625Y-91.546
X322.75Y-128.785
X333.25Y-91.546
X333.25Y-128.785
X333.5Y-110.166
X333.5Y-147.405
X344.25Y-91.546
X344.25Y-128.785
T3
X206.875Y-147.405
T4
X74.95Y-85.646
X75.2Y-122.885
X79.95Y-87.846
X80.2Y-125.085
X85.95Y-104.266
X85.95Y-141.505
X90.95Y-106.466
X90.95Y-143.705
X96.45Y-85.646
X96.7Y-122.885
X101.45Y-87.846
X101.7Y-125.085
X107.2Y-104.266
X107.45Y-141.505
X112.2Y-106.466
X112.45Y-143.705
X117.95Y-85.646
X118.2Y-122.885
X118.2Y-160.124
X122.95Y-87.846
X123.2Y-125.085
X123.2Y-162.324
X128.95Y-104.266
X128.95Y-141.505
X133.95Y-106.466
X133.95Y-143.705
X139.45Y-122.885
X139.7Y-85.646
X139.7Y-160.124
X144.45Y-125.085
X144.7Y-87.846
X144.7Y-162.324
X150.45Y-104.266
X150.45Y-141.505
X155.45Y-106.466
X155.45Y-143.705
X160.95Y-160.124
X161.2Y-85.646
X161.2Y-122.885
X165.95Y-162.324
X166.2Y-87.846
X166.2Y-125.085
X171.95Y-104.266
X171.95Y-141.505
X176.95Y-106.466
X176.95Y-143.705
X182.45Y-85.646
X182.7Y-122.885
X182.7Y-160.124
X182.7Y-197.363
X187.45Y-87.846
X187.7Y-125.085
X187.7Y-162.324
X187.7Y-199.563
X193.45Y-104.266
X193.45Y-141.505
X193.45Y-178.744
X198.45Y-106.466
X198.45Y-143.705
X198.45Y-180.944
X220.25Y-178.744
X220.5Y-104.266
X220.5Y-141.505
X225.25Y-180.944
X225.5Y-106.466
X225.5Y-143.705
X231.125Y-197.363
X231.25Y-85.646
X231.25Y-122.885
X231.25Y-160.124
X236.125Y-199.563
X236.25Y-87.846
X236.25Y-125.085
X236.25Y-162.324
X242.0Y-104.266
X242.0Y-141.505
X247.0Y-106.466
X247.0Y-143.705
X252.75Y-85.646
X252.75Y-122.885
X252.75Y-160.124
X257.75Y-87.846
X257.75Y-125.085
X257.75Y-162.324
X263.375Y-141.505
X263.5Y-104.266
X268.375Y-143.705
X268.5Y-106.466
X274.25Y-85.646
X274.25Y-122.885
X274.25Y-160.124
X279.25Y-87.846
X279.25Y-125.085
X279.25Y-162.324
X284.75Y-141.505
X285.0Y-104.266
X289.75Y-143.705
X290.0Y-106.466
X295.75Y-85.646
X295.75Y-122.885
X295.75Y-160.124
X300.75Y-87.846
X300.75Y-125.085
X300.75Y-162.324
X306.5Y-104.266
X306.5Y-141.505
X311.5Y-106.466
X311.5Y-143.705
X317.125Y-85.646
X317.25Y-122.885
X322.125Y-87.846
X322.25Y-125.085
X328.0Y-104.266
X328.0Y-141.505
X333.0Y-106.466
X333.0Y-143.705
X338.75Y-85.646
X338.75Y-122.885
X343.75Y-87.846
X343.75Y-125.085
T5
X74.95Y-91.546
X75.2Y-128.785
X85.95Y-110.166
X85.95Y-147.405
X96.45Y-91.546
X96.7Y-128.785
X107.2Y-110.166
X107.45Y-147.405
X117.95Y-91.546
X118.2Y-128.785
X118.2Y-166.024
X128.95Y-110.166
X128.95Y-147.405
X139.45Y-128.785
X139.7Y-91.546
X139.7Y-166.024
X150.45Y-110.166
X150.45Y-147.405
X160.95Y-166.024
X161.2Y-91.546
X161.2Y-128.785
X171.95Y-110.166
X171.95Y-147.405
X182.45Y-91.546
X182.7Y-128.785
X182.7Y-166.024
X182.7Y-203.263
X193.45Y-110.166
X193.45Y-147.405
X193.45Y-184.644
X220.25Y-184.644
X220.5Y-110.166
X220.5Y-147.405
X231.125Y-203.263
X231.25Y-91.546
X231.25Y-128.785
X231.25Y-166.024
X242.0Y-110.166
X242.0Y-147.405
X252.75Y-91.546
X252.75Y-128.785
X252.75Y-166.024
X263.375Y-147.405
X263.5Y-110.166
X274.25Y-91.546
X274.25Y-128.785
X274.25Y-166.024
X284.75Y-147.405
X285.0Y-110.166
X295.75Y-91.546
X295.75Y-128.785
X295.75Y-166.024
X306.5Y-110.166
X306.5Y-147.405
X317.125Y-91.546
X317.25Y-128.785
X328.0Y-110.166
X328.0Y-147.405
X338.75Y-91.546
X338.75Y-128.785
T0
M30
