M48
; DRILL file {KiCad 7.0.9} date Sat Dec 23 01:36:17 2023
; FORMAT={-:-/ absolute / metric / decimal}
; #@! TF.CreationDate,2023-12-23T01:36:17+05:30
; #@! TF.GenerationSoftware,Kicad,Pcbnew,7.0.9
; #@! TF.FileFunction,Plated,1,2,PTH
FMAT,2
METRIC
; #@! TA.AperFunction,Plated,PTH,ViaDrill
T1C0.400
; #@! TA.AperFunction,Plated,PTH,ComponentDrill
T2C2.700
%
G90
G05
T1
X71.825Y-91.554
X72.075Y-128.804
X77.825Y-102.054
X81.825Y-132.554
X82.825Y-110.304
X82.825Y-147.554
X84.575Y-157.304
X87.075Y-157.304
X89.575Y-157.304
X93.325Y-91.554
X93.575Y-129.054
X104.075Y-110.304
X104.325Y-147.554
X114.825Y-91.554
X115.075Y-129.054
X115.075Y-166.054
X125.825Y-110.304
X125.825Y-147.554
X136.325Y-128.804
X136.575Y-91.804
X136.575Y-166.054
X147.325Y-110.304
X147.325Y-147.554
X157.825Y-166.304
X158.075Y-91.804
X158.075Y-129.054
X168.825Y-110.304
X168.825Y-147.304
X179.325Y-91.554
X179.575Y-128.804
X179.575Y-166.054
X179.575Y-203.304
X190.325Y-110.304
X190.325Y-147.304
X190.325Y-184.554
X217.08Y-184.662
X217.28Y-147.362
X217.38Y-110.262
X227.98Y-203.162
X228.08Y-91.662
X228.08Y-128.662
X228.08Y-165.962
X238.78Y-110.162
X238.78Y-147.262
X245.907Y-170.679
X249.58Y-91.662
X249.58Y-165.962
X249.68Y-128.862
X260.38Y-110.062
X260.38Y-147.262
X270.98Y-91.562
X271.08Y-128.762
X271.08Y-165.962
X281.68Y-147.462
X281.88Y-110.262
X292.58Y-91.662
X292.58Y-165.862
X292.68Y-128.662
X295.961Y-175.334
X296.978Y-175.343
X303.28Y-109.962
X303.28Y-147.362
X313.88Y-91.662
X314.08Y-128.862
X324.78Y-110.062
X324.78Y-147.462
X334.647Y-153.611
X335.48Y-128.662
X335.68Y-91.762
X348.032Y-127.234
T2
X75.872Y-165.943
X75.872Y-203.182
X85.95Y-98.059
X85.95Y-135.686
X128.95Y-98.059
X128.95Y-135.686
X171.95Y-98.059
X171.95Y-135.686
X171.95Y-184.563
X241.876Y-134.992
X241.876Y-184.644
X242.212Y-97.753
X285.212Y-97.753
X285.212Y-134.992
X327.876Y-97.753
X327.876Y-134.992
X338.626Y-166.024
X338.626Y-203.264
T0
M30
