M48
METRIC,TZ
T1C0.500
T2C1.900
T3C2.400
T4C3.000
T5C3.500
%
G90
G05
T1
X204075Y-145925
X204075Y-146665
X204075Y-147405
X204075Y-148145
X204075Y-148885
X209675Y-146295
X209675Y-147035
X209675Y-147775
X209675Y-148515
T2
X69450Y-91546
X69700Y-128785
X80450Y-91546
X80450Y-110166
X80450Y-147405
X80700Y-128785
X90950Y-91546
X91200Y-128785
X91450Y-110166
X91450Y-147405
X101700Y-110166
X101950Y-91546
X101950Y-147405
X102200Y-128785
X112450Y-91546
X112700Y-110166
X112700Y-128785
X112700Y-166024
X112950Y-147405
X123450Y-91546
X123450Y-110166
X123450Y-147405
X123700Y-128785
X123700Y-166024
X133950Y-128785
X134200Y-91546
X134200Y-166024
X134450Y-110166
X134450Y-147405
X144950Y-110166
X144950Y-128785
X144950Y-147405
X145200Y-91546
X145200Y-166024
X155450Y-166024
X155700Y-91546
X155700Y-128785
X155950Y-110166
X155950Y-147405
X166450Y-110166
X166450Y-147405
X166450Y-166024
X166700Y-91546
X166700Y-128785
X176950Y-91546
X177200Y-128785
X177200Y-166024
X177200Y-203263
X177450Y-110166
X177450Y-147405
X187950Y-91546
X187950Y-110166
X187950Y-147405
X187950Y-184644
X188200Y-128785
X188200Y-166024
X188200Y-203263
X198950Y-110166
X198950Y-147405
X198950Y-184644
X214750Y-184644
X215000Y-110166
X215000Y-147405
X225625Y-203263
X225750Y-91546
X225750Y-128785
X225750Y-166024
X225750Y-184644
X226000Y-110166
X226000Y-147405
X236500Y-110166
X236500Y-147405
X236625Y-203263
X236750Y-91546
X236750Y-128785
X236750Y-166024
X247250Y-91546
X247250Y-128785
X247250Y-166024
X247500Y-110166
X247500Y-147405
X257875Y-147405
X258000Y-110166
X258250Y-91546
X258250Y-128785
X258250Y-166024
X268750Y-91546
X268750Y-128785
X268750Y-166024
X268875Y-147405
X269000Y-110166
X279250Y-147405
X279500Y-110166
X279750Y-91546
X279750Y-128785
X279750Y-166024
X290250Y-91546
X290250Y-128785
X290250Y-147405
X290250Y-166024
X290500Y-110166
X301000Y-110166
X301000Y-147405
X301250Y-91546
X301250Y-128785
X301250Y-166024
X311625Y-91546
X311750Y-128785
X312000Y-110166
X312000Y-147405
X322500Y-110166
X322500Y-147405
X322625Y-91546
X322750Y-128785
X333250Y-91546
X333250Y-128785
X333500Y-110166
X333500Y-147405
X344250Y-91546
X344250Y-128785
T3
X206875Y-147405
T4
X74950Y-85646
X75200Y-122885
X79950Y-87846
X80200Y-125085
X85950Y-104266
X85950Y-141505
X90950Y-106466
X90950Y-143705
X96450Y-85646
X96700Y-122885
X101450Y-87846
X101700Y-125085
X107200Y-104266
X107450Y-141505
X112200Y-106466
X112450Y-143705
X117950Y-85646
X118200Y-122885
X118200Y-160124
X122950Y-87846
X123200Y-125085
X123200Y-162324
X128950Y-104266
X128950Y-141505
X133950Y-106466
X133950Y-143705
X139450Y-122885
X139700Y-85646
X139700Y-160124
X144450Y-125085
X144700Y-87846
X144700Y-162324
X150450Y-104266
X150450Y-141505
X155450Y-106466
X155450Y-143705
X160950Y-160124
X161200Y-85646
X161200Y-122885
X165950Y-162324
X166200Y-87846
X166200Y-125085
X171950Y-104266
X171950Y-141505
X176950Y-106466
X176950Y-143705
X182450Y-85646
X182700Y-122885
X182700Y-160124
X182700Y-197363
X187450Y-87846
X187700Y-125085
X187700Y-162324
X187700Y-199563
X193450Y-104266
X193450Y-141505
X193450Y-178744
X198450Y-106466
X198450Y-143705
X198450Y-180944
X220250Y-178744
X220500Y-104266
X220500Y-141505
X225250Y-180944
X225500Y-106466
X225500Y-143705
X231125Y-197363
X231250Y-85646
X231250Y-122885
X231250Y-160124
X236125Y-199563
X236250Y-87846
X236250Y-125085
X236250Y-162324
X242000Y-104266
X242000Y-141505
X247000Y-106466
X247000Y-143705
X252750Y-85646
X252750Y-122885
X252750Y-160124
X257750Y-87846
X257750Y-125085
X257750Y-162324
X263375Y-141505
X263500Y-104266
X268375Y-143705
X268500Y-106466
X274250Y-85646
X274250Y-122885
X274250Y-160124
X279250Y-87846
X279250Y-125085
X279250Y-162324
X284750Y-141505
X285000Y-104266
X289750Y-143705
X290000Y-106466
X295750Y-85646
X295750Y-122885
X295750Y-160124
X300750Y-87846
X300750Y-125085
X300750Y-162324
X306500Y-104266
X306500Y-141505
X311500Y-106466
X311500Y-143705
X317125Y-85646
X317250Y-122885
X322125Y-87846
X322250Y-125085
X328000Y-104266
X328000Y-141505
X333000Y-106466
X333000Y-143705
X338750Y-85646
X338750Y-122885
X343750Y-87846
X343750Y-125085
T5
X74950Y-91546
X75200Y-128785
X85950Y-110166
X85950Y-147405
X96450Y-91546
X96700Y-128785
X107200Y-110166
X107450Y-147405
X117950Y-91546
X118200Y-128785
X118200Y-166024
X128950Y-110166
X128950Y-147405
X139450Y-128785
X139700Y-91546
X139700Y-166024
X150450Y-110166
X150450Y-147405
X160950Y-166024
X161200Y-91546
X161200Y-128785
X171950Y-110166
X171950Y-147405
X182450Y-91546
X182700Y-128785
X182700Y-166024
X182700Y-203263
X193450Y-110166
X193450Y-147405
X193450Y-184644
X220250Y-184644
X220500Y-110166
X220500Y-147405
X231125Y-203263
X231250Y-91546
X231250Y-128785
X231250Y-166024
X242000Y-110166
X242000Y-147405
X252750Y-91546
X252750Y-128785
X252750Y-166024
X263375Y-147405
X263500Y-110166
X274250Y-91546
X274250Y-128785
X274250Y-166024
X284750Y-147405
X285000Y-110166
X295750Y-91546
X295750Y-128785
X295750Y-166024
X306500Y-110166
X306500Y-147405
X317125Y-91546
X317250Y-128785
X328000Y-110166
X328000Y-147405
X338750Y-91546
X338750Y-128785
T0
M30
