%TF.GenerationSoftware,KiCad,Pcbnew,7.0.9*%
%TF.CreationDate,2023-12-23T01:36:18+05:30*%
%TF.ProjectId,HiveKB,48697665-4b42-42e6-9b69-6361645f7063,rev?*%
%TF.SameCoordinates,Original*%
%TF.FileFunction,Profile,NP*%
%FSLAX46Y46*%
G04 Gerber Fmt 4.6, Leading zero omitted, Abs format (unit mm)*
G04 Created by KiCad (PCBNEW 7.0.9) date 2023-12-23 01:36:18*
%MOMM*%
%LPD*%
G01*
G04 APERTURE LIST*
%TA.AperFunction,Profile*%
%ADD10C,0.100000*%
%TD*%
G04 APERTURE END LIST*
D10*
X274125408Y-215676570D02*
X284875424Y-209470050D01*
X349375520Y-85339650D02*
X349375520Y-97752690D01*
X193325112Y-209470052D02*
X182575112Y-215676568D01*
X107325112Y-209470052D02*
X96575112Y-215676568D01*
X193325112Y-209470052D02*
X193325296Y-197057010D01*
X118075112Y-215676568D02*
X107325112Y-209470052D01*
X338625504Y-79133130D02*
X349375520Y-85339650D01*
X193325296Y-97752690D02*
X193325112Y-85339732D01*
X64325112Y-172230956D02*
X64325112Y-159817924D01*
X209625312Y-149434850D02*
X209625312Y-153611370D01*
X128825112Y-85339732D02*
X139575112Y-79133216D01*
X349375520Y-122578770D02*
X349375520Y-134991810D01*
X182575112Y-215676568D02*
X171825112Y-209470052D01*
X317125472Y-79133130D02*
X327875488Y-85339650D01*
X204075312Y-116372250D02*
X204075312Y-103959210D01*
X64325112Y-209470052D02*
X64325112Y-197057020D01*
X193325296Y-122578770D02*
X204075312Y-116372250D01*
X220375328Y-85339650D02*
X231125344Y-79133130D01*
X64325112Y-85339732D02*
X75075112Y-79133216D01*
X274125408Y-79133130D02*
X284875424Y-85339650D01*
X349375520Y-197057010D02*
X338625504Y-190850490D01*
X64325112Y-97752764D02*
X64325112Y-85339732D01*
X204075312Y-178437450D02*
X193325296Y-172230930D01*
X85825112Y-85339732D02*
X96575112Y-79133216D01*
X209625312Y-190850490D02*
X220375328Y-197057010D01*
X327875488Y-85339650D02*
X338625504Y-79133130D01*
X284875424Y-85339650D02*
X295625440Y-79133130D01*
X204075312Y-141198330D02*
X193325296Y-134991810D01*
X295625440Y-215676570D02*
X306375456Y-209470050D01*
X75075112Y-141198376D02*
X64325112Y-134991860D01*
X263375392Y-209470050D02*
X274125408Y-215676570D01*
X75075112Y-116372312D02*
X75075112Y-103959280D01*
X204125312Y-145004850D02*
X204075312Y-141198330D01*
X128825112Y-209470052D02*
X118075112Y-215676568D01*
X209625312Y-103959210D02*
X209625312Y-116372250D01*
X171825112Y-209470052D02*
X161075112Y-215676568D01*
X327875488Y-209470050D02*
X338625504Y-215676570D01*
X85825112Y-209470052D02*
X75075112Y-215676568D01*
X338625504Y-141198330D02*
X338625504Y-153611370D01*
X161075112Y-79133216D02*
X171825112Y-85339732D01*
X220375328Y-97752690D02*
X209625312Y-103959210D01*
X64325112Y-197057020D02*
X75075112Y-190850504D01*
X193325296Y-159817890D02*
X204075312Y-153611370D01*
X150325112Y-85339732D02*
X161075112Y-79133216D01*
X161075112Y-215676568D02*
X150325112Y-209470052D01*
X75075112Y-153611408D02*
X75075112Y-141198376D01*
X338625504Y-153611370D02*
X349375520Y-159817890D01*
X64325112Y-134991860D02*
X64325112Y-122578828D01*
X252625376Y-79133130D02*
X263375392Y-85339650D01*
X193325296Y-197057010D02*
X204075312Y-190850490D01*
X338625504Y-190850490D02*
X338625504Y-178437450D01*
X209625312Y-178437450D02*
X209625312Y-190850490D01*
X306375456Y-85339650D02*
X317125472Y-79133130D01*
X241875360Y-85339650D02*
X252625376Y-79133130D01*
X204075312Y-190850490D02*
X204075312Y-178437450D01*
X220375328Y-134991810D02*
X209625312Y-141198330D01*
X220375328Y-122578770D02*
X220375328Y-134991810D01*
X139575112Y-215676568D02*
X128825112Y-209470052D01*
X220375328Y-159817890D02*
X220375328Y-172230930D01*
X241875360Y-209470050D02*
X252625376Y-215676570D01*
X220375328Y-197057010D02*
X220375328Y-209470050D01*
X252625376Y-215676570D02*
X263375392Y-209470050D01*
X107325112Y-85339732D02*
X118075112Y-79133216D01*
X349375520Y-97752690D02*
X338625504Y-103959210D01*
X204125312Y-149804850D02*
X204075312Y-153611370D01*
X209625312Y-145374850D02*
X209625312Y-141198330D01*
X338625504Y-215676570D02*
X349375520Y-209470050D01*
X338625504Y-116372250D02*
X349375520Y-122578770D01*
X139575112Y-79133216D02*
X150325112Y-85339732D01*
X204075312Y-103959210D02*
X193325296Y-97752690D01*
X263375392Y-85339650D02*
X274125408Y-79133130D01*
X284875424Y-209470050D02*
X295625440Y-215676570D01*
X231125344Y-215676570D02*
X241875360Y-209470050D01*
X171825112Y-85339732D02*
X182575112Y-79133216D01*
X118075112Y-79133216D02*
X128825112Y-85339732D01*
X150325112Y-209470052D02*
X139575112Y-215676568D01*
X349375520Y-134991810D02*
X338625504Y-141198330D01*
X306375456Y-209470050D02*
X317125472Y-215676570D01*
X75075112Y-103959280D02*
X64325112Y-97752764D01*
X317125472Y-215676570D02*
X327875488Y-209470050D01*
X349375520Y-209470050D02*
X349375520Y-197057010D01*
X193325296Y-134991810D02*
X193325296Y-122578770D01*
X64325112Y-122578828D02*
X75075112Y-116372312D01*
X64325112Y-159817924D02*
X75075112Y-153611408D01*
X220375328Y-172230930D02*
X209625312Y-178437450D01*
X295625440Y-79133130D02*
X306375456Y-85339650D01*
X75075112Y-79133216D02*
X85825112Y-85339732D01*
X75075112Y-178437472D02*
X64325112Y-172230956D01*
X182575112Y-79133216D02*
X193325112Y-85339732D01*
X96575112Y-215676568D02*
X85825112Y-209470052D01*
X75075112Y-190850504D02*
X75075112Y-178437472D01*
X96575112Y-79133216D02*
X107325112Y-85339732D01*
X209625312Y-116372250D02*
X220375328Y-122578770D01*
X338625504Y-103959210D02*
X338625504Y-116372250D01*
X231125344Y-79133130D02*
X241875360Y-85339650D01*
X338625504Y-178437450D02*
X349375520Y-172230930D01*
X220375328Y-85339650D02*
X220375328Y-97752690D01*
X349375520Y-172230930D02*
X349375520Y-159817890D01*
X75075112Y-215676568D02*
X64325112Y-209470052D01*
X193325296Y-172230930D02*
X193325296Y-159817890D01*
X209625312Y-153611370D02*
X220375328Y-159817890D01*
X220375328Y-209470050D02*
X231125344Y-215676570D01*
%TO.C,MB5*%
X205625312Y-143504850D02*
X205625312Y-145004850D01*
X205625312Y-149804850D02*
X205625312Y-151304850D01*
X208125312Y-145374850D02*
X208125312Y-143504850D01*
X208125312Y-151304850D02*
X208125312Y-149434850D01*
X205625312Y-149804850D02*
G75*
G03*
X204125312Y-149804850I-750000J0D01*
G01*
X208125312Y-143504850D02*
G75*
G03*
X205625312Y-143504850I-1250000J0D01*
G01*
X204125312Y-145004850D02*
G75*
G03*
X205625312Y-145004850I750000J0D01*
G01*
X209625312Y-149434850D02*
G75*
G03*
X208125312Y-149434850I-750000J0D01*
G01*
X205625312Y-151304850D02*
G75*
G03*
X208125312Y-151304850I1250000J0D01*
G01*
X208125312Y-145374850D02*
G75*
G03*
X209625312Y-145374850I750000J0D01*
G01*
%TD*%
M02*
