M48
METRIC,TZ
T1C0.400
T2C2.700
%
G90
G05
T1
X71825Y-91554
X72075Y-128804
X77825Y-102054
X81825Y-132554
X82825Y-110304
X82825Y-147554
X84575Y-157304
X87075Y-157304
X89575Y-157304
X93325Y-91554
X93575Y-129054
X104075Y-110304
X104325Y-147554
X114825Y-91554
X115075Y-129054
X115075Y-166054
X125825Y-110304
X125825Y-147554
X136325Y-128804
X136575Y-91804
X136575Y-166054
X147325Y-110304
X147325Y-147554
X157825Y-166304
X158075Y-91804
X158075Y-129054
X168825Y-110304
X168825Y-147304
X179325Y-91554
X179575Y-128804
X179575Y-166054
X179575Y-203304
X190325Y-110304
X190325Y-147304
X190325Y-184554
X217080Y-184662
X217280Y-147362
X217380Y-110262
X227980Y-203162
X228080Y-91662
X228080Y-128662
X228080Y-165962
X238780Y-110162
X238780Y-147262
X245907Y-170679
X249580Y-91662
X249580Y-165962
X249680Y-128862
X260380Y-110062
X260380Y-147262
X270980Y-91562
X271080Y-128762
X271080Y-165962
X281680Y-147462
X281880Y-110262
X292580Y-91662
X292580Y-165862
X292680Y-128662
X295961Y-175334
X296978Y-175343
X303280Y-109962
X303280Y-147362
X313880Y-91662
X314080Y-128862
X324780Y-110062
X324780Y-147462
X334647Y-153611
X335480Y-128662
X335680Y-91762
X348032Y-127234
T2
X75872Y-165943
X75872Y-203182
X85950Y-98059
X85950Y-135686
X128950Y-98059
X128950Y-135686
X171950Y-98059
X171950Y-135686
X171950Y-184563
X241876Y-134992
X241876Y-184644
X242212Y-97753
X285212Y-97753
X285212Y-134992
X327876Y-97753
X327876Y-134992
X338626Y-166024
X338626Y-203264
T0
M30
